<?xml version="1.0" encoding="utf-8"?>
<!-- Generator: Adobe Illustrator 22.1.0, SVG Export Plug-In . SVG Version: 6.00 Build 0)  -->
<svg version="1.1" id="Layer_1" xmlns="http://www.w3.org/2000/svg" xmlns:xlink="http://www.w3.org/1999/xlink" x="0px" y="0px"
	 viewBox="0 0 1970.2 1240" style="enable-background:new 0 0 1970.2 1240;" xml:space="preserve">
<style type="text/css">
	.st0{display:none;fill:#FFFFFF;}
	.st1{fill:#FFFFFF;}
</style>
<g>
	<path class="st0" d="M313.1,586.6c-18.1-91.8-99.1-161-196.2-161v400h-100V452.3c-49,28.3-84.8,76.9-96.2,134.2h-108.8v340h664
		v-340L313.1,586.6L313.1,586.6z"/>
	<g>
		<path class="st1" d="M17.4,825.1V452.6c30-17.3,64.2-26.5,99-26.5v399H17.4z"/>
		<path class="st1" d="M115.9,426.6v398h-98V452.9C47.6,435.8,81.5,426.7,115.9,426.6 M116.9,425.6c-36.4,0-70.6,9.7-100,26.8v373.2
			h100V425.6L116.9,425.6z"/>
	</g>
</g>
<path class="st1" d="M116.4,325.1v-100c-36.4,0.1-70.6,9.8-100,26.8v73.2v26.8c29.6-17,63.9-26.8,100.5-26.8H116.4z"/>
<path class="st1" d="M793.4,50.8V74v50v702.5h100V124.1v-50v-50C857,24.2,822.9,33.9,793.4,50.8z"/>
<path class="st1" d="M1244.4,425.1c-110.5,0-200,89.5-200,200s89.5,200,200,200s200-89.5,200-200S1354.9,425.1,1244.4,425.1z
	 M1244.4,725.1c-55.2,0-100-44.8-100-100s44.8-100,100-100s100,44.8,100,100S1299.7,725.1,1244.4,725.1z"/>
<path class="st1" d="M1744.4,426.1c-110.5,0-200,89.5-200,200s89.5,200,200,200s200-89.5,200-200S1854.9,426.1,1744.4,426.1z
	 M1744.4,726.1c-55.2,0-100-44.8-100-100s44.8-100,100-100s100,44.8,100,100S1799.7,726.1,1744.4,726.1z"/>
<path class="st1" d="M442.4,424.6c-110.5,0-200,89.5-200,200s89.5,200,200,200c36.4,0,70.6-9.7,100-26.8v226.8
	c0,58.5-47.5,106-106,106c-26,0-49.8-9.4-68.2-24.9c-21.4,12.1-41.8,26.4-60.8,43l-11.8,11.8c36.5,39.4,88.7,64.1,146.7,64.1
	c110.5,0,200-89.5,200-200v-400V478.2C583.6,444.1,515.3,424.6,442.4,424.6z M442.4,724.6c-55.2,0-100-44.8-100-100
	s44.8-100,100-100s100,44.8,100,100S497.6,724.6,442.4,724.6z"/>
<g>
	<path class="st1" d="M1477.8,985.3c-47.4,0-85.8,38.9-85.8,86.8s38.4,86.8,85.8,86.8c47.4,0,85.8-38.9,85.8-86.8
		S1525.2,985.3,1477.8,985.3z M1477.8,1137.3c-35.5,0-64.3-29.2-64.3-65.1c0-36,28.8-65.1,64.3-65.1c35.5,0,64.3,29.2,64.3,65.1
		C1542.2,1108.1,1513.4,1137.3,1477.8,1137.3z"/>
	<path class="st1" d="M943.5,1014.7c-15.7-18-38.7-29.4-64.3-29.4c-47.4,0-85.8,38.9-85.8,86.8s38.4,86.8,85.8,86.8
		c25.6,0,48.6-11.4,64.3-29.4v29.4h21.4V988.1c-6.9-1.8-14-2.7-21.4-2.7V1014.7z M879.2,1137.3c-35.5,0-64.3-29.2-64.3-65.1
		c0-36,28.8-65.1,64.3-65.1s64.3,29.2,64.3,65.1C943.5,1108.1,914.7,1137.3,879.2,1137.3z"/>
	<path class="st1" d="M1161.3,1072.2c0,36-28.8,65.1-64.3,65.1c-35.5,0-64.3-29.2-64.3-65.1v-86.8c-7.4,0-14.6,0.9-21.4,2.7v84.1
		c0,48,38.4,86.8,85.8,86.8c47.4,0,85.8-38.9,85.8-86.8v-86.8c-7.4,0-14.6,0.9-21.4,2.7V1072.2z"/>
	<path class="st1" d="M1247.1,1014.9v-29.6c-7.4,0-14.6,0.9-21.4,2.7V1159h21.4v-86.8h0.2c0-36,28.8-65.1,64.3-65.1
		c12.3,0,23.8,3.5,33.5,9.5c6.3-3.8,12.3-8.4,17.7-14l0.1-0.1c-14.3-10.8-32.1-17.3-51.3-17.3
		C1285.9,985.3,1262.8,996.8,1247.1,1014.9z"/>
	<path class="st1" d="M1627.9,1014.9v-29.6c-7.4,0-14.6,0.9-21.4,2.7V1159h21.4v-86.8h0.2c0-36,28.8-65.1,64.3-65.1
		c12.3,0,23.8,3.5,33.5,9.5c6.3-3.8,12.3-8.4,17.7-14l0.1-0.1c-14.3-10.8-32.1-17.3-51.3-17.3
		C1666.7,985.3,1643.6,996.8,1627.9,1014.9z"/>
	<path class="st1" d="M1923,983.2v29.4c-15.7-18-38.7-29.4-64.3-29.4c-47.4,0-85.8,38.9-85.8,86.8c0,48,38.4,86.8,85.8,86.8
		c25.6,0,48.6-11.4,64.3-29.4v29.4h21.4V985.9C1937.5,984.1,1930.4,983.2,1923,983.2z M1858.6,1135.1c-35.5,0-64.3-29.2-64.3-65.1
		c0-36,28.8-65.1,64.3-65.1c35.5,0,64.3,29.2,64.3,65.1C1923,1106,1894.2,1135.1,1858.6,1135.1z"/>
</g>
</svg>
