<?xml version="1.0" encoding="utf-8"?>
<!-- Generator: Adobe Illustrator 22.1.0, SVG Export Plug-In . SVG Version: 6.00 Build 0)  -->
<svg version="1.1" id="Layer_1" xmlns="http://www.w3.org/2000/svg" xmlns:xlink="http://www.w3.org/1999/xlink" x="0px" y="0px"
	 viewBox="0 0 1970.2 1240" style="enable-background:new 0 0 1970.2 1240;" xml:space="preserve">
<style type="text/css">
	.st0{fill:#FFFFFF;}
	.st1{display:none;fill:#FFFFFF;}
</style>
<path class="st0" d="M1743.3,970.3l7.4-7.4c-15.4-15.1-36.5-24.4-59.8-24.4c-14.8,0-29.1,1.9-42.8,5.4v-6.3c-14.7,0-29,1.6-42.8,4.6
	v11.3v5v150.2h42.8v-85.5c0-20,13.8-36.8,32.4-41.5c3.4-0.3,6.9-0.4,10.4-0.4c10.1,0,19.3,3.5,26.6,9.3
	C1726.5,984.5,1735.1,977.8,1743.3,970.3z"/>
<path class="st0" d="M1361.7,971.1l7.4-7.4c-15.4-15.1-36.5-24.4-59.8-24.4c-14.8,0-29.1,1.9-42.8,5.4v-6.3c-14.7,0-29,1.6-42.8,4.6
	v11.3v5v150.2h42.8V1024c0-20,13.8-36.8,32.4-41.5c3.4-0.3,6.9-0.4,10.4-0.4c10.1,0,19.3,3.5,26.6,9.3
	C1344.9,985.4,1353.5,978.6,1361.7,971.1z"/>
<g>
	<path class="st0" d="M923.4,1111.2V1098l-0.8,0.4c-12.9,7.5-27.7,11.4-42.7,11.4c-47.1,0-85.4-38.3-85.4-85.4s38.3-85.4,85.4-85.4
		c15,0,29.8,4,42.7,11.4l0.8,0.4v-10.6c14.2,0,28.3,1.8,42,5.3v165.6L923.4,1111.2L923.4,1111.2z M879.9,981
		c-24,0-43.5,19.5-43.5,43.5s19.5,43.5,43.5,43.5s43.5-19.5,43.5-43.5S903.9,981,879.9,981z"/>
	<path class="st0" d="M879.9,939.5c14.9,0,29.6,3.9,42.5,11.4l1.5,0.9V950v-9.2c13.9,0.1,27.6,1.8,41,5.2v164.7h-41v-11.8v-1.7
		l-1.5,0.9c-12.9,7.4-27.5,11.4-42.5,11.4c-46.8,0-84.9-38.1-84.9-84.9C795,977.6,833.1,939.5,879.9,939.5 M879.9,1068.4
		c24.2,0,44-19.7,44-44c0-24.2-19.7-44-44-44s-44,19.7-44,44C836,1048.7,855.7,1068.4,879.9,1068.4 M879.9,938.5
		c-47.5,0-85.9,38.5-85.9,85.9s38.5,85.9,85.9,85.9c15.7,0,30.3-4.2,43-11.5v12.8h43V945.2c-13.7-3.5-28.1-5.4-43-5.4V950
		C910.3,942.7,895.6,938.5,879.9,938.5L879.9,938.5z M879.9,1067.4c-23.7,0-43-19.2-43-43c0-23.7,19.2-43,43-43
		c23.7,0,43,19.2,43,43C922.9,1048.2,903.7,1067.4,879.9,1067.4L879.9,1067.4z"/>
</g>
<g>
	<path class="st0" d="M1094.8,1111.2c-0.7,0-1.3,0-2,0h-0.8c-0.4,0-0.8,0-1.1,0c-0.3,0-0.6,0-1,0l-1.2-0.1l-0.8-0.1
		c-0.6,0-1.2-0.1-1.8-0.2l-0.5-0.1c-0.5-0.1-1-0.1-1.4-0.2l-0.4-0.1c-0.6-0.1-1.2-0.2-1.8-0.3l-0.4-0.1c-0.5-0.1-1-0.2-1.4-0.2
		l-0.5-0.1c-0.5-0.1-1-0.2-1.6-0.3h-0.2c-0.6-0.1-1.2-0.2-1.8-0.4l-0.5-0.1c-0.4-0.1-0.9-0.2-1.3-0.3l-0.5-0.1
		c-0.6-0.1-1.1-0.3-1.7-0.5l-0.3-0.1c-0.5-0.1-1-0.3-1.4-0.4l-0.5-0.2c-0.5-0.1-0.9-0.3-1.3-0.4l-0.4-0.1c-0.6-0.2-1.1-0.4-1.6-0.6
		l-0.5-0.2c-0.4-0.1-0.8-0.3-1.2-0.4l-0.5-0.2c-0.5-0.2-1.1-0.4-1.6-0.6l-0.2-0.1c-0.5-0.2-0.9-0.4-1.4-0.6l-0.5-0.2
		c-0.4-0.2-0.8-0.3-1.2-0.5l-0.5-0.2c-0.5-0.2-1-0.5-1.5-0.7l-0.5-0.2c-0.4-0.2-0.7-0.4-1.1-0.6l-0.6-0.3c-0.4-0.2-0.8-0.4-1.2-0.6
		l-0.4-0.2c-0.5-0.3-0.9-0.5-1.4-0.8l-0.6-0.3c-0.3-0.2-1.5-0.9-1.5-0.9c-0.5-0.3-0.9-0.6-1.4-0.9l-0.5-0.3
		c-0.3-0.2-0.6-0.4-0.9-0.6l-0.6-0.4c-0.3-0.2-1.4-1-1.4-1c-0.4-0.3-0.8-0.6-1.3-0.9l-0.6-0.4c-0.3-0.2-0.9-0.7-0.9-0.7l-0.5-0.4
		c-0.3-0.3-0.6-0.5-1-0.8c-0.3-0.2-0.5-0.4-0.8-0.6s-0.5-0.4-0.8-0.7c-0.2-0.2-0.4-0.4-0.6-0.5c-0.2-0.2-1.3-1.1-1.3-1.1
		c-0.4-0.3-0.7-0.7-1.1-1l-1.3-1.3l-0.5-0.5l-0.6-0.6c-0.3-0.3-1.1-1.1-1.1-1.1l-0.5-0.5c-0.2-0.2-0.4-0.4-0.6-0.7l-1.1-1.3
		c-0.2-0.3-0.4-0.5-0.7-0.8l-0.1-0.1c-0.3-0.3-0.5-0.6-0.8-0.9l-0.5-0.6l-0.6-0.7l-0.5-0.6c-0.3-0.4-0.7-0.9-1-1.3l-0.4-0.6
		c-0.2-0.3-0.4-0.5-0.6-0.8c0,0-0.8-1.1-1-1.4l-0.4-0.6c-0.3-0.5-0.6-1-1-1.4l-0.4-0.6c-0.2-0.3-0.4-0.6-0.5-0.8l-0.4-0.6
		c-0.3-0.5-0.7-1.1-1-1.7l-0.2-0.4c-0.2-0.3-0.3-0.6-0.5-0.9l-0.3-0.6c-0.2-0.3-0.3-0.6-0.5-0.9l-0.3-0.6c-0.3-0.5-0.6-1.1-0.8-1.6
		l-0.3-0.6c-0.1-0.3-0.3-0.6-0.4-0.9l-0.3-0.6c-5.3-11.3-8-23.5-8-36.1v-80.1c13.6-3.5,27.8-5.3,42-5.3v85.4
		c0,21.5,15.4,39.5,36.5,42.9c0.6,0.1,1.1,0.2,1.7,0.2c0.6,0.1,1.1,0.1,1.7,0.2c0.6,0,1.1,0.1,1.6,0.1h0.3c0.5,0,1.1,0,1.6,0
		c0.4,0,0.8,0,1.2,0c0,0,0.9,0,1.2,0h0.4c0.2,0,0.5,0,0.7-0.1c0,0,0.9-0.1,1.2-0.1l0.5-0.1c0.2,0,1.2-0.2,1.2-0.2
		c0.3,0,1.1-0.2,1.1-0.2c0.3,0,1.1-0.2,1.1-0.2c0.4-0.1,0.7-0.1,1.1-0.2c0.8-0.2,1.6-0.4,2.3-0.6h0.1c0.3-0.1,0.7-0.2,1-0.3l0.2-0.1
		c0.3-0.1,0.6-0.2,0.9-0.3l0.2-0.1c0.4-0.1,0.6-0.2,0.9-0.3l0.2-0.1c0.3-0.1,0.6-0.2,0.9-0.3l0.2-0.1c0.3-0.1,0.6-0.3,0.9-0.4
		l0.1-0.1c0.3-0.2,0.7-0.3,1-0.5c15.1-7.2,24.8-22.6,24.8-39.3v-80.1c13.6-3.5,27.8-5.3,42-5.3v85.4c0,19.6-6.8,38.7-19.2,53.9
		c-12.2,15-29.2,25.4-47.9,29.6c-0.7,0.2-1.5,0.3-2.2,0.5c-0.8,0.1-1.5,0.3-2.2,0.4h-0.2c-0.7,0.1-1.4,0.2-2,0.3h-0.3
		c-0.6,0.1-1.3,0.2-1.9,0.2h-0.4c-0.6,0.1-1.2,0.1-1.8,0.2h-0.5c-0.6,0-1.1,0.1-1.7,0.1h-0.6c-0.6,0-1.1,0-1.7,0.1h-0.6
		C1096.4,1111.2,1095.6,1111.2,1094.8,1111.2z"/>
	<path class="st0" d="M1179.8,940.8V998v27.8c0,19.5-6.8,38.5-19,53.6c-12.1,14.9-29,25.3-47.6,29.4c-0.7,0.2-1.5,0.3-2.2,0.4h-0.1
		c-0.7,0.1-1.4,0.3-2.1,0.4h-0.1h-0.1c-0.7,0.1-1.3,0.2-2,0.3h-0.1h-0.2c-0.6,0.1-1.3,0.2-1.9,0.2h-0.2h-0.2
		c-0.6,0.1-1.2,0.1-1.8,0.2h-0.2h-0.3c-0.6,0-1.1,0.1-1.7,0.1h-0.3h-0.3c-0.6,0-1.1,0.1-1.7,0.1h-0.3h-0.3c-0.8,0-1.5,0-2.3,0
		c-0.7,0-1.3,0-2,0c-0.2,0-0.4,0-0.6,0h-0.2c-0.4,0-0.8,0-1.1,0c-0.3,0-0.6,0-1,0c-0.3,0-0.6,0-0.9-0.1h-0.2c-0.3,0-0.6,0-0.9-0.1
		c-0.6,0-1.2-0.1-1.8-0.2l-0.5-0.1c-0.5-0.1-0.9-0.1-1.4-0.2h-0.2h-0.3c-0.6-0.1-1.2-0.2-1.8-0.2h-0.2h-0.2c-0.5-0.1-1-0.2-1.4-0.2
		l-0.5-0.1c-0.5-0.1-1-0.2-1.6-0.3h-0.1h-0.1c-0.6-0.1-1.2-0.2-1.7-0.4l-0.3-0.1h-0.1c-0.4-0.1-0.9-0.2-1.3-0.3h-0.2l-0.3-0.1
		c-0.6-0.1-1.1-0.3-1.7-0.4h-0.2h-0.1c-0.5-0.1-0.9-0.3-1.4-0.4l-0.5-0.2c-0.4-0.1-0.9-0.3-1.3-0.4l-0.2-0.1l-0.2-0.1
		c-0.5-0.2-1.1-0.4-1.6-0.6l-0.3-0.1l-0.2-0.1c-0.4-0.1-0.8-0.3-1.2-0.4h-0.1l-0.4-0.2c-0.5-0.2-1.1-0.4-1.6-0.6h-0.1h-0.1
		c-0.5-0.2-0.9-0.4-1.4-0.6l-0.5-0.2c-0.4-0.2-0.8-0.3-1.1-0.5l-0.2-0.1l-0.3-0.1c-0.5-0.2-1-0.5-1.5-0.7l-0.3-0.2l-0.2-0.1
		c-0.4-0.2-0.7-0.4-1.1-0.5l-0.6-0.3c-0.4-0.2-0.8-0.4-1.2-0.6l-0.1-0.1l-0.3-0.1c-0.5-0.3-0.9-0.5-1.3-0.8l-0.5-0.3h-0.1
		c-0.3-0.2-0.6-0.4-1-0.6l-0.1-0.1l-0.4-0.2c-0.5-0.3-0.9-0.6-1.4-0.9l-0.3-0.2l-0.2-0.1c-0.3-0.2-0.6-0.4-0.9-0.6
		c-0.2-0.1-0.4-0.3-0.6-0.4c-0.3-0.2-0.6-0.4-0.9-0.6l-0.2-0.1l-0.3-0.2c-0.4-0.3-0.8-0.6-1.3-0.9c-0.2-0.1-0.3-0.2-0.5-0.4
		l-0.1-0.1c-0.3-0.2-0.5-0.4-0.8-0.6h-0.1c-0.2-0.1-0.4-0.3-0.5-0.4c-0.3-0.3-0.6-0.5-1-0.8c-0.3-0.2-0.5-0.4-0.8-0.6
		s-0.5-0.4-0.8-0.7c-0.2-0.2-0.4-0.4-0.6-0.5c-0.2-0.2-0.5-0.4-0.7-0.6l-0.2-0.1c-0.1-0.1-0.3-0.3-0.4-0.4c-0.4-0.3-0.7-0.7-1.1-1
		c-0.2-0.1-0.3-0.3-0.5-0.4l-0.1-0.1c-0.2-0.2-0.4-0.4-0.6-0.6s-0.4-0.4-0.6-0.6s-0.4-0.4-0.6-0.6c-0.3-0.3-0.6-0.6-1-1
		c-0.2-0.2-0.4-0.4-0.6-0.6s-0.4-0.4-0.6-0.7c-0.2-0.2-0.4-0.4-0.5-0.6l-0.1-0.1c-0.2-0.2-0.3-0.4-0.5-0.6c-0.2-0.3-0.5-0.6-0.7-0.8
		c-0.3-0.3-0.5-0.6-0.8-0.9c-0.2-0.2-0.3-0.4-0.5-0.6s-0.4-0.5-0.6-0.7c-0.1-0.2-0.3-0.4-0.4-0.5l0,0c-0.3-0.4-0.7-0.8-1-1.3
		l-0.1-0.1c-0.1-0.1-0.2-0.3-0.3-0.4c-0.2-0.3-0.4-0.5-0.6-0.8c-0.1-0.2-0.3-0.4-0.4-0.6c-0.2-0.3-0.4-0.5-0.6-0.8l-0.3-0.4
		l-0.1-0.2c-0.3-0.5-0.6-1-1-1.4l-0.1-0.1l-0.3-0.5c-0.2-0.3-0.4-0.6-0.5-0.8c-0.1-0.2-0.2-0.4-0.3-0.6c-0.3-0.5-0.7-1.1-1-1.6
		l-0.1-0.2l-0.1-0.2c-0.2-0.3-0.3-0.6-0.5-0.9l-0.3-0.6c-0.2-0.3-0.3-0.6-0.5-0.9l-0.2-0.4l-0.1-0.2c-0.3-0.5-0.6-1.1-0.8-1.6
		l-0.1-0.2l-0.2-0.4c-0.1-0.3-0.3-0.6-0.4-0.9c-0.1-0.2-0.2-0.4-0.3-0.6c-5.3-11.3-7.9-23.3-7.9-35.8V946c13.3-3.4,27.1-5.1,41-5.2
		V998v27.8c0,21.7,15.5,40,36.9,43.4c0.6,0.1,1.1,0.2,1.7,0.2c0.6,0.1,1.1,0.1,1.7,0.2c0.5,0,1.1,0.1,1.6,0.1h0.3h0.1
		c0.5,0,1.1,0,1.6,0c0.4,0,0.8,0,1.2,0h0.2h0.1c0.3,0,0.5,0,0.8,0h0.3h0.1c0.2,0,0.5,0,0.7-0.1h0.4h0.1c0.2,0,0.5,0,0.7-0.1
		c0.2,0,0.3,0,0.5-0.1c0.2,0,0.5-0.1,0.7-0.1l0.4-0.1c0.3,0,0.5-0.1,0.8-0.1h0.1h0.3c0.3,0,0.6-0.1,0.8-0.2h0.1h0.2
		c0.4-0.1,0.7-0.1,1.1-0.2h0.1l0,0c0.8-0.2,1.6-0.4,2.3-0.6h0.1c0.3-0.1,0.7-0.2,1-0.3h0.1h0.1c0.3-0.1,0.6-0.2,0.9-0.3l0.2-0.1h0.1
		c0.3-0.1,0.6-0.2,0.9-0.3l0.2-0.1c0.3-0.1,0.6-0.2,0.9-0.3h0.1l0.2-0.1c0.3-0.1,0.6-0.3,0.9-0.4h0.1h0.1c0.3-0.2,0.7-0.3,1-0.5
		c15.2-7.3,25.1-22.9,25.1-39.7v-62.9V946C1152.1,942.6,1165.9,940.9,1179.8,940.8 M1180.8,939.8c-14.8,0-29.2,1.9-43,5.4v17.6v62.9
		c0,17.1-10,31.9-24.5,38.8c-0.3,0.2-0.7,0.3-1,0.5c0,0-0.1,0-0.1,0.1c-0.3,0.1-0.6,0.3-0.9,0.4c-0.1,0-0.1,0.1-0.2,0.1
		c-0.3,0.1-0.6,0.2-0.8,0.3c-0.1,0-0.2,0.1-0.2,0.1c-0.3,0.1-0.6,0.2-0.8,0.3c-0.1,0-0.2,0.1-0.2,0.1c-0.3,0.1-0.6,0.2-0.9,0.3
		c-0.1,0-0.1,0-0.2,0.1c-0.3,0.1-0.6,0.2-1,0.3h-0.1c-0.7,0.2-1.5,0.4-2.3,0.6l0,0c-0.4,0.1-0.7,0.2-1.1,0.2c-0.1,0-0.2,0-0.3,0.1
		c-0.3,0.1-0.5,0.1-0.8,0.2c-0.1,0-0.3,0-0.4,0.1c-0.2,0-0.5,0.1-0.7,0.1c-0.1,0-0.3,0-0.4,0.1c-0.2,0-0.5,0.1-0.7,0.1
		c-0.1,0-0.3,0-0.4,0.1c-0.2,0-0.5,0-0.7,0.1c-0.2,0-0.3,0-0.5,0s-0.5,0-0.7,0.1c-0.1,0-0.3,0-0.4,0c-0.3,0-0.5,0-0.8,0
		c-0.1,0-0.2,0-0.4,0c-0.4,0-0.8,0-1.2,0c-0.5,0-1.1,0-1.6,0c-0.1,0-0.2,0-0.3,0c-0.5,0-1.1-0.1-1.6-0.1l0,0c-0.6,0-1.1-0.1-1.7-0.2
		l0,0c-0.6-0.1-1.1-0.1-1.7-0.2c-20.5-3.3-36.1-21-36.1-42.4v-28v-58.2c-14.8,0-29.2,1.9-43,5.4v80.5c0,13,2.9,25.2,8,36.3
		c0.1,0.2,0.2,0.4,0.3,0.6c0.1,0.3,0.3,0.6,0.4,0.9c0.1,0.2,0.2,0.4,0.3,0.6c0.3,0.5,0.6,1.1,0.8,1.6c0.1,0.2,0.2,0.4,0.3,0.6
		c0.2,0.3,0.3,0.6,0.5,0.9c0.1,0.2,0.2,0.4,0.3,0.6c0.2,0.3,0.3,0.6,0.5,0.9c0.1,0.1,0.2,0.3,0.2,0.4c0.3,0.6,0.7,1.1,1,1.7
		c0.1,0.2,0.2,0.4,0.4,0.6c0.2,0.3,0.4,0.6,0.5,0.9c0.1,0.2,0.2,0.4,0.4,0.6c0.3,0.5,0.6,1,1,1.5c0.1,0.2,0.3,0.4,0.4,0.6
		c0.2,0.3,0.4,0.5,0.6,0.8c0.1,0.2,0.3,0.4,0.4,0.6c0.2,0.3,0.4,0.5,0.6,0.8c0.1,0.2,0.3,0.4,0.4,0.6c0.3,0.4,0.7,0.9,1,1.3
		c0.2,0.2,0.3,0.4,0.5,0.6s0.4,0.5,0.6,0.7s0.3,0.4,0.5,0.6c0.3,0.3,0.5,0.6,0.8,0.9c0.2,0.3,0.5,0.6,0.7,0.9
		c0.2,0.2,0.4,0.5,0.6,0.7s0.4,0.4,0.5,0.6c0.2,0.2,0.4,0.4,0.6,0.7c0.2,0.2,0.4,0.4,0.6,0.7c0.3,0.3,0.6,0.7,0.9,1
		c0.2,0.2,0.4,0.4,0.6,0.7c0.2,0.2,0.4,0.4,0.6,0.6s0.4,0.4,0.6,0.6s0.4,0.4,0.6,0.6c0.4,0.3,0.7,0.7,1.1,1c0.2,0.2,0.4,0.4,0.6,0.5
		c0.2,0.2,0.5,0.4,0.7,0.6s0.4,0.4,0.6,0.5c0.3,0.2,0.5,0.4,0.8,0.7c0.3,0.2,0.5,0.4,0.8,0.6c0.3,0.3,0.6,0.5,1,0.8
		c0.2,0.2,0.4,0.3,0.6,0.5c0.3,0.2,0.5,0.4,0.8,0.6c0.2,0.1,0.4,0.3,0.6,0.4c0.4,0.3,0.8,0.6,1.3,0.9c0.2,0.1,0.3,0.2,0.5,0.4
		c0.3,0.2,0.6,0.4,0.9,0.6c0.2,0.1,0.4,0.3,0.6,0.4c0.3,0.2,0.6,0.4,1,0.6c0.2,0.1,0.3,0.2,0.5,0.3c0.5,0.3,0.9,0.6,1.4,0.9
		c0.2,0.1,0.4,0.2,0.6,0.3c0.3,0.2,0.6,0.4,1,0.6c0.2,0.1,0.4,0.2,0.6,0.3c0.5,0.3,0.9,0.5,1.4,0.8c0.1,0.1,0.3,0.2,0.4,0.2
		c0.4,0.2,0.8,0.4,1.2,0.6c0.2,0.1,0.4,0.2,0.6,0.3c0.4,0.2,0.7,0.4,1.1,0.6c0.2,0.1,0.3,0.2,0.5,0.2c0.5,0.2,1,0.5,1.5,0.7
		c0.2,0.1,0.3,0.1,0.5,0.2c0.4,0.2,0.8,0.3,1.2,0.5c0.2,0.1,0.4,0.2,0.6,0.2c0.5,0.2,0.9,0.4,1.4,0.6c0.1,0,0.2,0.1,0.2,0.1
		c0.5,0.2,1.1,0.4,1.6,0.6c0.2,0.1,0.4,0.1,0.5,0.2c0.4,0.2,0.8,0.3,1.2,0.5c0.2,0.1,0.3,0.1,0.5,0.2c0.5,0.2,1.1,0.4,1.7,0.6
		c0.1,0,0.3,0.1,0.4,0.1c0.4,0.1,0.9,0.3,1.4,0.4c0.2,0.1,0.4,0.1,0.5,0.2c0.5,0.1,1,0.3,1.4,0.4c0.1,0,0.2,0.1,0.3,0.1
		c0.6,0.2,1.1,0.3,1.7,0.5c0.2,0,0.3,0.1,0.5,0.1c0.4,0.1,0.9,0.2,1.3,0.3c0.2,0,0.3,0.1,0.5,0.1c0.6,0.1,1.2,0.3,1.8,0.4
		c0.1,0,0.2,0,0.2,0c0.5,0.1,1,0.2,1.6,0.3c0.2,0,0.4,0.1,0.5,0.1c0.5,0.1,1,0.2,1.5,0.2c0.1,0,0.3,0,0.4,0.1
		c0.6,0.1,1.2,0.2,1.8,0.3c0.1,0,0.3,0,0.4,0.1c0.5,0.1,1,0.1,1.4,0.2c0.2,0,0.3,0,0.5,0.1c0.6,0.1,1.2,0.1,1.8,0.2l0,0
		c0.4,0,0.7,0.1,1.1,0.1c0.3,0,0.6,0,0.9,0.1c0.3,0,0.7,0,1,0c0.4,0,0.8,0,1.2,0c0.3,0,0.5,0,0.8,0c0.7,0,1.3,0,2,0
		c0.8,0,1.5,0,2.3,0c0.2,0,0.4,0,0.6,0c0.6,0,1.2,0,1.7-0.1c0.2,0,0.4,0,0.6,0c0.6,0,1.2-0.1,1.7-0.1c0.2,0,0.3,0,0.5,0
		c0.6-0.1,1.2-0.1,1.8-0.2c0.1,0,0.3,0,0.4,0c0.6-0.1,1.3-0.2,1.9-0.2c0.1,0,0.2,0,0.3,0c0.7-0.1,1.4-0.2,2-0.3c0.1,0,0.1,0,0.2,0
		c0.7-0.1,1.4-0.2,2.1-0.4c0,0,0,0,0.1,0c0.7-0.1,1.5-0.3,2.2-0.5l0,0c38.6-8.5,67.5-42.8,67.5-84V998v-58.2H1180.8z"/>
</g>
<g>
	<path class="st0" d="M1476.4,1111.2c-47.1,0-85.4-38.3-85.4-85.4s38.3-85.4,85.4-85.4s85.4,38.3,85.4,85.4
		C1561.9,1072.8,1523.6,1111.2,1476.4,1111.2z M1476.4,982.2c-24,0-43.5,19.5-43.5,43.5c0,24,19.5,43.5,43.5,43.5
		s43.5-19.5,43.5-43.5C1519.9,1001.7,1500.4,982.2,1476.4,982.2z"/>
	<path class="st0" d="M1476.4,940.8c46.8,0,84.9,38.1,84.9,84.9c0,46.8-38.1,84.9-84.9,84.9s-84.9-38.1-84.9-84.9
		C1391.5,978.9,1429.6,940.8,1476.4,940.8 M1476.4,1069.7c24.2,0,44-19.7,44-44s-19.7-44-44-44s-44,19.7-44,44
		C1432.4,1050,1452.2,1069.7,1476.4,1069.7 M1476.4,939.8c-47.5,0-85.9,38.5-85.9,85.9c0,47.5,38.5,85.9,85.9,85.9
		c47.5,0,85.9-38.5,85.9-85.9C1562.4,978.3,1523.9,939.8,1476.4,939.8L1476.4,939.8z M1476.4,1068.7c-23.7,0-43-19.2-43-43
		c0-23.7,19.2-43,43-43s43,19.2,43,43C1519.4,1049.5,1500.2,1068.7,1476.4,1068.7L1476.4,1068.7z"/>
</g>
<g>
	<path class="st0" d="M1901.5,1109v-13.2l-0.8,0.4c-12.9,7.5-27.7,11.4-42.7,11.4c-47.1,0-85.4-38.3-85.4-85.4s38.3-85.4,85.4-85.4
		c15,0,29.8,4,42.7,11.4l0.8,0.4V938c14.2,0,28.3,1.8,42,5.3V1109H1901.5z M1858.1,978.8c-24,0-43.5,19.5-43.5,43.5
		c0,24,19.5,43.5,43.5,43.5s43.5-19.5,43.5-43.5C1901.5,998.3,1882,978.8,1858.1,978.8z"/>
	<path class="st0" d="M1858.1,937.3c14.9,0,29.6,3.9,42.5,11.4l1.5,0.9v-1.7v-9.2c13.9,0.1,27.6,1.8,41,5.2v164.7h-41v-11.8v-1.7
		l-1.5,0.9c-12.9,7.4-27.5,11.4-42.5,11.4c-46.8,0-84.9-38.1-84.9-84.9C1773.1,975.4,1811.2,937.3,1858.1,937.3 M1858.1,1066.3
		c24.2,0,44-19.7,44-44c0-24.2-19.7-44-44-44s-44,19.7-44,44C1814.1,1046.5,1833.8,1066.3,1858.1,1066.3 M1858.1,936.3
		c-47.5,0-85.9,38.5-85.9,85.9c0,47.4,38.5,85.9,85.9,85.9c15.7,0,30.3-4.2,43-11.5v12.8h43V943c-13.7-3.5-28.1-5.4-43-5.4v10.2
		C1888.4,940.5,1873.7,936.3,1858.1,936.3L1858.1,936.3z M1858.1,1065.3c-23.7,0-43-19.2-43-43c0-23.7,19.2-43,43-43
		c23.7,0,43,19.2,43,43C1901,1046,1881.8,1065.3,1858.1,1065.3L1858.1,1065.3z"/>
</g>
<g>
	<path class="st1" d="M313.1,586.6c-18.1-91.8-99.1-161-196.2-161v400h-100V452.3c-49,28.3-84.8,76.9-96.2,134.2h-108.8v340h664
		v-340L313.1,586.6L313.1,586.6z"/>
	<g>
		<path class="st0" d="M17.4,825.1V452.6c30-17.3,64.2-26.5,99-26.5v399H17.4z"/>
		<path class="st0" d="M115.9,426.6v398h-98V452.9C47.6,435.8,81.5,426.7,115.9,426.6 M116.9,425.6c-36.4,0-70.6,9.7-100,26.8v373.2
			h100V425.6L116.9,425.6z"/>
	</g>
</g>
<path class="st0" d="M116.4,325.1v-100c-36.4,0.1-70.6,9.8-100,26.8v73.2v26.8c29.6-17,63.9-26.8,100.5-26.8H116.4z"/>
<path class="st0" d="M793.4,50.8V74v50v702.5h100V124.1v-50v-50C857,24.2,822.9,33.9,793.4,50.8z"/>
<path class="st0" d="M1244.4,425.1c-110.5,0-200,89.5-200,200s89.5,200,200,200s200-89.5,200-200S1354.9,425.1,1244.4,425.1z
	 M1244.4,725.1c-55.2,0-100-44.8-100-100s44.8-100,100-100s100,44.8,100,100S1299.7,725.1,1244.4,725.1z"/>
<path class="st0" d="M1744.4,426.1c-110.5,0-200,89.5-200,200s89.5,200,200,200s200-89.5,200-200S1854.9,426.1,1744.4,426.1z
	 M1744.4,726.1c-55.2,0-100-44.8-100-100s44.8-100,100-100s100,44.8,100,100S1799.7,726.1,1744.4,726.1z"/>
<path class="st0" d="M442.4,424.6c-110.5,0-200,89.5-200,200c0,110.5,89.5,200,200,200c36.4,0,70.6-9.7,100-26.8v226.8
	c0,58.5-47.5,106-106,106c-26,0-49.8-9.4-68.2-24.9c-21.4,12.1-41.8,26.4-60.8,43l-11.8,11.8c36.5,39.4,88.7,64.1,146.7,64.1
	c110.5,0,200-89.5,200-200v-400V478.2C583.6,444.1,515.3,424.6,442.4,424.6z M442.4,724.6c-55.2,0-100-44.8-100-100
	c0-55.2,44.8-100,100-100s100,44.8,100,100C542.4,679.8,497.6,724.6,442.4,724.6z"/>
</svg>
