<?xml version="1.0" encoding="utf-8"?>
<!-- Generator: Adobe Illustrator 22.1.0, SVG Export Plug-In . SVG Version: 6.00 Build 0)  -->
<svg version="1.1" id="Layer_1" xmlns="http://www.w3.org/2000/svg" xmlns:xlink="http://www.w3.org/1999/xlink" x="0px" y="0px"
	 viewBox="0 0 1440 651" style="enable-background:new 0 0 1440 651;" xml:space="preserve">
<style type="text/css">
	.st0{fill:#FFFFFF;}
</style>
<g transform="translate(0.000000,1440.000000) scale(0.100000,-0.100000)">
	<path class="st0" d="M8845,14295c-88-29-215-71-282-92l-122-39l-12,22c-22,42-98,45-178,8c-31-15-58-30-61-34s-15-10-27-14
		c-13-4-23-11-23-16s-13-11-30-15c-16-4-30-10-30-15s-10-12-22-15c-11-4-53-29-92-55c-71-47-99-63-212-118l-61-31l-12,25
		c-21,46-87,53-128,14c-11-9-29-21-41-24c-12-4-22-12-22-17s-6-9-13-9c-15,0-56-31-103-77c-18-18-35-33-37-33s-37-33-78-72
		c-78-77-115-108-126-108c-8,0-46-35-150-137c-34-35-67-63-73-63c-5,0-10-3-10-7c0-5-17-19-37-33s-41-29-47-35c-6-5-29-23-51-40
		c-43-32-105-91-105-100c0-3-16-21-35-40c-32-32-65-46-65-27c0,9-59,32-82,32c-27,0-71-52-108-125c-19-38-43-79-52-89
		c-10-11-18-23-18-27s-6-14-12-21c-7-7-22-31-33-52c-11-22-25-44-30-50c-6-6-22-38-35-71s-27-62-30-65c-4-3-18-34-31-69
		s-31-65-39-68c-63-20-68-26-113-116c-25-51-59-137-77-192c-32-101-162-377-190-405c-32-31-90-107-90-119c0-6-4-11-9-11
		c-4,0-19-22-32-50c-13-27-27-50-31-50c-5,0-8-7-8-15s-4-15-9-15s-13-10-17-22c-4-13-15-30-25-39c-11-9-19-21-19-28c0-6-4-11-9-11
		s-12-8-16-19c-3-10-18-32-33-47c-15-16-45-54-67-84c-21-30-47-62-57-71s-18-19-18-22c0-8-239-247-246-247c-3,0-19-13-34-30
		c-15-16-32-30-37-30c-10,0-55-34-89-67c-13-13-26-23-29-23c-9,0-77-51-96-72c-9-10-20-18-25-18s-23-13-41-28c-61-53-73-62-83-62
		c-6,0-10-3-10-8c0-4-21-19-47-32c-27-14-50-28-53-31s-23-14-45-25c-80-41-130-68-135-75c-3-3-15-9-27-13c-13-4-23-12-23-17
		s-6-9-14-9s-21-6-28-12c-24-23-181-97-282-133c-54-20-123-47-155-61c-174-81-210-95-214-86c-3,4-12,32-22,62c-27,83-65,112-210,160
		c-150,50-314,71-389,50c-25-7-46-17-46-21c0-5-7-9-15-9c-18,0-65-47-65-65c0-8-4-15-8-15c-17,0-32-80-32-173c0-112,21-236,49-280
		c11-18,27-51,36-74l17-42l-71-70c-39-39-71-73-71-76s-15-21-32-39c-72-73-158-195-158-225c0-6-4-11-8-11c-10,0-48-121-62-195
		c-71-368-72-404-10-622c45-161,68-201,166-298c69-68,69-68,159-102c160-62,272-71,910-78c314-3,651-10,750-15
		c659-32,3157-40,3715-12c642,33,1118,85,1360,148c30,8,86,21,124,30c86,18,252,84,331,132c70,42,135,99,135,119c0,7,4,13,8,13
		c12,0,82,151,88,192l6,34c0,0,1977,209,1995,215c26,8,44,6,90-9c32-11,96-30,143-42c47-13,141-39,210-60c158-48,306-79,423-91
		c51-4,125-13,166-18c116-15,204-1,266,43c63,44,98,76,135,126c14,18,55,63,93,99c37,36,82,90,99,119c18,28,36,52,40,52s8,7,8,15
		s5,15,10,15c6,0,10,5,10,10c0,6,8,20,19,31c10,11,27,37,37,59s22,40,27,40c4,0,7,5,7,12c0,6,7,19,14,27c19,21,69,139,108,256
		c27,78,31,106,33,209c2,107,4,120,21,127c33,12,84,68,84,93c0,12-9,33-20,46c-17,19-26,22-67,17c-26-3-49-10-51-16
		c-6-17-32-13-32,4c0,8-4,15-9,15c-22,0-17,29,10,60c16,18,32,44,35,57c8,30-12,70-38,79c-25,7-76-14-106-43l-23-23l-30,20
		c-34,25-34,26-14,73c23,56-7,117-58,117c-8,0-31-16-50-35c-32-32-39-35-69-27c-28,7-33,12-30,34c5,40-35,98-66,98
		c-33,0-72-44-72-81c0-23-7-31-42-47c-64-29-95-60-213-220c-5-6-55,21-55,30c0,4-7,8-15,8s-15,4-15,8s-14,16-31,26
		c-38,22-72,52-152,133c-87,86-137,142-137,151c0,4-11,19-25,34s-25,31-25,37c0,5-3,11-8,13c-11,5-72,90-72,101c0,5-8,17-18,26
		c-57,52-194,405-208,536c-4,39-8,77-10,85c-2,18-12,143-19,255c-3,44-7,94-9,110c-3,17-8,59-11,95c-7,66-57,239-80,276
		c-7,11-16,45-20,75s-27,109-51,176c-24,68-44,127-44,133c0,5-3,10-8,10c-8,0-7-1-71,127c-46,90-89,156-137,207c-6,6-18,23-27,37
		l-17,25l50,23c105,47,178,157,195,292c7,53-19,179-36,179c-5,0-9,4-9,10c0,21-122,150-141,150c-7,0-27,11-45,25s-37,25-43,25
		s-11,4-11,9c0,16-109,43-153,38c-117-14-207-31-257-48c-30-10-74-21-97-25c-53-8-135,11-153,37c-8,10-20,19-27,19s-13,4-13,9
		s-15,14-33,20c-19,6-51,20-72,31c-22,11-48,20-58,20c-22,0-167,48-183,61c-6,5-28,13-50,17l-39,9l26,12c14,7,33,27,43,46
		c17,30,17,35,1,64c-18,36-37,45-139,66c-40,8-119,31-177,50c-142,48-268,81-364,95c-44,6-103,16-132,22c-50,11-51,11-41,39
		c12,35-12,91-47,107c-64,29-221,43-485,43c-146-1-298-2-337-4c-72-3-88,4-63,29c15,15-17,73-47,85
		C9057,14358,9005,14349,8845,14295z M8907,14110c6-16,22-34,36-39c15-6,143-7,328-3c167,4,354,6,415,4l112-4l-15-29
		c-17-34-12-53,21-92c23-27,33-29,133-39c59-5,152-19,205-29s109-19,125-19c35-1,148-30,271-71c76-25,92-34,87-48
		c-22-54-18-77,21-118c30-31,57-46,119-67c44-14,90-26,102-26s25-4,28-10c3-5,15-10,25-10s20-4,22-10c2-5,47-21,101-35
		c90-24,197-74,205-96c2-5,8-9,14-9c5,0,23-13,38-30c15-16,31-30,35-30s24-18,45-40s41-40,44-40c5,0,84-78,188-187
		c20-21,77-77,126-125c50-48,98-101,107-117c8-17,20-31,25-31c6,0,10-7,10-15s5-15,10-15c6,0,10-5,10-11c0-13,63-99,106-144
		c12-12,25-31,28-43c4-12,12-22,17-22s9-6,9-13c0-15,78-169,89-177c12-8,80-220,91-284c5-32,18-77,29-100c52-115,66-193,91-536
		c16-223,29-299,76-440c40-120,88-236,104-250c4-3,12-21,20-40c7-19,19-42,27-51c7-8,13-21,13-27c0-7,3-12,8-12c4,0,19-21,32-47
		c14-27,33-55,43-64c9-9,17-19,17-23s5-12,10-19c6-7,38-48,72-92s67-85,73-91c106-114,133-139,200-189c22-16,42-33,45-36
		s20-14,38-24c17-11,32-23,32-27s7-8,16-8c11,0,4-12-22-35c-32-29-39-42-39-74c0-51,26-76,78-76c23,0,42,6,45,13c2,6,8,12,14,12
		c5,0,15,6,22,13c7,6,28,23,46,37s59,61,92,105c32,44,65,88,73,98c8,9,15,20,15,23c0,10,64,64,78,65c62,6,105-5,136-36
		c14-14,30-25,36-25c5,0,10-4,10-10c0-5,6-10,13-10s19-9,27-20s19-20,25-21c5-1,30-24,55-52c31-35,38-46,22-38c-22,12-46,10-85-5
		c-11-4-13,1-10,19c3,13-2,39-11,56c-20,37-46,40-93,11c-18-11-33-15-33-9s-7,26-16,45c-14,30-21,34-53,34c-41-1-63-23-80-86
		c-15-54-14-68,8-92c21-25,79-30,99-10c7,7,12,8,12,2c0-26,38-54,73-54c31,0,36-4,42-29c3-15,17-34,29-41c14-7,27-25,30-42
		c3-16,13-37,22-46c24-23,86-22,110,3c19,19,19,18,22-15c6-59-66-249-135-357c-18-29-33-57-33-63c0-5-4-10-10-10c-5,0-10-7-10-15
		s-4-15-8-15s-25-29-47-65s-43-65-47-65c-5,0-8-5-8-10c0-6-26-37-57-69c-32-32-87-91-122-131c-68-76-109-101-170-102
		c-59-1-329,32-411,50c-41,9-79,17-85,18c-44,5-110,22-228,60c-77,24-145,44-153,44c-46,0-236,80-265,112c-9,10-19,18-23,18
		c-9,0-90,83-135,140c-19,23-41,49-48,56c-22,21-141,203-148,225c-4,10-11,19-16,19s-9,5-9,10c0,10-5,17-35,53c-6,7-21,30-34,52
		s-31,46-39,53c-40,32-102-3-102-58c0-32,19-80,32-80c4,0,8-6,8-14s6-21,13-28c19-19,83-129,92-155c3-13,10-23,15-23
		c4,0,11-11,14-25c4-14,11-25,16-25c6,0,10-5,10-10c0-6,11-23,25-38s25-31,25-35c0-5,14-22,30-37c17-15,30-31,30-34
		c0-10,33-48,88-104c30-29,52-55,50-58c-3-2-1773-213-1777-209c-2,2,8,7,23,11c14,3,26,10,26,14c0,5,9,11,19,15c10,3,24,19,31,36
		c26,63-24,103-100,80c-50-15-50-15-50,13c0,19,7,26,30,31c30,7,70,47,70,71c0,33-39,54-100,54c-33,0-60,3-60,7c0,9,50,53,59,53
		s41,55,41,69s-48,61-62,61c-19,0-78-23-78-31c0-4-7-9-14-12c-10-4-13-1-9,9c3,7,8,14,12,14c11,0,30,67,24,88c-7,28-41,44-75,37
		c-33-8-98-60-98-80c0-11-7-11-37,0c-107,37-129,40-333,39c-209,0-221-2-430-54c-45-11-250-114-260-131c-8-11-194-99-211-99
		c-8,0-29-9-46-20c-25-15-33-27-33-49c0-16,7-34,15-41c25-21,147,4,232,48c327,167,356,179,520,208c69,12,131,15,255,12
		c156-5,166-6,237-36c71-31,151-99,151-129c0-7,4-13,9-13c18,0,49-98,56-177c12-155-37-343-108-413c-55-54-242-137-384-170
		c-71-17-146-35-168-41c-85-21-376-61-615-84c-445-42-623-48-1800-52c-1100-4-1812,4-2410,28c-140,6-536,12-880,14
		c-575,4-634,5-732,24c-142,27-201,53-265,117c-29,29-53,56-53,60s-7,15-15,25c-9,9-32,79-51,155c-32,126-35,148-30,235
		c3,52,17,151,31,220c14,68,28,135,30,149c8,42,47,140,56,140c5,0,9,6,9,13c0,14,5,21,88,117c48,56,235,245,265,268c9,6,19,12,23,12
		s14,8,23,18c31,35,279,172,311,172c6,0,10,4,10,8s17,14,38,21c20,8,39,17,42,21s39,20,80,35c41,16,80,32,85,36c6,4,37,17,70,30
		c33,12,65,26,71,30c6,5,66,29,132,54c67,24,129,48,139,54c10,5,45,22,78,37s97,49,141,75c45,27,87,49,93,49s11,4,11,9s10,13,23,17
		c12,4,24,9,27,13c3,3,33,20,67,36c35,17,63,33,63,36c0,4,11,10,25,13c14,4,25,11,25,16c0,6,7,10,15,10s15,4,15,9s8,12,18,15
		c9,3,29,16,44,28c57,49,68,57,95,75c15,9,35,25,44,35s21,18,28,18c6,0,11,3,11,8c0,4,21,21,45,37c25,17,45,33,45,38c0,4,6,7,14,7
		s16,3,18,8c2,4,21,20,43,37c76,56,119,97,196,182c20,22,42,44,50,49c18,11,129,139,129,148c0,4,10,18,23,31c48,51,74,82,94,116
		c12,19,33,48,48,64c14,17,28,38,31,48c3,9,10,17,15,17s9,7,9,15s4,15,10,15c5,0,12,11,16,25c3,14,10,25,14,25s11,11,14,25
		c4,14,11,25,16,25c6,0,10,6,10,13c0,13,24,47,78,105c18,20,60,93,95,162c34,69,64,127,67,130c11,10,41,89,80,211l41,127l41,6
		c28,5,42,12,45,26c3,11,9,20,13,20s20,33,35,73c16,39,45,109,67,154c21,46,38,89,38,97s4,16,8,18s26,32,47,68s41,67,44,70
		c10,8,30,43,45,78c16,35,23,38,60,20c43-19,99,5,164,71c31,32,62,64,68,72c21,26,92,87,123,105c17,10,31,22,31,26s4,8,10,8
		c16,0,74,51,248,217c24,23,52,45,63,48c10,4,19,11,19,16s5,9,11,9s43,33,83,73c94,93,153,147,163,147c5,0,14-9,20-20
		c23-35,74-36,146,0c36,18,74,40,84,49s34,23,53,30c63,25,120,54,120,63c0,4,5,8,12,8c12,0,104,56,126,77c7,7,20,13,28,13
		s14,5,14,10c0,6,6,10,14,10s21,6,28,13c26,26,49,28,68,5c30-38,95-30,225,26c107,46,142,59,215,76c19,4,71,19,115,33
		C8897,14145,8894,14145,8907,14110z M11925,13356c16-14,45-33,64-43c40-20,70-49,108-105c53-78,11-204-86-255c-24-13-50-23-56-23
		c-10,0-96,78-217,198c-40,38-178,185-178,189c0,11,83,36,155,48C11848,13386,11893,13384,11925,13356z M3105,10214
		c73-6,239-57,264-80c8-7,22-34,32-58l17-45l-127-63c-69-35-128-66-131-69s-15-9-27-13c-13-4-23-11-23-16c0-4-11-11-25-14
		c-14-4-25-11-25-16c0-6-6-10-13-10s-19-9-27-20c-20-28-26-26-54,23c-39,67-62,292-35,351c14,29,46,46,79,41
		C3024,10223,3067,10218,3105,10214z"/>
	<path class="st0" d="M4870,10420c-54-11-190-60-208-74c-53-45-95-91-123-137c-18-30-39-60-46-67s-13-18-13-23c0-9-7-20-36-52
		c-6-7-15-23-18-35c-4-12-11-22-15-22s-18-25-31-56c-27-67-20-103,23-118c36-13,76,8,96,49c8,17,20,36,28,43c7,7,13,18,13,23
		s5,15,10,22c39,46,50,61,50,69c0,5,11,20,25,34s25,29,25,35c0,12,13,28,63,79c71,72,193,95,327,61c46-11,87-27,92-34
		c13-21,9-142-6-179c-8-19-28-48-43-65c-85-93-139-187-129-227c9-35,57-52,99-35c37,15,42,20,82,74c17,22,47,58,67,80
		c21,22,38,45,38,52c0,6,4,13,8,15s18,27,31,56c26,63,36,185,19,251c-16,64-79,125-148,144C5000,10425,4938,10433,4870,10420z"/>
	<path class="st0" d="M13550,9795c-63-20-140-57-140-67c0-4-6-8-12-8c-7,0-34-22-59-48c-63-65-89-142-70-210c6-25,17-52,23-60
		c24-28,90-53,134-51c34,2,49-2,71-22c23-19,38-24,84-24c59,1,69,7,129,82c42,52,80,162,82,236c1,60-33,134-69,148
		c-15,5-30,14-33,20C13679,9807,13596,9809,13550,9795z"/>
	<path class="st0" d="M2843,9178c-76-32-102-64-88-107c15-49,63-50,177-4c90,37,119,82,78,123C2981,9219,2928,9215,2843,9178z"/>
	<path class="st0" d="M3815,9168c-22-27-24-37-14-65c13-38,38-49,131-58c59-6,81-4,105,9c54,28,54,75,0,103
		C3995,9178,3830,9187,3815,9168z"/>
	<path class="st0" d="M3155,9075c-38-7-89-20-111-30c-36-14-43-22-54-61c-12-41-11-47,15-99c16-30,32-55,37-55c4,0,8-6,8-13
		c0-10,27-45,98-122c10-11,23-45,30-76c13-58,35-79,82-79c58,0,80,40,73,132l-4,67l83,55c107,71,112,75,132,115c34,66-4,134-93,166
		C3398,9093,3256,9093,3155,9075z"/>
	<path class="st0" d="M662,11417c-18-18-32-40-32-48c0-51,140-172,295-254c103-55,175-102,175-114c0-5-20-11-44-14
		c-25-4-134-31-243-62c-184-52-210-56-358-65c-260-16-285-24-285-85c0-42,24-55,97-55c38,0,63-10,137-54c101-60,342-181,598-301
		c140-65,170-76,183-65c8,7,15,25,15,40c0,24-11,35-77,78c-87,55-220,124-458,239c-101,49-153,79-140,81c11,2,153,34,315,72
		c241,56,493,110,516,110c2,0,4,18,4,39c0,46-20,65-109,107s-381,225-420,265c-20,19-52,54-72,77c-19,23-42,42-50,42
		S680,11435,662,11417z"/>
	<path class="st0" d="M1432,10617c-12-13-22-29-22-36c0-29,119-128,223-186c60-33,115-67,124-77c15-17,14-18-14-18
		c-17,0-93-18-169-39c-168-48-176-49-340-61c-72-5-138-12-147-16c-23-8-23-69-1-78c9-3,32-6,51-6c25,0,61-14,113-45
		c95-55,546-275,565-275c13,0,33,46,24,54c-30,27-171,106-316,177c-101,49-183,92-183,96c0,5,53,20,118,35c248,57,428,96,465,103
		c32,5,37,9,37,34c0,33-17,50-90,86c-70,35-244,140-292,177c-20,16-46,44-58,63C1494,10647,1463,10651,1432,10617z"/>
	<path class="st0" d="M1959,9979c-9-18-5-27,38-67c26-26,76-62,110-80c66-35,83-50,61-56c-178-49-228-60-322-67
		c-109-8-129-16-123-49c1-9,18-17,42-21c22-3,69-22,104-43c96-55,353-176,363-170c4,3,8,13,8,24c0,22-51,54-218,135l-124,60l189,43
		c103,24,198,45,211,48c15,3,22,12,22,28c0,18-13,30-62,56c-102,54-192,115-220,149C2007,10005,1976,10009,1959,9979z"/>
</g>
</svg>
