<?xml version="1.0" encoding="utf-8"?>
<!-- Generator: Adobe Illustrator 22.0.1, SVG Export Plug-In . SVG Version: 6.00 Build 0)  -->
<svg version="1.1" id="Layer_1" xmlns="http://www.w3.org/2000/svg" xmlns:xlink="http://www.w3.org/1999/xlink" x="0px" y="0px"
	 viewBox="0 0 1966.2 1243.4" style="enable-background:new 0 0 1966.2 1243.4;" xml:space="preserve">
<style type="text/css">
	.st0{fill:#FFFFFF;stroke:#FFFFFF;stroke-miterlimit:10;}
</style>
<g>
	<path class="st0" d="M16.9,825.6h100v-400c-36.4,0-70.6,9.7-100,26.8V825.6z"/>
	<path class="st0" d="M116.4,225.1c-36.4,0.1-70.6,9.8-100,26.8v73.2v26.8c29.6-17,63.9-26.8,100.5-26.8h-0.5V225.1z"/>
	<path class="st0" d="M267.4,626.1c0,110.5,89.5,200,200,200c25.6,0,50.7-2.4,75-7v200c0,55.2-44.8,100-100,100
		c-18.4,0-35.6-5-50.4-13.6c-31,9.1-60.7,25.5-86.2,49.1l-5.4,5.4c36.2,36.5,86.5,59.2,142,59.2c110.5,0,200-89.5,200-200V785.8
		v-76.8v-76v-14V466.3c-52.9-25.8-112.2-40.2-175-40.2C357,426.1,267.4,515.6,267.4,626.1z M561.4,626.1c0,53.2-41.6,96.7-94,99.8
		v0.2c-55.2,0-100-44.8-100-100c0-55.2,44.8-100,100-100v0.2C519.9,529.3,561.4,572.8,561.4,626.1z"/>
	<path class="st0" d="M793.4,74.1v50v702.5h100V124.1v-50v-50c-36.4,0.1-70.6,9.8-100,26.8V74.1z"/>
	<path class="st0" d="M1244.4,425.1c-110.5,0-200,89.5-200,200s89.5,200,200,200s200-89.5,200-200S1354.9,425.1,1244.4,425.1z
		 M1244.4,725.1c-55.2,0-100-44.8-100-100c0-55.2,44.8-100,100-100s100,44.8,100,100C1344.4,680.3,1299.7,725.1,1244.4,725.1z"/>
	<path class="st0" d="M1744.4,426.1c-110.5,0-200,89.5-200,200s89.5,200,200,200s200-89.5,200-200S1854.9,426.1,1744.4,426.1z
		 M1744.4,726.1c-55.2,0-100-44.8-100-100c0-55.2,44.8-100,100-100s100,44.8,100,100C1844.4,681.3,1799.7,726.1,1744.4,726.1z"/>
</g>
</svg>
