<?xml version="1.0" encoding="utf-8"?>
<!-- Generator: Adobe Illustrator 22.1.0, SVG Export Plug-In . SVG Version: 6.00 Build 0)  -->
<svg version="1.1" id="Layer_1" xmlns="http://www.w3.org/2000/svg" xmlns:xlink="http://www.w3.org/1999/xlink" x="0px" y="0px"
	 viewBox="0 0 1970.2 1240" style="enable-background:new 0 0 1970.2 1240;" xml:space="preserve">
<style type="text/css">
	.st0{display:none;fill:#FFFFFF;stroke:#FFFFFF;stroke-miterlimit:10;}
	.st1{fill:#FFFFFF;}
	.st2{fill:#FFFFFF;stroke:#FFFFFF;stroke-miterlimit:10;}
</style>
<g>
	<path class="st0" d="M313.1,586.6c-18.1-91.8-99.1-161-196.2-161v400h-100V452.3c-49,28.3-84.8,76.9-96.2,134.2h-108.8v340h664
		v-340H313.1z"/>
	<g>
		<path class="st1" d="M17.4,825.1V452.6c30-17.3,64.2-26.5,99-26.5v399H17.4z"/>
		<path class="st1" d="M115.9,426.6v398h-98V452.9C47.6,435.8,81.5,426.7,115.9,426.6 M116.9,425.6c-36.4,0-70.6,9.7-100,26.8v373.2
			h100V425.6L116.9,425.6z"/>
	</g>
</g>
<path class="st2" d="M116.4,325.1v-100c-36.4,0.1-70.6,9.8-100,26.8v73.2v26.8c29.6-17,63.9-26.8,100.5-26.8H116.4z"/>
<path class="st2" d="M467.4,426.1c-110.5,0-200,89.5-200,200s89.5,200,200,200c25.6,0,50.7-2.4,75-7v200c0,55.2-44.8,100-100,100
	c-18.4,0-35.6-5-50.4-13.6c-31,9.1-60.7,25.5-86.2,49.1l-5.4,5.4c36.2,36.5,86.5,59.2,142,59.2c110.5,0,200-89.5,200-200V785.8
	v-76.8v-76v-14V466.3C589.6,440.5,530.2,426.1,467.4,426.1z M467.4,725.9v0.2c-55.2,0-100-44.8-100-100c0-55.2,44.8-100,100-100v0.2
	c52.4,3.1,94,46.6,94,99.8C561.4,679.3,519.9,722.8,467.4,725.9z"/>
<path class="st2" d="M793.4,50.8v23.2v50v702.5h100V124.1v-50v-50C857,24.2,822.9,33.9,793.4,50.8z"/>
<path class="st2" d="M1244.4,425.1c-110.5,0-200,89.5-200,200s89.5,200,200,200s200-89.5,200-200S1354.9,425.1,1244.4,425.1z
	 M1244.4,725.1c-55.2,0-100-44.8-100-100c0-55.2,44.8-100,100-100s100,44.8,100,100C1344.4,680.3,1299.7,725.1,1244.4,725.1z"/>
<path class="st2" d="M1744.4,426.1c-110.5,0-200,89.5-200,200s89.5,200,200,200s200-89.5,200-200S1854.9,426.1,1744.4,426.1z
	 M1744.4,726.1c-55.2,0-100-44.8-100-100c0-55.2,44.8-100,100-100s100,44.8,100,100C1844.4,681.3,1799.7,726.1,1744.4,726.1z"/>
<g>
	<path class="st1" d="M922.5,1110.5v-13.2l-0.8,0.4c-12.9,7.5-27.7,11.4-42.8,11.4c-47.2,0-85.5-38.4-85.5-85.5
		c0-47.2,38.4-85.5,85.5-85.5c15,0,29.8,4,42.8,11.4l0.8,0.4v-10.6c14.2,0,28.4,1.8,42,5.3v165.7H922.5z M879,980.2
		c-24,0-43.5,19.5-43.5,43.5c0,24,19.5,43.5,43.5,43.5s43.5-19.5,43.5-43.5C922.5,999.7,903,980.2,879,980.2z"/>
	<path d="M879,938.7c14.9,0,29.6,3.9,42.5,11.4l1.5,0.9v-1.7V940c13.9,0.1,27.7,1.8,41,5.2V1110h-41v-11.8v-1.7l-1.5,0.9
		c-12.9,7.4-27.6,11.4-42.5,11.4c-46.9,0-85-38.1-85-85S832.1,938.7,879,938.7 M879,1067.7c24.3,0,44-19.7,44-44s-19.7-44-44-44
		c-24.3,0-44,19.7-44,44S854.8,1067.7,879,1067.7 M879,937.7c-47.5,0-86,38.5-86,86c0,47.5,38.5,86,86,86c15.7,0,30.4-4.2,43-11.5
		v12.8h43V944.4c-13.7-3.5-28.2-5.4-43-5.4v10.2C909.4,941.9,894.7,937.7,879,937.7L879,937.7z M879,1066.7c-23.8,0-43-19.3-43-43
		c0-23.8,19.3-43,43-43c23.8,0,43,19.3,43,43C922,1047.5,902.8,1066.7,879,1066.7L879,1066.7z"/>
</g>
<g>
	<path class="st1" d="M1094.1,1110.5c-0.7,0-1.3,0-2,0l-0.8,0c-0.4,0-0.8,0-1.1,0c-0.3,0-0.7,0-1,0c-0.3,0-1.6-0.1-2-0.1
		c-0.6,0-1.2-0.1-1.8-0.2l-0.5-0.1c-0.5-0.1-1-0.1-1.5-0.2l-0.4-0.1c-0.6-0.1-1.2-0.2-1.8-0.3l-0.4-0.1c-0.5-0.1-1-0.2-1.4-0.2
		l-0.5-0.1c-0.6-0.1-1.1-0.2-1.6-0.3l-0.2,0c-0.6-0.1-1.2-0.2-1.8-0.4l-0.4-0.1c-0.5-0.1-1-0.2-1.4-0.3l-0.5-0.1
		c-0.6-0.1-1.1-0.3-1.7-0.5l-0.3-0.1c-0.5-0.1-1-0.3-1.4-0.4l-0.5-0.2c-0.5-0.1-0.9-0.3-1.4-0.4l-0.4-0.1c-0.5-0.2-1.1-0.4-1.6-0.6
		l-0.5-0.2c-0.4-0.1-1.7-0.6-1.7-0.6c-0.5-0.2-1.1-0.4-1.6-0.6l-0.2-0.1c-0.5-0.2-0.9-0.4-1.4-0.6l-0.5-0.2
		c-0.4-0.2-1.6-0.7-1.6-0.7c-0.5-0.2-1-0.5-1.5-0.7l-0.5-0.2c-0.4-0.2-0.7-0.4-1.1-0.6l-0.6-0.3c-0.4-0.2-0.8-0.4-1.2-0.6l-0.4-0.2
		c-0.5-0.3-0.9-0.5-1.4-0.8l-0.6-0.3c-0.3-0.2-1.5-0.9-1.5-0.9c-0.5-0.3-0.9-0.6-1.4-0.9c0,0-1.1-0.7-1.4-1l-0.6-0.4
		c-0.3-0.2-0.6-0.4-0.9-0.6l-0.5-0.4c-0.4-0.3-0.8-0.6-1.3-0.9l-0.6-0.4c-0.3-0.2-0.5-0.4-0.8-0.6l-0.6-0.5c-0.3-0.3-0.6-0.5-1-0.8
		l-0.8-0.6c-0.3-0.2-0.5-0.4-0.8-0.7l-0.6-0.5c-0.2-0.2-0.8-0.7-0.8-0.7l-0.4-0.4c-0.4-0.3-0.7-0.7-1.1-1l-1.2-1.2l-0.6-0.6
		c-0.2-0.2-0.4-0.4-0.6-0.6c-0.3-0.3-0.6-0.6-0.9-1c-0.2-0.2-0.4-0.4-0.6-0.7c-0.2-0.2-0.4-0.4-0.6-0.7l-0.7-0.8l-0.5-0.5
		c-0.2-0.3-0.5-0.6-0.7-0.9c-0.3-0.3-0.5-0.6-0.8-0.9l-0.5-0.6c-0.2-0.2-0.4-0.5-0.6-0.7l-0.5-0.6c-0.3-0.4-0.7-0.9-1-1.3l-0.4-0.6
		l-0.6-0.8l-0.4-0.6c-0.2-0.3-0.4-0.5-0.6-0.8l-0.4-0.6c-0.3-0.5-0.7-1-1-1.4l-0.4-0.6c-0.2-0.3-0.8-1.2-0.8-1.2l-0.1-0.2
		c-0.3-0.5-0.7-1.1-1-1.7l-0.2-0.4l-0.6-1c0,0-0.6-1.1-0.7-1.4l-0.3-0.6c-0.3-0.5-0.6-1.1-0.8-1.6l-0.3-0.6
		c-0.1-0.3-0.3-0.6-0.4-0.9l-0.3-0.6c-5.3-11.3-8-23.5-8-36.1v-80.2c13.7-3.5,27.8-5.3,42-5.3v85.5c0,21.5,15.4,39.5,36.5,43
		c0.6,0.1,1.1,0.2,1.7,0.2c0.6,0.1,1.1,0.1,1.7,0.2c0.6,0,1.1,0.1,1.6,0.1l0.2,0c0.6,0,1.2,0,1.7,0c0.4,0,0.8,0,1.2,0
		c0,0,0.9,0,1.2,0c0,0,0.9-0.1,1.2-0.1l1.2-0.1l0.4,0c0.3,0,0.5-0.1,0.8-0.1l0.4-0.1c0.3,0,1.1-0.2,1.1-0.2c0.3,0,1.1-0.2,1.1-0.2
		c0.4-0.1,0.7-0.1,1.1-0.2c0.8-0.2,1.6-0.4,2.3-0.6l0.1,0c0.3-0.1,0.7-0.2,1-0.3l0.2-0.1c0.3-0.1,0.6-0.2,0.9-0.3l0.2-0.1
		c0.3-0.1,0.6-0.2,0.9-0.3l0.2-0.1c0.3-0.1,1.1-0.4,1.1-0.4c0.3-0.1,0.6-0.3,0.9-0.4l0.1-0.1c0.3-0.2,0.7-0.3,1-0.5
		c15.1-7.2,24.8-22.6,24.8-39.3v-80.2c13.7-3.5,27.8-5.3,42-5.3v85.5c0,19.6-6.8,38.8-19.2,54c-12.2,15-29.2,25.5-48,29.6
		c-0.7,0.2-1.5,0.3-2.2,0.5c-0.8,0.1-1.5,0.3-2.2,0.4l-0.1,0c-0.7,0.1-1.4,0.2-2,0.3l-0.3,0c-0.6,0.1-1.3,0.2-1.9,0.2l-0.4,0
		c-0.6,0.1-1.2,0.1-1.8,0.2l-0.5,0c-0.6,0-1.1,0.1-1.7,0.1l-0.6,0c-0.6,0-1.1,0.1-1.7,0.1l-0.6,0
		C1095.6,1110.5,1094.8,1110.5,1094.1,1110.5z"/>
	<path d="M1179.1,940v57.2v27.8c0,19.5-6.8,38.5-19.1,53.6c-12.1,14.9-29.1,25.3-47.7,29.4c-0.7,0.2-1.5,0.3-2.2,0.4l-0.1,0
		c-0.7,0.1-1.4,0.3-2.1,0.4l-0.1,0l-0.1,0c-0.7,0.1-1.3,0.2-2,0.3l-0.1,0l-0.2,0c-0.6,0.1-1.3,0.2-1.9,0.2l-0.2,0l-0.2,0
		c-0.6,0.1-1.2,0.1-1.8,0.2l-0.2,0l-0.3,0c-0.6,0-1.1,0.1-1.7,0.1l-0.3,0l-0.3,0c-0.6,0-1.1,0.1-1.7,0.1l-0.3,0c-0.1,0-0.2,0-0.3,0
		c-0.8,0-1.5,0-2.3,0c-0.7,0-1.3,0-2,0c-0.2,0-0.4,0-0.6,0l-0.2,0c-0.4,0-0.8,0-1.1,0c-0.3,0-0.6,0-1,0c-0.3,0-0.6,0-0.9-0.1l-0.2,0
		c-0.3,0-0.6,0-0.9-0.1c-0.6,0-1.2-0.1-1.8-0.2l-0.5,0l-0.1,0c-0.5-0.1-0.9-0.1-1.4-0.2l-0.2,0l-0.3,0c-0.6-0.1-1.2-0.2-1.8-0.2
		l-0.2,0l-0.2,0c-0.5-0.1-1-0.2-1.4-0.2l-0.5-0.1c-0.5-0.1-1-0.2-1.6-0.3l-0.1,0l-0.1,0c-0.6-0.1-1.2-0.2-1.7-0.4l-0.3-0.1l-0.1,0
		c-0.4-0.1-0.9-0.2-1.3-0.3l-0.2,0l-0.3-0.1c-0.6-0.1-1.1-0.3-1.7-0.4l-0.2,0l-0.1,0c-0.5-0.1-0.9-0.3-1.4-0.4l-0.5-0.2
		c-0.4-0.1-0.9-0.3-1.3-0.4l-0.2-0.1l-0.2-0.1c-0.5-0.2-1.1-0.4-1.6-0.6l-0.3-0.1l-0.2-0.1c-0.4-0.1-0.8-0.3-1.2-0.4l-0.1,0
		l-0.4-0.2c-0.5-0.2-1.1-0.4-1.6-0.6l-0.1,0l-0.1,0c-0.5-0.2-0.9-0.4-1.4-0.6l-0.5-0.2c-0.4-0.2-0.8-0.3-1.1-0.5l-0.2-0.1l-0.3-0.1
		c-0.5-0.2-1-0.5-1.5-0.7l-0.3-0.2l-0.2-0.1c-0.4-0.2-0.7-0.4-1.1-0.5l-0.6-0.3c-0.4-0.2-0.8-0.4-1.2-0.6l-0.1-0.1l-0.3-0.1
		c-0.5-0.3-0.9-0.5-1.3-0.8l-0.5-0.3l-0.1,0c-0.3-0.2-0.6-0.4-1-0.6l-0.1-0.1l-0.4-0.3c-0.5-0.3-0.9-0.6-1.4-0.9l-0.3-0.2l-0.2-0.1
		c-0.3-0.2-0.6-0.4-0.9-0.6c-0.2-0.1-0.4-0.3-0.6-0.4c-0.3-0.2-0.6-0.4-0.9-0.6l-0.2-0.1l-0.3-0.2c-0.4-0.3-0.8-0.6-1.3-0.9
		c-0.2-0.1-0.3-0.2-0.5-0.4l-0.1-0.1c-0.3-0.2-0.5-0.4-0.8-0.6c-0.2-0.1-0.4-0.3-0.6-0.5c-0.3-0.3-0.6-0.5-1-0.8
		c-0.3-0.2-0.5-0.4-0.8-0.6c-0.3-0.2-0.5-0.4-0.8-0.7c-0.2-0.2-0.4-0.4-0.6-0.5c-0.2-0.2-0.5-0.4-0.7-0.6l-0.2-0.1
		c-0.1-0.1-0.3-0.3-0.4-0.4c-0.4-0.3-0.7-0.7-1.1-1c-0.2-0.1-0.3-0.3-0.5-0.4l-0.1-0.1c-0.2-0.2-0.4-0.4-0.6-0.6
		c-0.2-0.2-0.4-0.4-0.6-0.6c-0.2-0.2-0.4-0.4-0.6-0.6c-0.3-0.3-0.6-0.6-1-1c-0.2-0.2-0.4-0.4-0.6-0.6c-0.2-0.2-0.4-0.4-0.6-0.7
		c-0.2-0.2-0.4-0.4-0.5-0.6l-0.1-0.1c-0.2-0.2-0.4-0.4-0.5-0.6c-0.2-0.3-0.5-0.6-0.7-0.8c-0.3-0.3-0.5-0.6-0.8-0.9
		c-0.2-0.2-0.3-0.4-0.5-0.6c-0.2-0.2-0.4-0.5-0.6-0.7c-0.1-0.2-0.3-0.4-0.4-0.5l0,0c-0.3-0.4-0.7-0.8-1-1.3l-0.1-0.2
		c-0.1-0.1-0.2-0.3-0.3-0.4c-0.2-0.3-0.4-0.5-0.6-0.8c-0.1-0.2-0.3-0.4-0.4-0.6c-0.2-0.3-0.4-0.5-0.6-0.8l-0.3-0.4l-0.1-0.2
		c-0.3-0.5-0.6-1-1-1.4l-0.1-0.1l-0.3-0.5c-0.2-0.3-0.4-0.6-0.5-0.8c-0.1-0.2-0.2-0.4-0.3-0.6c-0.3-0.5-0.7-1.1-1-1.6l-0.1-0.2
		l-0.1-0.2c-0.2-0.3-0.3-0.6-0.5-0.9c-0.1-0.2-0.2-0.4-0.3-0.6c-0.2-0.3-0.3-0.6-0.5-0.9l-0.2-0.4l-0.1-0.2
		c-0.3-0.5-0.6-1.1-0.8-1.6l-0.1-0.1l-0.2-0.4c-0.1-0.3-0.3-0.6-0.4-0.9c-0.1-0.2-0.2-0.4-0.3-0.6c-5.3-11.3-7.9-23.3-7.9-35.9
		v-79.8c13.3-3.4,27.1-5.1,41-5.2v57.2v27.8c0,21.7,15.5,40,37,43.4c0.6,0.1,1.1,0.2,1.7,0.2c0.6,0.1,1.1,0.1,1.7,0.2
		c0.5,0,1.1,0.1,1.6,0.1l0.3,0l0.1,0c0.5,0,1.1,0,1.6,0c0.4,0,0.8,0,1.2,0l0.2,0l0.1,0c0.3,0,0.5,0,0.8,0l0.3,0l0.1,0
		c0.2,0,0.5,0,0.7-0.1l0.4,0l0.1,0c0.2,0,0.5,0,0.7-0.1l0.5-0.1c0.2,0,0.5-0.1,0.7-0.1l0.4-0.1c0.3,0,0.5-0.1,0.8-0.1l0.1,0l0.3-0.1
		c0.3,0,0.6-0.1,0.8-0.2l0.1,0l0.2,0c0.4-0.1,0.7-0.2,1.1-0.2l0,0l0,0c0.8-0.2,1.6-0.4,2.3-0.6l0.1,0c0.3-0.1,0.7-0.2,1-0.3l0.1,0
		l0.1,0c0.3-0.1,0.6-0.2,0.9-0.3l0.2-0.1l0.1,0c0.3-0.1,0.6-0.2,0.9-0.3l0.2-0.1c0.3-0.1,0.6-0.2,0.9-0.3l0.1,0l0.1-0.1
		c0.3-0.1,0.6-0.3,0.9-0.4l0.1,0l0.1,0c0.3-0.2,0.7-0.3,1-0.5c15.2-7.3,25.1-22.9,25.1-39.7v-63v-16.8
		C1151.4,941.8,1165.2,940.1,1179.1,940 M1180.1,939c-14.9,0-29.3,1.9-43,5.4V962v63c0,17.1-10,31.9-24.5,38.8
		c-0.3,0.2-0.7,0.3-1,0.5c0,0-0.1,0-0.1,0.1c-0.3,0.1-0.6,0.3-0.9,0.4c-0.1,0-0.1,0.1-0.2,0.1c-0.3,0.1-0.6,0.2-0.8,0.3
		c-0.1,0-0.2,0.1-0.2,0.1c-0.3,0.1-0.6,0.2-0.8,0.3c-0.1,0-0.2,0.1-0.2,0.1c-0.3,0.1-0.6,0.2-0.9,0.3c-0.1,0-0.1,0-0.2,0.1
		c-0.3,0.1-0.6,0.2-1,0.3c0,0-0.1,0-0.1,0c-0.7,0.2-1.5,0.4-2.3,0.6c0,0,0,0-0.1,0c-0.4,0.1-0.7,0.2-1.1,0.2c-0.1,0-0.2,0-0.3,0.1
		c-0.3,0.1-0.6,0.1-0.8,0.2c-0.1,0-0.3,0-0.4,0.1c-0.2,0-0.5,0.1-0.7,0.1c-0.1,0-0.3,0-0.4,0.1c-0.2,0-0.5,0.1-0.7,0.1
		c-0.1,0-0.3,0-0.4,0.1c-0.2,0-0.5,0-0.7,0.1c-0.2,0-0.3,0-0.5,0c-0.2,0-0.5,0-0.7,0.1c-0.1,0-0.3,0-0.4,0c-0.3,0-0.5,0-0.8,0
		c-0.1,0-0.3,0-0.4,0c-0.4,0-0.8,0-1.2,0c-0.5,0-1.1,0-1.6,0c-0.1,0-0.2,0-0.3,0c-0.5,0-1.1-0.1-1.6-0.1c0,0,0,0,0,0
		c-0.6,0-1.1-0.1-1.7-0.2c0,0,0,0,0,0c-0.6-0.1-1.1-0.1-1.7-0.2c-20.5-3.3-36.1-21-36.1-42.5v-27.8V939c-14.9,0-29.3,1.9-43,5.4
		v80.6c0,13,2.9,25.3,8,36.3c0.1,0.2,0.2,0.4,0.3,0.6c0.1,0.3,0.3,0.6,0.4,0.9c0.1,0.2,0.2,0.4,0.3,0.6c0.3,0.5,0.6,1.1,0.8,1.6
		c0.1,0.2,0.2,0.4,0.3,0.6c0.2,0.3,0.3,0.6,0.5,0.9c0.1,0.2,0.2,0.4,0.3,0.6c0.2,0.3,0.3,0.6,0.5,0.9c0.1,0.1,0.2,0.3,0.2,0.4
		c0.3,0.6,0.7,1.1,1,1.7c0.1,0.2,0.2,0.4,0.4,0.6c0.2,0.3,0.4,0.6,0.5,0.9c0.1,0.2,0.2,0.4,0.4,0.6c0.3,0.5,0.6,1,1,1.5
		c0.1,0.2,0.3,0.4,0.4,0.6c0.2,0.3,0.4,0.5,0.6,0.8c0.1,0.2,0.3,0.4,0.4,0.6c0.2,0.3,0.4,0.5,0.6,0.8c0.1,0.2,0.3,0.4,0.4,0.6
		c0.3,0.4,0.7,0.9,1,1.3c0.2,0.2,0.3,0.4,0.5,0.6c0.2,0.2,0.4,0.5,0.6,0.7c0.2,0.2,0.3,0.4,0.5,0.6c0.3,0.3,0.5,0.6,0.8,1
		c0.2,0.3,0.5,0.6,0.7,0.9c0.2,0.2,0.4,0.5,0.6,0.7c0.2,0.2,0.4,0.4,0.5,0.6c0.2,0.2,0.4,0.4,0.6,0.7c0.2,0.2,0.4,0.4,0.6,0.7
		c0.3,0.3,0.6,0.7,0.9,1c0.2,0.2,0.4,0.4,0.6,0.7c0.2,0.2,0.4,0.4,0.6,0.6c0.2,0.2,0.4,0.4,0.6,0.6c0.2,0.2,0.4,0.4,0.6,0.6
		c0.4,0.3,0.7,0.7,1.1,1c0.2,0.2,0.4,0.4,0.6,0.5c0.2,0.2,0.5,0.4,0.7,0.6c0.2,0.2,0.4,0.4,0.6,0.5c0.3,0.2,0.5,0.4,0.8,0.7
		c0.3,0.2,0.5,0.4,0.8,0.6c0.3,0.3,0.6,0.5,1,0.8c0.2,0.2,0.4,0.3,0.6,0.5c0.3,0.2,0.5,0.4,0.8,0.6c0.2,0.1,0.4,0.3,0.6,0.4
		c0.4,0.3,0.8,0.6,1.3,0.9c0.2,0.1,0.3,0.2,0.5,0.4c0.3,0.2,0.6,0.4,0.9,0.6c0.2,0.1,0.4,0.3,0.6,0.4c0.3,0.2,0.6,0.4,1,0.6
		c0.2,0.1,0.3,0.2,0.5,0.3c0.5,0.3,0.9,0.6,1.4,0.9c0.2,0.1,0.4,0.2,0.6,0.3c0.3,0.2,0.6,0.4,1,0.6c0.2,0.1,0.4,0.2,0.6,0.3
		c0.5,0.3,0.9,0.5,1.4,0.8c0.1,0.1,0.3,0.2,0.4,0.2c0.4,0.2,0.8,0.4,1.2,0.6c0.2,0.1,0.4,0.2,0.6,0.3c0.4,0.2,0.7,0.4,1.1,0.6
		c0.2,0.1,0.3,0.2,0.5,0.2c0.5,0.2,1,0.5,1.5,0.7c0.2,0.1,0.3,0.1,0.5,0.2c0.4,0.2,0.8,0.3,1.2,0.5c0.2,0.1,0.4,0.2,0.6,0.2
		c0.5,0.2,0.9,0.4,1.4,0.6c0.1,0,0.2,0.1,0.2,0.1c0.5,0.2,1.1,0.4,1.6,0.6c0.2,0.1,0.4,0.1,0.5,0.2c0.4,0.2,0.8,0.3,1.2,0.5
		c0.2,0.1,0.3,0.1,0.5,0.2c0.5,0.2,1.1,0.4,1.7,0.6c0.1,0,0.3,0.1,0.4,0.1c0.5,0.1,0.9,0.3,1.4,0.4c0.2,0.1,0.4,0.1,0.5,0.2
		c0.5,0.1,1,0.3,1.4,0.4c0.1,0,0.2,0.1,0.3,0.1c0.6,0.2,1.1,0.3,1.7,0.5c0.2,0,0.3,0.1,0.5,0.1c0.4,0.1,0.9,0.2,1.3,0.3
		c0.2,0,0.3,0.1,0.5,0.1c0.6,0.1,1.2,0.3,1.8,0.4c0.1,0,0.2,0,0.2,0c0.5,0.1,1,0.2,1.6,0.3c0.2,0,0.4,0.1,0.5,0.1
		c0.5,0.1,1,0.2,1.5,0.2c0.1,0,0.3,0,0.4,0.1c0.6,0.1,1.2,0.2,1.8,0.3c0.1,0,0.3,0,0.4,0.1c0.5,0.1,1,0.1,1.4,0.2
		c0.2,0,0.3,0,0.5,0.1c0.6,0.1,1.2,0.1,1.9,0.2c0,0,0,0,0,0c0.4,0,0.7,0.1,1.1,0.1c0.3,0,0.6,0,0.9,0.1c0.3,0,0.7,0,1,0
		c0.4,0,0.8,0,1.2,0c0.3,0,0.5,0,0.8,0c0.7,0,1.3,0,2,0c0.8,0,1.5,0,2.3,0c0.2,0,0.4,0,0.6,0c0.6,0,1.2,0,1.7-0.1c0.2,0,0.4,0,0.6,0
		c0.6,0,1.2-0.1,1.7-0.1c0.2,0,0.3,0,0.5,0c0.6-0.1,1.2-0.1,1.8-0.2c0.1,0,0.3,0,0.4,0c0.6-0.1,1.3-0.2,1.9-0.2c0.1,0,0.2,0,0.3,0
		c0.7-0.1,1.4-0.2,2-0.3c0.1,0,0.1,0,0.2,0c0.7-0.1,1.4-0.2,2.1-0.4c0,0,0,0,0.1,0c0.7-0.1,1.5-0.3,2.2-0.5c0,0,0,0,0,0
		c38.6-8.5,67.5-42.9,67.5-84v-27.8V939L1180.1,939z"/>
</g>
<g>
	<path class="st1" d="M1223.6,1110.5V944.8c13.7-3.5,27.8-5.3,42-5.3v11l0.8-0.4c12.9-7.5,27.7-11.4,42.8-11.4c0.7,0,1.3,0,2,0
		c0,0,1.6,0.1,2,0.1l0.8,0c0.4,0,0.8,0,1.1,0.1c0.3,0,0.6,0,0.9,0.1c0.3,0,0.7,0.1,1,0.1c0.3,0,0.6,0.1,1,0.1c0.3,0,1.6,0.2,2,0.2
		l0.9,0.1c17.7,2.4,34,10.3,47,22.6c-0.8,0.8-1.6,1.6-2.4,2.3l-1,0.9c-9.4,8.8-19.7,16.6-30.7,23.1c-7.3-5.1-15.9-7.7-24.8-7.7
		c-10.4,0-20.4,3.7-28.3,10.5l-0.5,0.4c-0.3,0.3-0.7,0.6-1,0.9l-0.4,0.4c-0.2,0.2-0.4,0.4-0.7,0.7l-0.4,0.4
		c-0.3,0.3-0.5,0.6-0.8,0.9l-0.3,0.4c-0.3,0.3-0.5,0.6-0.8,0.9l-0.4,0.4c-0.2,0.3-0.5,0.6-0.7,0.9l-0.3,0.4c-0.3,0.3-0.5,0.7-0.8,1
		l-0.3,0.4c-0.2,0.3-0.4,0.6-0.6,0.9l-0.2,0.3c-0.3,0.4-0.5,0.8-0.8,1.2l-0.2,0.3c-0.2,0.4-0.4,0.7-0.6,1.1l-0.2,0.3
		c-0.2,0.4-0.5,0.9-0.7,1.3l-0.2,0.3c-0.2,0.4-0.4,0.7-0.5,1.1l-0.2,0.3c-0.2,0.5-0.4,0.9-0.6,1.4l-0.1,0.2
		c-0.2,0.5-0.4,0.9-0.5,1.3l-0.1,0.3c-0.2,0.5-0.3,1-0.5,1.5c-1.3,4.2-2,8.6-2,13.1v86.4H1223.6z"/>
	<path d="M1309.1,939.1c0.7,0,1.3,0,2,0c0.1,0,0.3,0,0.4,0l0.3,0c0.4,0,0.9,0,1.3,0c0.2,0,0.5,0,0.7,0l0.1,0c0.4,0,0.8,0,1.1,0.1
		c0.3,0,0.6,0,0.9,0.1c0.3,0,0.7,0.1,1,0.1c0.3,0,0.6,0.1,1,0.1c0.3,0,0.6,0.1,1,0.1l0.2,0c0.3,0,0.5,0.1,0.8,0.1
		c0.2,0,0.4,0.1,0.6,0.1l0.2,0c17.5,2.4,33.5,10,46.4,22.1c-0.6,0.6-1.3,1.3-2,2l-1,0.9c-9.2,8.7-19.4,16.4-30.3,22.9
		c-7.3-5-15.9-7.7-24.8-7.7c-10.5,0-20.7,3.8-28.7,10.6l0,0c-0.1,0.1-0.3,0.3-0.4,0.4c-0.3,0.3-0.7,0.6-1,0.9
		c-0.1,0.1-0.2,0.2-0.3,0.3l-0.1,0.1c-0.2,0.2-0.5,0.4-0.7,0.7c-0.1,0.1-0.3,0.3-0.4,0.4c-0.3,0.3-0.6,0.6-0.8,0.9
		c-0.1,0.1-0.3,0.3-0.4,0.4c-0.2,0.3-0.5,0.5-0.7,0.8c-0.1,0.1-0.2,0.3-0.4,0.4c-0.2,0.3-0.5,0.6-0.7,0.9l-0.1,0.1l-0.2,0.3
		c-0.3,0.3-0.5,0.7-0.8,1c-0.1,0.1-0.2,0.3-0.3,0.4c-0.2,0.3-0.4,0.6-0.6,0.9l-0.1,0.1l-0.1,0.2c-0.3,0.4-0.5,0.8-0.8,1.2l-0.2,0.3
		l-0.1,0.1c-0.2,0.3-0.4,0.7-0.6,1l-0.1,0.1l-0.1,0.2c-0.2,0.4-0.5,0.9-0.7,1.3l-0.1,0.2l-0.1,0.1c-0.2,0.4-0.4,0.7-0.5,1.1
		l-0.1,0.1l-0.1,0.2c-0.2,0.5-0.4,0.9-0.6,1.4l-0.1,0.2l0,0.1c-0.2,0.4-0.3,0.8-0.5,1.3l0,0.1l-0.1,0.2c-0.2,0.5-0.3,1-0.5,1.5
		c-1.3,4.3-2,8.7-2,13.2v35.6v50.3h-41l0-164.8c13.3-3.4,27.1-5.1,41-5.2v9.6v1.7l1.5-0.9C1279.5,943.1,1294.2,939.1,1309.1,939.1
		 M1309.1,938.1c-15.7,0-30.4,4.2-43,11.5V939c-14.9,0-29.3,1.9-43,5.4l0,166.6h43v-51.3v-35.6c0-4.5,0.7-8.8,2-12.9
		c0.2-0.5,0.3-1,0.5-1.5c0-0.1,0.1-0.2,0.1-0.3c0.2-0.4,0.3-0.8,0.5-1.2c0-0.1,0.1-0.2,0.1-0.2c0.2-0.5,0.4-0.9,0.6-1.4
		c0-0.1,0.1-0.2,0.1-0.3c0.2-0.4,0.3-0.7,0.5-1.1c0.1-0.1,0.1-0.2,0.2-0.3c0.2-0.4,0.4-0.9,0.7-1.3c0.1-0.1,0.1-0.2,0.2-0.3
		c0.2-0.3,0.4-0.7,0.6-1c0.1-0.1,0.2-0.3,0.2-0.4c0.2-0.4,0.5-0.8,0.8-1.2c0.1-0.1,0.1-0.2,0.2-0.3c0.2-0.3,0.4-0.6,0.6-0.9
		c0.1-0.1,0.2-0.3,0.3-0.4c0.2-0.3,0.5-0.7,0.8-1c0.1-0.1,0.2-0.2,0.3-0.4c0.2-0.3,0.5-0.6,0.7-0.9c0.1-0.1,0.2-0.3,0.4-0.4
		c0.2-0.3,0.5-0.5,0.7-0.8c0.1-0.1,0.3-0.3,0.4-0.4c0.3-0.3,0.5-0.6,0.8-0.9c0.1-0.1,0.3-0.3,0.4-0.4c0.2-0.2,0.4-0.4,0.7-0.6
		c0.1-0.1,0.3-0.3,0.4-0.4c0.3-0.3,0.6-0.6,1-0.9c0.2-0.1,0.3-0.3,0.5-0.4c7.5-6.5,17.3-10.4,28-10.4c9.2,0,17.7,2.9,24.7,7.8
		c11-6.4,21.4-14.2,31-23.3l1-0.9c0.9-0.9,1.8-1.7,2.6-2.6c0,0,0.1-0.1,0.1-0.1c-12.8-12.2-29.3-20.6-47.7-23.1
		c-0.3,0-0.6-0.1-0.9-0.1c-0.3,0-0.7-0.1-1-0.1c-0.3,0-0.6-0.1-1-0.1c-0.3,0-0.6-0.1-1-0.1c-0.3,0-0.7-0.1-1-0.1
		c-0.3,0-0.6,0-0.9-0.1c-0.4,0-0.8,0-1.1-0.1c-0.3,0-0.6,0-0.8,0c-0.4,0-0.9,0-1.3,0c-0.2,0-0.5,0-0.7,0
		C1310.5,938.1,1309.8,938.1,1309.1,938.1L1309.1,938.1z"/>
</g>
<g>
	<path class="st1" d="M1476,1110.5c-47.2,0-85.5-38.4-85.5-85.5c0-47.2,38.4-85.5,85.5-85.5s85.5,38.4,85.5,85.5
		C1561.5,1072.2,1523.2,1110.5,1476,1110.5z M1476,981.5c-24,0-43.5,19.5-43.5,43.5c0,24,19.5,43.5,43.5,43.5s43.5-19.5,43.5-43.5
		C1519.5,1001,1500,981.5,1476,981.5z"/>
	<path d="M1476,940c46.9,0,85,38.1,85,85s-38.1,85-85,85c-46.9,0-85-38.1-85-85S1429.1,940,1476,940 M1476,1069
		c24.3,0,44-19.7,44-44s-19.7-44-44-44s-44,19.7-44,44S1451.7,1069,1476,1069 M1476,939c-47.5,0-86,38.5-86,86c0,47.5,38.5,86,86,86
		c47.5,0,86-38.5,86-86C1562,977.5,1523.5,939,1476,939L1476,939z M1476,1068c-23.8,0-43-19.3-43-43c0-23.8,19.3-43,43-43
		c23.8,0,43,19.3,43,43C1519,1048.8,1499.8,1068,1476,1068L1476,1068z"/>
</g>
<g>
	<path class="st1" d="M1605.5,1109.7V943.9c13.7-3.5,27.8-5.3,42-5.3v11l0.8-0.4c12.9-7.5,27.7-11.4,42.8-11.4c0.7,0,1.3,0,2,0
		l0.7,0c0.4,0,0.9,0,1.3,0l0.8,0c0.4,0,0.8,0,1.1,0.1c0.3,0,0.6,0,0.9,0.1c0.3,0,0.7,0.1,1,0.1c0.3,0,0.6,0.1,1,0.1
		c0.3,0,1.6,0.2,2,0.2l0.9,0.1c17.7,2.4,34,10.3,47,22.6c-0.8,0.8-1.6,1.6-2.4,2.3l-1,0.9c-9.4,8.8-19.7,16.6-30.7,23.1
		c-7.3-5.1-15.9-7.7-24.8-7.7c-10.4,0-20.4,3.7-28.3,10.5l-0.5,0.4c-0.3,0.3-0.7,0.6-1,0.9l-0.4,0.4c-0.2,0.2-0.4,0.4-0.7,0.7
		l-0.4,0.4c-0.3,0.3-0.5,0.6-0.8,0.9l-0.4,0.4c-0.2,0.3-0.5,0.5-0.7,0.8l-0.4,0.4c-0.2,0.3-0.5,0.6-0.7,0.9l-0.3,0.4
		c-0.3,0.3-0.5,0.7-0.8,1l-0.3,0.4c-0.2,0.3-0.4,0.6-0.6,0.9l-0.2,0.3c-0.3,0.4-0.5,0.8-0.8,1.2l-0.2,0.4c-0.2,0.3-0.4,0.7-0.6,1
		l-0.2,0.3c-0.2,0.4-0.5,0.9-0.7,1.3l-0.2,0.3c-0.2,0.4-0.4,0.7-0.5,1.1l-0.1,0.3c-0.2,0.5-0.4,0.9-0.6,1.4l-0.1,0.2
		c-0.2,0.4-0.3,0.8-0.5,1.2l-0.1,0.3c-0.2,0.5-0.3,1-0.5,1.5c-1.3,4.2-2,8.6-2,13.1v86.4H1605.5z"/>
	<path d="M1691,938.3L1691,938.3c0.7,0,1.3,0,2,0c0.1,0,0.3,0,0.4,0l0.3,0c0.4,0,0.9,0,1.3,0c0.2,0,0.5,0,0.7,0l0.1,0
		c0.4,0,0.8,0,1.1,0.1c0.3,0,0.6,0,0.9,0.1c0.3,0,0.7,0.1,1,0.1c0.3,0,0.6,0.1,1,0.1c0.3,0,0.6,0.1,1,0.1l0.2,0
		c0.3,0,0.5,0.1,0.8,0.1c0.2,0,0.4,0.1,0.6,0.1l0.2,0c17.5,2.4,33.5,10,46.4,22.1c-0.6,0.6-1.3,1.3-2,2l-1,0.9
		c-9.2,8.7-19.4,16.4-30.3,22.9c-7.3-5-15.9-7.7-24.8-7.7c-10.5,0-20.7,3.8-28.7,10.6c-0.1,0.1-0.3,0.3-0.4,0.4
		c-0.3,0.3-0.7,0.6-1,0.9c-0.1,0.1-0.2,0.2-0.3,0.3l-0.1,0.1c-0.2,0.2-0.5,0.4-0.7,0.7c-0.1,0.1-0.3,0.3-0.4,0.4
		c-0.3,0.3-0.6,0.6-0.8,0.9c-0.1,0.1-0.3,0.3-0.4,0.4c-0.2,0.3-0.5,0.5-0.7,0.8c-0.1,0.1-0.2,0.3-0.4,0.4c-0.2,0.3-0.5,0.6-0.7,0.9
		l-0.1,0.1l-0.2,0.3c-0.3,0.3-0.5,0.7-0.8,1c-0.1,0.1-0.2,0.3-0.3,0.4c-0.2,0.3-0.4,0.6-0.6,0.9l-0.1,0.1l-0.1,0.2
		c-0.3,0.4-0.5,0.8-0.8,1.2l-0.2,0.3l0,0.1c-0.2,0.3-0.4,0.7-0.6,1l-0.1,0.1l-0.1,0.2c-0.2,0.4-0.5,0.9-0.7,1.3l-0.1,0.2l-0.1,0.1
		c-0.2,0.4-0.4,0.7-0.5,1.1l0,0.1l-0.1,0.2c-0.2,0.5-0.4,0.9-0.6,1.4l-0.1,0.2l0,0.1c-0.2,0.4-0.3,0.8-0.5,1.3l0,0.1l-0.1,0.2
		c-0.2,0.5-0.3,1-0.5,1.5c-1.3,4.3-2,8.7-2,13.2v35.6v50.3h-41l0-164.8c13.3-3.4,27.1-5.1,41-5.2v9.6v1.7l1.5-0.9
		C1661.4,942.2,1676.1,938.3,1691,938.3 M1691,937.3c-15.7,0-30.4,4.2-43,11.5v-10.7c-14.9,0-29.3,1.9-43,5.4l0,166.6h43v-51.3
		v-35.6c0-4.5,0.7-8.8,2-12.9c0.2-0.5,0.3-1,0.5-1.5c0-0.1,0.1-0.2,0.1-0.3c0.2-0.4,0.3-0.8,0.5-1.2c0-0.1,0.1-0.2,0.1-0.2
		c0.2-0.5,0.4-0.9,0.6-1.4c0-0.1,0.1-0.2,0.1-0.3c0.2-0.4,0.3-0.7,0.5-1.1c0.1-0.1,0.1-0.2,0.2-0.3c0.2-0.4,0.4-0.9,0.7-1.3
		c0.1-0.1,0.1-0.2,0.2-0.3c0.2-0.3,0.4-0.7,0.6-1c0.1-0.1,0.2-0.3,0.2-0.4c0.2-0.4,0.5-0.8,0.8-1.2c0.1-0.1,0.1-0.2,0.2-0.3
		c0.2-0.3,0.4-0.6,0.6-0.9c0.1-0.1,0.2-0.3,0.3-0.4c0.2-0.3,0.5-0.7,0.8-1c0.1-0.1,0.2-0.2,0.3-0.4c0.2-0.3,0.5-0.6,0.7-0.9
		c0.1-0.1,0.2-0.3,0.4-0.4c0.2-0.3,0.5-0.5,0.7-0.8c0.1-0.1,0.3-0.3,0.4-0.4c0.3-0.3,0.5-0.6,0.8-0.9c0.1-0.1,0.3-0.3,0.4-0.4
		c0.2-0.2,0.4-0.4,0.7-0.6c0.1-0.1,0.3-0.3,0.4-0.4c0.3-0.3,0.6-0.6,1-0.9c0.2-0.1,0.3-0.3,0.5-0.4c7.5-6.5,17.3-10.4,28-10.4
		c9.2,0,17.7,2.9,24.7,7.8c11-6.4,21.4-14.2,31-23.3l1-0.9c0.9-0.9,1.8-1.7,2.6-2.6c0,0,0.1-0.1,0.1-0.1
		c-12.8-12.2-29.3-20.6-47.7-23.1c-0.3,0-0.6-0.1-0.9-0.1c-0.3,0-0.7-0.1-1-0.1c-0.3,0-0.6-0.1-1-0.1c-0.3,0-0.6-0.1-1-0.1
		c-0.3,0-0.7-0.1-1-0.1c-0.3,0-0.6,0-0.9-0.1c-0.4,0-0.8,0-1.1-0.1c-0.3,0-0.6,0-0.8,0c-0.4,0-0.9,0-1.3,0c-0.2,0-0.5,0-0.7,0
		C1692.4,937.3,1691.7,937.3,1691,937.3L1691,937.3z"/>
</g>
<g>
	<path class="st1" d="M1901.4,1108.4v-13.2l-0.8,0.4c-12.9,7.5-27.7,11.4-42.8,11.4c-47.2,0-85.5-38.4-85.5-85.5
		c0-47.2,38.4-85.5,85.5-85.5c15,0,29.8,4,42.8,11.4l0.8,0.4v-10.6c14.2,0,28.4,1.8,42,5.3v165.7H1901.4z M1857.9,978.1
		c-24,0-43.5,19.5-43.5,43.5c0,24,19.5,43.5,43.5,43.5s43.5-19.5,43.5-43.5C1901.4,997.6,1881.9,978.1,1857.9,978.1z"/>
	<path d="M1857.9,936.6c14.9,0,29.6,3.9,42.5,11.4l1.5,0.9v-1.7v-9.2c13.9,0.1,27.7,1.8,41,5.2v164.8h-41v-11.8v-1.7l-1.5,0.9
		c-12.9,7.4-27.6,11.4-42.5,11.4c-46.9,0-85-38.1-85-85S1811,936.6,1857.9,936.6 M1857.9,1065.6c24.3,0,44-19.7,44-44
		s-19.7-44-44-44s-44,19.7-44,44S1833.7,1065.6,1857.9,1065.6 M1857.9,935.6c-47.5,0-86,38.5-86,86c0,47.5,38.5,86,86,86
		c15.7,0,30.4-4.2,43-11.5v12.8h43V942.3c-13.7-3.5-28.2-5.4-43-5.4v10.2C1888.3,939.8,1873.6,935.6,1857.9,935.6L1857.9,935.6z
		 M1857.9,1064.6c-23.8,0-43-19.3-43-43c0-23.8,19.3-43,43-43c23.8,0,43,19.3,43,43C1900.9,1045.3,1881.7,1064.6,1857.9,1064.6
		L1857.9,1064.6z"/>
</g>
</svg>
