<?xml version="1.0" standalone="no"?>
<!DOCTYPE svg PUBLIC "-//W3C//DTD SVG 20010904//EN"
 "http://www.w3.org/TR/2001/REC-SVG-20010904/DTD/svg10.dtd">
<svg version="1.0" xmlns="http://www.w3.org/2000/svg"
 width="3038.000000pt" height="3038.000000pt" viewBox="0 0 3038.000000 3038.000000"
 preserveAspectRatio="xMidYMid meet">
<metadata>
Created by potrace 1.11, written by Peter Selinger 2001-2013
</metadata>
<g transform="translate(0.000000,3038.000000) scale(0.100000,-0.100000)"
fill="#000000" stroke="none">
<path d="M12446 23252 c-2 -4 -52 -7 -110 -7 -58 1 -106 -2 -106 -5 0 -4 -36
-6 -80 -5 -44 1 -80 -2 -80 -5 0 -4 -29 -6 -65 -5 -36 2 -65 0 -65 -4 0 -5
-27 -7 -60 -5 -33 1 -58 -1 -55 -5 2 -4 -17 -7 -43 -6 -26 1 -53 -3 -61 -9
-12 -9 -13 -8 -6 3 6 10 4 12 -6 6 -7 -5 -32 -10 -54 -12 -41 -3 -95 -8 -175
-18 -25 -3 -61 -7 -80 -8 -19 -2 -39 -5 -45 -8 -5 -4 -25 -5 -42 -4 -18 1 -33
-1 -33 -5 0 -4 -16 -6 -35 -5 -19 1 -35 -1 -35 -5 0 -4 -14 -6 -30 -5 -17 1
-32 -1 -35 -5 -2 -4 -16 -6 -30 -5 -14 2 -25 -1 -25 -6 0 -5 -12 -7 -27 -5
-15 3 -34 0 -42 -7 -12 -10 -13 -9 -6 3 7 12 6 13 -6 4 -8 -6 -24 -10 -36 -8
-13 2 -23 0 -23 -5 0 -6 -11 -8 -24 -5 -14 2 -28 0 -31 -6 -3 -6 -19 -8 -36
-5 -16 3 -29 1 -29 -4 0 -5 -12 -8 -26 -5 -15 3 -23 1 -19 -5 3 -6 -6 -9 -25
-6 -16 2 -30 0 -30 -5 0 -4 -12 -8 -27 -9 -62 -2 -81 -5 -77 -13 3 -5 -7 -6
-22 -4 -15 3 -34 0 -41 -6 -7 -6 -13 -7 -13 -3 0 4 -8 1 -17 -6 -15 -12 -16
-12 -8 1 8 13 7 13 -8 1 -9 -7 -17 -10 -17 -6 0 4 -8 1 -17 -6 -13 -11 -15
-11 -9 -1 6 10 -1 9 -24 -3 -23 -12 -30 -13 -25 -3 6 10 5 10 -5 1 -7 -6 -19
-9 -28 -6 -10 4 -13 2 -8 -6 6 -8 -1 -10 -24 -6 -23 4 -29 2 -24 -6 4 -8 3 -9
-5 -5 -6 4 -19 2 -28 -6 -14 -11 -16 -11 -8 2 7 12 6 13 -6 4 -8 -6 -22 -10
-32 -9 -10 2 -14 -1 -10 -8 4 -6 0 -8 -9 -4 -9 3 -21 0 -28 -6 -10 -9 -11 -9
-5 3 7 12 6 13 -6 3 -8 -6 -17 -12 -21 -12 -5 -1 -9 -1 -10 -2 -5 -1 -43 -10
-63 -14 -43 -9 -50 -11 -62 -18 -7 -5 -18 -5 -23 -2 -6 4 -17 1 -25 -5 -8 -7
-15 -9 -15 -5 0 4 -6 3 -12 -2 -7 -6 -21 -9 -31 -8 -9 2 -15 -1 -11 -6 3 -5
-5 -9 -18 -9 -45 0 -68 -4 -68 -12 0 -4 -7 -4 -17 -1 -12 5 -14 3 -8 -7 6 -10
2 -11 -19 -6 -14 3 -26 2 -26 -3 0 -5 -7 -12 -16 -15 -10 -4 -13 -2 -8 7 5 8
2 7 -9 -2 -10 -8 -20 -11 -23 -8 -3 3 -17 -1 -31 -8 -15 -8 -31 -12 -35 -9 -5
3 -19 -2 -30 -13 -14 -12 -18 -13 -13 -3 7 12 6 13 -7 3 -8 -7 -18 -10 -21 -6
-4 3 -7 0 -7 -7 0 -7 -3 -10 -7 -7 -3 4 -13 1 -21 -6 -13 -9 -14 -9 -8 0 5 9
2 11 -8 7 -9 -3 -16 -10 -16 -16 0 -5 -9 -6 -20 -3 -12 4 -20 2 -20 -5 0 -7
-8 -9 -20 -5 -12 4 -20 2 -20 -5 0 -6 -4 -9 -9 -5 -5 3 -12 1 -16 -5 -4 -6
-10 -8 -15 -5 -5 3 -11 1 -15 -5 -4 -6 -11 -8 -16 -5 -5 4 -9 2 -9 -4 0 -6 -7
-8 -15 -5 -8 4 -15 2 -15 -3 0 -9 -13 -13 -52 -14 -10 0 -18 -5 -18 -11 0 -5
-7 -8 -15 -4 -8 3 -15 1 -15 -4 0 -5 -7 -6 -17 -3 -10 4 -14 2 -9 -5 4 -6 -1
-11 -11 -11 -38 -1 -53 -5 -53 -12 0 -5 -7 -5 -17 -2 -12 5 -14 3 -8 -7 6 -10
4 -12 -8 -7 -10 3 -17 2 -17 -3 0 -5 -7 -6 -17 -3 -12 5 -14 3 -8 -7 6 -10 3
-12 -13 -8 -12 4 -22 2 -22 -3 0 -4 -7 -5 -17 -2 -10 4 -14 2 -9 -5 4 -6 -1
-10 -11 -10 -26 1 -46 -5 -62 -20 -7 -7 -20 -11 -27 -8 -8 3 -14 1 -14 -5 0
-6 -4 -7 -10 -4 -5 3 -10 1 -10 -5 0 -6 -5 -8 -11 -5 -5 4 -18 0 -27 -7 -26
-23 -46 -33 -38 -20 5 8 2 10 -8 6 -9 -3 -16 -11 -16 -16 0 -6 -6 -8 -14 -5
-7 3 -28 -3 -45 -14 -18 -11 -29 -14 -25 -7 4 7 -2 5 -13 -5 -11 -9 -23 -14
-27 -10 -4 5 -14 0 -21 -11 -8 -10 -18 -15 -24 -11 -6 3 -11 1 -11 -6 0 -7 -3
-9 -7 -6 -3 4 -15 -1 -26 -10 -11 -10 -17 -12 -13 -6 5 9 2 11 -8 7 -9 -3 -16
-10 -16 -16 0 -5 -4 -7 -9 -4 -4 3 -16 -1 -27 -8 -10 -8 -25 -11 -33 -8 -10 4
-12 1 -6 -8 6 -10 4 -12 -8 -7 -10 3 -17 2 -17 -4 0 -6 -4 -7 -10 -4 -5 3 -10
1 -10 -5 0 -6 -4 -8 -10 -5 -5 3 -10 1 -10 -5 0 -7 -6 -10 -12 -7 -7 2 -19 -3
-26 -12 -8 -9 -11 -10 -7 -4 4 9 1 11 -9 7 -9 -3 -13 -11 -10 -16 4 -6 -1 -8
-14 -4 -13 5 -30 -2 -53 -21 -18 -15 -29 -21 -24 -13 8 13 7 13 -8 1 -9 -7
-17 -10 -17 -5 0 4 -7 -1 -16 -12 -8 -10 -12 -12 -8 -4 4 8 -5 4 -21 -10 -16
-14 -25 -18 -20 -10 5 8 -4 4 -20 -10 -16 -14 -25 -18 -20 -10 5 8 -2 6 -16
-6 -35 -30 -54 -41 -44 -23 5 8 0 7 -12 -4 -11 -9 -23 -14 -26 -11 -4 4 -9 -1
-13 -10 -3 -9 -10 -13 -15 -10 -5 3 -9 1 -9 -5 0 -6 -7 -7 -17 -4 -12 5 -14 3
-8 -7 6 -10 4 -12 -8 -7 -12 4 -17 1 -17 -10 0 -9 -3 -13 -7 -10 -3 4 -12 2
-20 -4 -7 -6 -13 -8 -13 -3 0 5 -7 -2 -16 -14 -9 -13 -21 -21 -27 -19 -7 2
-18 -3 -25 -12 -11 -13 -12 -13 -7 -1 4 8 -3 4 -16 -10 -13 -14 -30 -26 -38
-28 -23 -5 -71 -42 -71 -54 0 -6 -3 -8 -7 -5 -3 4 -12 -1 -20 -11 -8 -9 -11
-11 -7 -3 5 9 3 12 -4 7 -7 -4 -12 -13 -12 -21 0 -8 -5 -17 -12 -21 -7 -5 -9
-2 -4 7 4 8 -5 0 -21 -16 -15 -17 -24 -24 -19 -15 5 8 -2 3 -17 -12 -15 -15
-27 -32 -27 -38 0 -6 -11 -15 -25 -20 -14 -5 -25 -17 -25 -25 0 -9 -4 -14 -9
-11 -5 3 -15 -2 -22 -11 -12 -14 -12 -15 -1 -9 22 13 -4 -30 -28 -47 -11 -8
-17 -17 -13 -20 3 -4 1 -7 -5 -7 -7 0 -12 -7 -12 -15 0 -8 -5 -15 -11 -15 -5
0 -8 -4 -4 -9 3 -5 -2 -16 -11 -25 -8 -9 -12 -20 -9 -26 3 -5 2 -10 -4 -10 -6
0 -8 -7 -5 -15 4 -8 1 -15 -6 -15 -8 0 -10 -8 -6 -24 3 -12 2 -26 -2 -30 -10
-11 -10 -86 1 -86 5 0 7 -6 4 -14 -3 -7 0 -19 6 -26 9 -10 9 -11 0 -6 -8 4 -8
0 0 -19 7 -14 16 -25 20 -25 5 0 5 -5 2 -10 -4 -6 -1 -17 5 -25 7 -8 9 -15 5
-15 -4 0 3 -9 16 -21 13 -11 18 -17 11 -14 -11 6 -12 3 -3 -14 12 -22 27 -30
16 -8 -4 6 0 3 9 -7 8 -10 13 -22 11 -27 -3 -4 0 -11 6 -15 8 -5 10 -2 5 7 -6
10 -4 10 6 -1 8 -8 20 -21 28 -29 12 -11 12 -12 1 -6 -9 5 -12 4 -7 -3 4 -7
12 -12 18 -12 15 0 58 -43 58 -58 0 -7 4 -11 9 -8 5 3 11 -4 14 -15 4 -13 11
-19 19 -16 8 2 27 -7 44 -22 16 -14 23 -21 14 -16 -13 9 -13 8 -1 -8 8 -10 20
-16 28 -13 7 3 13 -1 13 -10 0 -8 5 -12 10 -9 6 3 10 1 10 -5 0 -6 5 -8 10 -5
6 3 10 1 10 -5 0 -6 4 -9 9 -6 5 3 11 -1 15 -9 3 -8 13 -15 21 -15 10 0 13 -5
9 -12 -5 -7 -2 -9 8 -6 8 4 19 -2 26 -13 8 -12 18 -16 29 -12 10 4 14 2 10 -4
-4 -6 0 -14 9 -17 9 -3 12 -2 8 5 -3 6 3 5 14 -2 12 -7 19 -17 16 -21 -3 -4 3
-5 12 -1 13 5 15 3 9 -7 -6 -10 -4 -12 8 -7 10 3 17 2 17 -4 0 -6 4 -8 9 -5 5
3 12 -1 15 -10 3 -8 10 -12 16 -9 5 3 10 1 10 -5 0 -6 5 -8 10 -5 6 3 10 1 10
-5 0 -6 5 -8 11 -5 6 4 17 -1 25 -11 9 -11 13 -13 9 -7 -4 9 -1 11 9 7 9 -3
14 -9 12 -13 -2 -3 7 -11 20 -18 18 -8 22 -8 17 0 -4 7 1 6 10 -2 9 -7 17 -10
17 -5 0 5 4 5 8 -1 13 -18 47 -42 38 -27 -7 11 -4 11 13 0 12 -7 21 -17 21
-21 0 -5 7 -7 15 -3 8 3 15 1 15 -5 0 -6 4 -8 9 -4 5 3 12 1 16 -5 4 -6 10 -8
15 -5 5 3 11 1 15 -5 3 -5 15 -15 27 -21 16 -9 19 -8 12 3 -4 7 3 4 16 -7 15
-13 21 -15 16 -5 -6 13 -6 13 6 0 7 -9 20 -15 28 -15 8 0 21 -6 28 -15 10 -11
11 -11 6 -1 -5 11 -1 10 17 -2 13 -9 31 -17 41 -17 10 0 18 -5 18 -11 0 -5 4
-8 8 -5 5 3 21 -1 36 -9 14 -8 24 -10 21 -5 -3 6 1 7 9 4 9 -3 13 -11 9 -17
-4 -6 0 -8 10 -4 9 3 19 2 22 -4 4 -5 11 -7 16 -4 5 4 9 2 9 -3 0 -8 6 -10 50
-14 11 -1 20 -6 20 -11 0 -4 5 -5 10 -2 6 3 10 1 10 -5 0 -7 7 -10 15 -6 8 3
15 1 15 -5 0 -6 5 -7 10 -4 6 3 10 1 10 -6 0 -6 8 -9 20 -6 11 3 20 1 20 -5 0
-5 5 -6 10 -3 6 3 10 2 10 -4 0 -5 9 -8 20 -6 11 2 20 0 20 -5 0 -4 7 -11 16
-14 10 -4 13 -2 8 7 -6 9 -5 9 8 0 8 -7 18 -10 21 -6 4 3 17 -2 29 -13 13 -12
18 -13 13 -4 -5 9 1 7 15 -5 13 -11 20 -14 15 -6 -5 9 0 8 17 -3 14 -9 28 -13
31 -10 4 4 13 1 21 -5 8 -7 21 -9 27 -5 8 5 9 3 4 -6 -6 -10 -4 -12 8 -7 9 3
19 2 23 -4 3 -6 12 -8 19 -5 8 3 19 -2 26 -10 7 -8 18 -13 24 -10 7 2 18 -1
25 -7 10 -9 11 -9 6 0 -5 9 -2 11 8 7 9 -3 16 -11 16 -17 0 -6 3 -7 6 -4 4 3
16 2 27 -4 15 -9 18 -8 11 3 -6 10 -5 11 8 1 8 -7 18 -10 21 -6 4 3 7 1 7 -6
0 -8 7 -11 15 -7 8 3 15 0 15 -6 0 -6 3 -8 7 -5 3 4 13 1 21 -6 13 -10 14 -9
7 3 -7 12 -6 13 7 3 8 -7 18 -10 21 -6 4 3 7 1 7 -5 0 -6 10 -11 23 -11 49 -1
57 -3 62 -12 4 -5 11 -7 16 -4 5 4 9 2 9 -4 0 -6 7 -8 15 -5 8 4 15 1 15 -5 0
-7 10 -9 25 -7 17 3 23 1 19 -6 -5 -7 0 -9 15 -5 12 3 33 -1 48 -8 14 -7 32
-11 39 -8 8 3 14 0 14 -7 0 -7 7 -10 15 -7 8 4 17 2 20 -3 3 -5 14 -7 24 -5
13 2 18 -2 17 -17 -1 -18 -8 -22 -48 -23 -27 -2 -48 1 -48 4 0 4 -28 7 -62 6
-35 -1 -67 1 -73 4 -5 3 -30 6 -55 7 -25 1 -45 3 -45 4 0 1 -20 3 -45 4 -25 1
-51 5 -59 10 -10 7 -12 6 -6 -4 6 -10 4 -11 -6 -4 -8 5 -27 9 -44 9 -16 0 -36
5 -44 9 -10 7 -12 5 -6 -5 7 -11 6 -12 -6 -3 -8 6 -33 10 -56 10 -24 -1 -43 1
-43 5 0 3 -20 5 -45 4 -25 -1 -45 1 -45 5 0 4 -19 6 -42 5 -24 -1 -47 1 -53 4
-5 3 -30 7 -55 8 -25 1 -63 5 -85 8 -22 3 -60 8 -85 9 -25 2 -46 5 -47 6 -2 1
-15 3 -30 4 -16 1 -34 5 -42 10 -11 7 -12 6 -6 -5 7 -11 6 -12 -6 -2 -8 6 -24
10 -34 9 -11 -2 -26 2 -34 8 -12 9 -13 8 -6 -3 6 -11 5 -12 -6 -5 -13 8 -35
12 -104 17 -16 1 -35 6 -41 9 -6 4 -22 5 -34 3 -13 -3 -28 -1 -34 3 -6 5 -28
8 -48 7 -21 0 -38 2 -38 5 0 4 -16 6 -35 5 -19 -1 -35 1 -35 6 0 4 -12 6 -27
5 -16 -2 -33 0 -38 5 -6 4 -20 6 -30 5 -11 -2 -26 2 -34 8 -12 9 -13 8 -6 -3
6 -11 5 -12 -6 -5 -14 8 -40 13 -91 16 -16 1 -28 5 -28 10 0 4 -10 6 -22 4
-13 -2 -29 2 -37 8 -12 9 -13 8 -6 -4 7 -13 6 -13 -7 -2 -9 7 -20 12 -24 11
-5 -1 -11 0 -14 1 -3 1 -21 4 -40 6 -83 8 -96 10 -107 17 -6 4 -18 4 -27 1 -9
-3 -16 -1 -16 5 0 6 -7 8 -15 5 -8 -4 -23 0 -32 7 -14 12 -16 12 -8 -1 8 -13
7 -13 -8 -1 -9 7 -17 10 -17 6 0 -4 -8 -1 -17 6 -15 12 -16 12 -8 -1 7 -12 6
-13 -6 -4 -8 6 -22 10 -31 9 -10 -2 -18 0 -18 5 0 5 -12 7 -27 5 -16 -2 -34 2
-40 7 -7 6 -13 7 -13 3 0 -4 -7 -2 -15 5 -9 7 -18 10 -22 7 -3 -4 -13 -1 -21
6 -13 10 -14 9 -7 -3 7 -13 6 -13 -7 -2 -8 7 -24 9 -33 5 -14 -5 -16 -3 -10 7
5 9 4 11 -3 6 -6 -4 -21 -2 -33 5 -17 8 -20 8 -14 -1 4 -7 -5 -4 -21 6 -21 14
-26 15 -19 4 8 -13 6 -13 -8 -2 -9 8 -21 11 -27 7 -5 -3 -10 -2 -10 4 0 5 -8
8 -17 6 -10 -1 -24 2 -30 8 -7 5 -13 6 -13 2 0 -4 -8 -1 -17 6 -13 11 -15 11
-9 1 6 -11 2 -11 -20 1 -16 8 -37 13 -46 12 -10 -2 -18 1 -18 6 0 6 -4 8 -9 4
-5 -3 -12 -1 -16 4 -3 6 -12 8 -19 5 -8 -3 -17 0 -21 5 -3 6 -11 9 -16 5 -5
-3 -17 0 -26 8 -14 11 -16 11 -8 -2 6 -12 5 -12 -5 -3 -7 6 -19 9 -28 6 -11
-5 -13 -3 -7 7 6 10 4 12 -8 7 -10 -3 -17 -2 -17 3 0 5 -9 7 -20 5 -11 -2 -22
1 -25 6 -4 5 -11 7 -16 4 -5 -4 -9 -2 -9 4 0 5 -8 8 -17 6 -10 -1 -29 4 -42
12 -18 12 -22 12 -15 2 6 -11 5 -12 -8 -2 -8 7 -18 10 -21 6 -4 -3 -7 -2 -7 4
0 6 -7 14 -16 17 -10 4 -13 2 -8 -6 4 -6 -3 -4 -15 5 -13 8 -30 13 -39 10 -11
-5 -13 -3 -7 7 6 10 4 12 -8 7 -9 -3 -19 -2 -23 4 -3 6 -12 8 -20 5 -8 -3 -14
-1 -14 5 0 6 -4 8 -9 4 -5 -3 -12 -1 -16 5 -4 6 -11 8 -16 5 -5 -4 -9 -2 -9 4
0 5 -8 8 -17 7 -10 -2 -24 4 -31 13 -10 12 -12 13 -6 1 6 -12 4 -12 -12 1 -32
26 -48 34 -39 18 5 -8 -2 -5 -15 6 -14 12 -20 14 -15 5 6 -11 3 -10 -12 3 -11
9 -23 14 -26 10 -4 -3 -7 -1 -7 6 0 8 -7 11 -15 7 -8 -3 -15 0 -15 6 0 6 -3 8
-7 5 -3 -4 -12 1 -20 11 -8 9 -12 11 -8 5 4 -9 1 -11 -9 -7 -9 3 -13 11 -9 17
4 6 0 8 -10 4 -10 -3 -17 -2 -17 3 0 5 -7 7 -15 4 -8 -4 -15 -1 -15 6 0 6 -4
8 -10 5 -5 -3 -10 -3 -10 2 0 4 -12 17 -27 27 -16 12 -23 14 -18 5 5 -8 -3 -3
-18 10 -20 18 -29 21 -39 12 -7 -7 -22 -19 -33 -27 -11 -9 -13 -13 -5 -9 8 4
6 0 -4 -9 -10 -8 -23 -13 -27 -10 -5 3 -9 -1 -9 -9 0 -8 -8 -21 -17 -28 -17
-13 -17 -13 -3 6 14 19 14 19 -2 6 -10 -7 -18 -20 -18 -28 0 -8 -6 -13 -12
-11 -7 3 -24 -6 -38 -20 -16 -16 -18 -20 -5 -12 20 14 20 14 1 -7 -10 -13 -23
-20 -27 -17 -5 3 -12 -2 -15 -10 -3 -9 -10 -13 -15 -10 -5 3 -9 -2 -9 -11 0
-9 -4 -14 -9 -10 -5 3 -12 -4 -16 -14 -4 -13 -12 -18 -21 -14 -10 4 -17 -2
-21 -16 -3 -11 -9 -19 -13 -16 -5 3 -12 -4 -15 -16 -4 -11 -10 -18 -13 -15 -3
4 -26 -15 -51 -41 -25 -27 -39 -39 -31 -28 14 18 14 19 -2 6 -10 -7 -18 -19
-18 -27 0 -7 -5 -16 -12 -20 -7 -5 -8 -3 -3 6 5 9 4 11 -3 6 -7 -4 -12 -13
-12 -21 0 -8 -5 -17 -12 -21 -7 -5 -8 -3 -3 7 5 8 -7 -3 -27 -24 -19 -20 -37
-35 -40 -32 -2 3 -13 -5 -24 -17 -15 -18 -16 -20 -1 -9 9 7 17 11 17 7 0 -3
-18 -18 -40 -32 -22 -15 -37 -30 -34 -35 3 -5 -2 -9 -11 -9 -9 0 -13 -4 -10
-10 3 -5 -10 -19 -29 -31 -20 -12 -36 -23 -36 -26 0 -2 6 -1 13 3 8 5 8 3 -2
-9 -7 -9 -17 -14 -22 -11 -5 3 -9 -2 -9 -10 0 -9 -4 -15 -8 -14 -4 2 -26 -15
-47 -37 -22 -22 -31 -33 -20 -25 19 14 19 14 6 -2 -7 -10 -19 -18 -26 -18 -6
0 -18 -12 -25 -26 -8 -14 -22 -30 -32 -35 -10 -5 -18 -16 -18 -24 0 -8 -6 -15
-13 -15 -8 0 -22 -10 -33 -22 l-19 -23 25 19 c19 15 17 12 -5 -11 -16 -17 -32
-29 -35 -28 -3 1 -14 -7 -25 -18 -11 -11 -14 -17 -5 -13 8 4 0 -5 -18 -21 -18
-15 -32 -34 -32 -42 0 -8 -3 -12 -6 -8 -8 8 -33 -16 -27 -25 2 -5 -3 -8 -11
-8 -9 0 -13 -6 -10 -14 3 -8 0 -17 -7 -22 -8 -5 -10 -3 -4 6 5 9 4 11 -3 6 -7
-4 -12 -14 -12 -22 0 -8 -7 -14 -16 -14 -8 0 -12 -4 -9 -10 3 -5 -2 -10 -11
-10 -10 0 -14 -3 -11 -7 4 -3 -2 -12 -13 -20 -11 -8 -20 -21 -20 -29 0 -8 -4
-13 -9 -10 -5 3 -16 -10 -25 -29 -9 -19 -22 -34 -29 -32 -7 1 -11 -4 -9 -10 1
-7 -3 -13 -9 -13 -5 0 -8 -3 -6 -7 5 -10 -30 -43 -37 -36 -3 4 -6 -1 -6 -10 0
-9 -9 -22 -20 -30 -11 -8 -17 -17 -13 -20 3 -4 -2 -7 -11 -7 -12 0 -16 -5 -12
-16 3 -8 2 -12 -4 -9 -6 3 -10 0 -10 -8 0 -8 -8 -21 -18 -28 -16 -13 -16 -13
-2 6 14 19 14 19 -3 6 -9 -7 -17 -22 -17 -32 0 -10 -9 -23 -19 -28 -10 -6 -34
-30 -52 -53 -20 -25 -25 -37 -14 -29 11 8 3 -1 -18 -21 -20 -19 -37 -42 -37
-51 0 -9 -5 -19 -12 -23 -7 -4 -8 -3 -4 4 4 7 5 12 3 12 -3 0 -18 -20 -35 -45
-16 -24 -33 -41 -37 -37 -5 4 -5 -1 -2 -10 4 -12 1 -18 -9 -18 -8 0 -12 -4 -9
-10 3 -5 1 -10 -5 -10 -6 0 -8 -4 -5 -10 3 -5 -1 -10 -9 -10 -14 0 -20 -11
-17 -32 0 -4 -13 -18 -30 -32 -17 -14 -27 -26 -22 -26 4 0 0 -5 -9 -11 -10 -5
-23 -19 -29 -31 -9 -16 -8 -19 3 -13 7 5 0 -7 -17 -25 -16 -18 -23 -29 -15
-25 8 5 5 -3 -7 -17 -13 -13 -23 -32 -23 -42 0 -11 -4 -14 -12 -10 -8 5 -9 2
-5 -9 3 -10 3 -17 -2 -17 -5 0 -16 -12 -26 -26 -12 -18 -13 -24 -4 -19 8 3 5
-1 -5 -9 -11 -9 -16 -16 -12 -16 5 0 3 -6 -3 -13 -6 -8 -8 -17 -4 -20 3 -4 1
-7 -6 -7 -8 0 -11 -7 -7 -15 3 -8 2 -15 -2 -15 -4 0 -13 -9 -20 -21 -11 -16
-11 -19 -1 -13 7 4 2 -8 -11 -26 -13 -18 -17 -30 -9 -25 11 7 12 6 2 -7 -7 -8
-10 -18 -6 -21 3 -4 2 -7 -4 -7 -9 0 -13 -13 -14 -52 0 -10 -5 -18 -11 -18 -5
0 -7 -7 -4 -16 4 -9 1 -23 -5 -30 -6 -8 -9 -20 -6 -29 4 -8 2 -17 -3 -20 -5
-3 -7 -14 -5 -25 2 -11 1 -20 -3 -20 -4 0 -8 -49 -7 -110 0 -60 3 -110 7 -110
4 0 5 -13 3 -30 -2 -16 1 -30 7 -30 5 0 8 -7 4 -15 -3 -8 -1 -15 4 -15 5 0 7
-12 4 -26 -3 -16 -1 -23 6 -19 6 3 7 0 4 -10 -4 -9 2 -25 12 -37 13 -15 14
-19 4 -14 -13 6 -13 5 0 -6 9 -7 14 -21 12 -32 -2 -10 0 -16 6 -12 5 3 13 -1
16 -10 4 -10 2 -13 -7 -8 -6 4 -1 -4 12 -19 12 -14 20 -30 17 -36 -4 -5 3 -16
14 -24 11 -7 18 -16 15 -19 -3 -2 6 -15 19 -27 14 -13 22 -29 19 -37 -3 -9 1
-14 12 -14 9 0 13 -5 10 -11 -9 -13 23 -49 43 -49 8 0 12 -6 8 -15 -3 -9 0
-15 10 -15 8 0 13 -4 10 -9 -3 -5 2 -15 11 -22 14 -12 16 -12 9 1 -4 8 0 6 8
-4 9 -11 16 -23 16 -28 0 -4 7 -8 16 -8 8 0 12 -4 9 -10 -3 -5 0 -10 8 -10 7
0 26 -15 43 -32 l29 -33 -30 25 c-30 25 -30 25 -10 1 11 -13 35 -30 53 -38 17
-7 32 -16 32 -19 0 -3 -5 -2 -12 2 -7 4 -8 3 -4 -4 4 -7 13 -12 21 -12 8 0 20
-9 28 -20 8 -11 17 -17 20 -13 4 3 7 1 7 -6 0 -7 5 -9 10 -6 6 3 10 0 10 -7 0
-7 13 -22 28 -33 27 -19 27 -19 13 0 -8 11 -2 8 13 -8 15 -15 31 -25 36 -22 4
3 10 -2 14 -10 3 -8 21 -23 41 -32 19 -9 35 -21 35 -25 0 -5 5 -6 10 -3 6 3
10 1 10 -6 0 -7 3 -10 6 -6 4 3 13 -1 21 -9 8 -8 18 -12 23 -9 5 3 12 0 16 -6
5 -8 3 -9 -6 -4 -9 6 -11 4 -6 -4 5 -7 14 -10 22 -7 8 3 17 -1 20 -9 4 -8 10
-12 15 -9 5 3 9 0 9 -6 0 -6 4 -9 9 -6 5 3 21 -6 35 -19 28 -26 42 -33 31 -15
-3 6 1 7 9 4 9 -3 14 -10 11 -14 -3 -4 2 -11 11 -14 10 -4 13 -2 7 6 -4 7 6 3
21 -10 16 -12 37 -22 48 -22 10 0 21 -7 24 -15 4 -8 10 -12 15 -9 5 3 9 0 9
-6 0 -6 5 -8 10 -5 6 4 18 1 26 -6 9 -7 23 -14 32 -16 9 -1 18 -6 20 -12 2 -5
10 -7 19 -4 12 5 14 3 8 -7 -6 -10 -4 -12 8 -7 10 3 17 2 17 -3 0 -5 6 -7 14
-4 7 3 16 -2 19 -10 4 -9 13 -13 22 -10 8 3 15 2 15 -4 0 -5 7 -13 16 -16 10
-4 13 -2 8 7 -9 13 26 -12 38 -28 4 -5 8 -6 8 -1 0 5 7 3 15 -4 8 -7 15 -9 15
-5 0 4 7 2 15 -5 8 -7 15 -9 15 -5 0 4 11 0 25 -9 14 -9 30 -14 35 -11 6 3 10
2 10 -4 0 -6 7 -7 17 -4 10 4 14 2 10 -4 -4 -6 0 -14 9 -17 10 -4 13 -2 8 7
-4 6 3 3 16 -8 13 -11 20 -14 16 -7 -7 11 -4 11 15 0 13 -7 26 -16 29 -19 3
-3 13 -7 23 -7 41 -4 47 -6 47 -13 0 -5 7 -5 17 -2 12 5 14 3 8 -7 -6 -10 -4
-12 8 -7 10 3 17 2 17 -3 0 -5 7 -6 17 -3 11 4 14 3 9 -5 -5 -8 -2 -10 8 -6
10 4 16 1 16 -7 0 -7 3 -9 7 -6 3 4 13 1 21 -6 13 -10 14 -9 7 3 -5 9 1 7 15
-5 14 -12 20 -14 15 -5 -7 12 -6 13 7 3 8 -7 18 -10 21 -6 4 3 7 1 7 -6 0 -7
4 -10 9 -6 5 3 13 0 16 -6 4 -5 13 -8 21 -5 7 3 16 1 20 -5 3 -6 12 -8 20 -5
8 3 14 1 14 -4 0 -5 7 -6 17 -3 12 5 14 3 8 -7 -6 -10 -4 -12 8 -7 9 3 19 2
22 -4 4 -5 10 -7 15 -4 5 3 12 0 15 -6 4 -5 13 -8 21 -5 8 3 14 1 14 -3 0 -5
10 -7 22 -3 16 4 19 2 13 -8 -6 -10 -4 -12 8 -7 10 4 17 1 17 -5 0 -6 3 -8 7
-5 3 4 13 1 21 -6 13 -9 14 -9 8 0 -4 8 11 5 38 -7 26 -11 46 -17 46 -13 0 3
8 -1 17 -8 14 -12 16 -12 8 0 -6 11 -3 11 14 -1 12 -9 32 -13 43 -10 16 4 19
2 13 -8 -6 -10 -4 -12 8 -7 10 3 17 2 17 -4 0 -6 5 -7 10 -4 6 4 18 1 27 -7
14 -11 16 -11 8 2 -7 12 -6 13 7 3 8 -7 18 -10 21 -6 4 3 7 1 7 -6 0 -7 4 -10
9 -6 5 3 12 1 16 -5 3 -6 17 -8 31 -6 13 3 24 0 24 -6 0 -6 3 -8 7 -5 3 4 12
2 20 -5 7 -6 16 -8 20 -5 3 4 13 1 21 -6 13 -10 14 -9 7 3 -7 12 -6 13 7 3 8
-7 18 -10 21 -6 4 3 7 2 7 -4 0 -6 11 -11 25 -12 47 -3 55 -4 55 -11 0 -4 6
-7 13 -8 22 -2 42 -7 56 -16 10 -7 12 -5 6 3 -6 10 -3 11 13 2 12 -6 32 -12
46 -13 15 -1 26 -6 26 -11 0 -5 6 -7 14 -4 7 3 19 0 26 -6 10 -9 11 -9 5 3 -8
13 -6 13 8 2 9 -8 22 -10 28 -6 8 4 9 3 5 -5 -5 -8 0 -10 18 -7 14 3 26 0 26
-5 0 -6 4 -8 9 -4 5 3 12 1 16 -5 3 -6 17 -8 31 -6 13 3 24 1 24 -3 0 -5 11
-7 25 -6 14 2 25 0 25 -4 0 -8 9 -10 55 -13 14 -1 25 -5 25 -9 0 -5 10 -6 22
-4 12 3 27 0 34 -6 7 -6 18 -8 24 -4 5 3 10 2 10 -4 0 -5 8 -8 18 -6 9 1 22 0
27 -3 6 -4 19 -7 30 -9 32 -3 49 -8 64 -17 10 -7 12 -5 6 3 -6 10 -2 10 16 0
13 -7 33 -13 44 -14 11 0 25 -3 30 -6 6 -4 18 -5 28 -4 9 2 17 0 17 -5 0 -5 8
-7 18 -5 9 1 23 -3 31 -9 12 -9 13 -8 7 3 -5 8 3 6 20 -5 21 -14 26 -15 19 -4
-7 12 -6 13 6 4 8 -6 22 -12 32 -13 9 -1 28 -2 42 -3 14 -1 25 -5 25 -8 0 -6
24 -10 73 -13 15 -1 27 -5 27 -9 0 -4 6 -5 14 -2 8 3 17 1 20 -4 3 -5 17 -8
31 -7 14 2 25 0 25 -4 0 -5 16 -7 35 -6 19 1 35 -3 35 -7 0 -5 5 -6 10 -3 6 4
18 1 27 -7 14 -11 16 -11 8 2 -7 13 -6 13 7 2 8 -7 24 -9 33 -5 12 4 16 3 11
-5 -4 -7 2 -9 19 -6 14 2 25 0 25 -4 0 -5 12 -8 28 -7 15 1 32 -1 37 -5 10 -6
35 -10 83 -13 12 0 22 -5 22 -9 0 -5 14 -6 30 -3 17 3 30 2 30 -3 0 -8 21 -12
77 -15 17 -1 29 -5 27 -8 -2 -4 9 -7 24 -8 60 -2 82 -5 82 -12 0 -4 8 -6 18
-4 9 1 23 -3 31 -9 12 -9 13 -8 6 4 -7 12 -6 13 6 3 9 -7 25 -11 37 -8 12 2
22 0 22 -5 0 -5 9 -7 20 -5 11 2 22 0 25 -5 3 -5 21 -7 40 -6 19 2 35 0 35 -4
0 -5 8 -7 18 -5 9 1 22 0 27 -4 6 -3 17 -6 25 -6 8 0 21 -4 29 -9 10 -7 12 -6
6 4 -6 10 -4 11 6 4 8 -5 21 -9 29 -9 8 0 20 -3 26 -7 6 -4 21 -6 33 -3 11 2
21 0 21 -4 0 -5 14 -7 30 -6 17 1 30 -1 30 -5 0 -4 16 -6 35 -4 19 1 33 -1 31
-5 -3 -4 5 -7 17 -6 12 1 27 0 32 -4 6 -3 24 -6 40 -7 17 -1 30 -3 30 -4 0 -2
14 -4 30 -5 17 -2 31 -4 33 -5 1 -1 10 -3 20 -4 9 -1 23 -5 31 -10 11 -7 12
-6 6 5 -7 11 -6 12 7 2 8 -7 18 -10 21 -6 4 3 13 1 21 -6 8 -6 28 -9 45 -6 17
3 31 1 31 -4 0 -5 14 -8 30 -6 17 2 28 0 25 -5 -3 -4 13 -7 35 -6 23 2 43 -1
46 -5 2 -4 13 -6 24 -4 11 2 20 0 20 -6 0 -5 10 -7 23 -5 12 2 28 -2 36 -8 12
-9 13 -8 6 4 -7 12 -6 13 6 4 8 -7 26 -11 42 -9 15 2 27 -1 27 -5 0 -5 11 -7
25 -4 14 2 25 1 25 -4 0 -5 15 -8 33 -7 17 2 37 0 42 -4 6 -3 17 -6 25 -6 8 0
21 -4 29 -9 11 -7 12 -6 6 5 -8 12 -6 12 8 0 9 -7 17 -10 17 -7 0 4 10 2 21
-5 17 -9 20 -8 13 3 -6 10 -5 11 7 2 8 -6 24 -10 36 -9 12 1 20 -1 18 -5 -2
-4 15 -7 38 -8 23 -1 54 -3 69 -3 15 -1 26 -4 24 -8 -3 -4 10 -8 27 -9 89 -5
105 -7 101 -14 -2 -3 14 -5 36 -3 22 2 40 -1 40 -7 0 -6 10 -8 24 -4 23 6 43
-15 32 -33 -4 -6 -131 -7 -131 -1 0 1 -27 3 -60 4 -33 1 -64 4 -70 7 -5 3 -43
5 -82 4 -40 0 -73 2 -73 5 0 3 -26 5 -57 5 -32 -1 -62 2 -68 6 -5 4 -30 6 -55
4 -25 -1 -53 2 -64 7 -13 7 -16 7 -11 -2 5 -9 2 -10 -11 -3 -11 6 -40 9 -66 8
-27 -1 -48 1 -48 5 0 3 -26 7 -57 8 -124 4 -189 8 -198 14 -6 3 -36 4 -67 3
-32 -1 -55 2 -52 6 2 4 -23 7 -56 5 -33 -2 -60 -1 -60 3 0 3 -24 6 -52 5 -29
0 -57 2 -63 5 -5 3 -30 6 -55 6 -25 0 -51 4 -59 9 -11 7 -12 6 -6 -5 7 -11 6
-12 -6 -3 -8 6 -33 11 -56 9 -24 -1 -43 1 -43 5 0 3 -23 6 -51 5 -27 -1 -52 2
-54 6 -3 3 -30 5 -60 4 -31 -1 -58 1 -60 5 -2 3 -23 6 -47 5 -24 -1 -49 3 -57
9 -12 9 -13 8 -6 -3 6 -11 5 -12 -6 -5 -14 8 -54 13 -151 16 -27 1 -48 5 -48
8 0 4 -25 6 -55 5 -30 -1 -55 1 -55 5 0 4 -22 6 -50 5 -27 -1 -50 1 -50 5 0 4
-20 6 -46 5 -25 -1 -47 2 -49 6 -3 3 -25 5 -50 4 -25 -1 -48 2 -51 6 -2 4 -21
6 -42 4 -20 -2 -42 1 -47 5 -6 5 -24 7 -40 5 -17 -1 -38 2 -49 7 -14 8 -17 7
-11 -3 6 -9 4 -10 -6 -3 -8 5 -30 10 -49 11 -56 4 -125 11 -127 13 -2 1 -21 4
-43 5 -22 1 -41 4 -42 5 -2 1 -23 3 -48 4 -25 1 -49 4 -55 7 -5 4 -23 6 -40 4
-16 -1 -34 1 -40 5 -5 4 -23 6 -40 5 -16 0 -36 4 -44 9 -12 9 -13 8 -6 -4 7
-12 6 -13 -6 -4 -8 6 -28 11 -46 9 -18 -1 -30 1 -28 5 3 4 -12 7 -33 6 -20 -2
-41 0 -47 3 -5 3 -30 7 -55 8 -70 4 -94 8 -105 14 -5 3 -27 5 -47 4 -21 0 -38
3 -38 6 0 4 -14 5 -30 4 -17 -1 -33 1 -35 6 -3 4 -23 6 -45 4 -22 -2 -40 0
-40 4 0 5 -18 7 -40 6 -22 -1 -40 1 -40 5 0 4 -18 6 -40 5 -22 -1 -40 1 -40 5
0 4 -14 6 -30 5 -16 -1 -30 1 -30 5 0 4 -16 7 -35 5 -19 -1 -35 1 -35 5 0 4
-12 6 -27 5 -16 -1 -34 3 -42 9 -12 9 -13 8 -6 -4 8 -13 6 -13 -8 -2 -9 8 -21
11 -27 7 -6 -4 -17 -2 -24 5 -8 6 -25 9 -39 6 -14 -2 -28 -1 -32 2 -3 4 -27 8
-53 10 -75 5 -82 6 -82 13 0 3 -12 5 -27 4 -16 -1 -34 3 -42 9 -12 9 -13 8 -6
-4 8 -13 7 -13 -8 -1 -10 8 -20 11 -24 8 -3 -4 -13 -1 -21 6 -13 10 -14 9 -7
-2 6 -11 5 -12 -6 -5 -15 9 -30 13 -69 17 -14 2 -31 7 -39 11 -10 7 -12 5 -6
-4 6 -10 4 -11 -6 -4 -8 5 -27 10 -44 12 -16 1 -40 3 -52 4 -13 1 -23 5 -23 9
0 5 -9 6 -20 4 -11 -2 -22 0 -25 5 -3 5 -18 7 -33 6 -15 -2 -31 -1 -37 2 -11
7 -62 15 -92 14 -13 0 -23 4 -23 8 0 5 -11 7 -25 5 -14 -1 -28 1 -30 5 -3 5
-16 7 -30 5 -14 -1 -25 1 -25 5 0 4 -13 6 -30 5 -16 -1 -30 1 -30 6 0 4 -11 6
-25 3 -14 -2 -25 0 -25 6 0 7 -8 9 -20 5 -11 -3 -20 -2 -20 3 0 5 -10 8 -22 8
-13 -1 -27 0 -33 3 -13 7 -44 13 -72 14 -13 1 -23 3 -23 7 0 3 -12 6 -27 7
-25 1 -58 7 -73 13 -3 1 -9 2 -14 1 -4 -1 -15 4 -24 11 -13 11 -14 11 -7 -1 6
-11 5 -12 -6 -5 -8 5 -22 9 -31 10 -10 1 -20 3 -23 4 -3 1 -9 4 -15 5 -5 1
-11 4 -12 5 -4 4 -51 11 -75 12 -13 0 -23 4 -23 8 0 5 -9 7 -20 5 -11 -2 -20
1 -20 7 0 6 -3 8 -6 5 -4 -3 -16 -2 -27 4 -15 9 -18 8 -12 -2 6 -8 4 -10 -6
-3 -14 9 -34 14 -56 16 -7 1 -13 5 -13 9 0 4 -9 6 -20 4 -11 -2 -20 0 -20 5 0
5 -8 9 -17 8 -10 0 -29 3 -43 7 -14 4 -35 7 -48 6 -14 -1 -21 3 -16 10 4 8 -1
9 -15 4 -14 -4 -21 -2 -21 6 0 7 -3 9 -7 6 -3 -4 -13 -1 -21 6 -13 10 -14 9
-7 -3 8 -13 6 -13 -15 0 -14 9 -35 15 -47 14 -13 -1 -23 3 -23 8 0 6 -7 7 -16
4 -10 -4 -13 -2 -8 6 5 8 2 9 -9 5 -10 -3 -17 -3 -17 1 0 7 -18 11 -63 12 -9
1 -15 6 -11 12 4 6 -1 8 -16 3 -15 -5 -20 -3 -16 3 4 6 -1 11 -11 10 -27 0
-58 9 -93 27 -23 12 -30 13 -24 3 4 -7 -2 -4 -14 6 -12 11 -25 16 -29 13 -3
-4 -17 0 -31 9 -13 9 -21 11 -18 5 5 -7 1 -9 -8 -5 -9 3 -16 11 -16 17 0 6 -3
8 -6 4 -4 -3 -19 0 -35 9 -16 8 -29 12 -29 9 0 -3 -12 3 -27 12 -21 14 -25 15
-18 3 5 -9 0 -8 -13 4 -12 11 -25 16 -28 13 -4 -3 -13 1 -21 9 -8 8 -19 12
-24 9 -5 -4 -9 -1 -9 5 0 6 -5 8 -10 5 -6 -3 -10 -2 -10 4 0 6 -7 8 -15 5 -8
-4 -15 -1 -15 5 0 6 -7 8 -17 4 -10 -4 -14 -2 -10 4 4 6 0 14 -9 17 -10 4 -13
2 -9 -7 4 -6 1 -5 -7 4 -7 9 -19 14 -27 11 -8 -3 -11 0 -7 7 5 7 -1 11 -13 11
-12 0 -21 4 -21 10 0 5 -7 7 -15 4 -8 -4 -17 1 -21 10 -3 9 -15 16 -25 16 -10
0 -19 5 -19 11 0 5 -5 7 -11 3 -7 -4 -20 4 -31 17 -11 13 -17 17 -13 9 6 -13
5 -13 -7 0 -7 8 -20 16 -28 18 -8 2 -23 12 -33 23 -20 22 -31 25 -22 7 4 -7
-5 1 -19 19 -18 21 -32 30 -43 26 -11 -4 -14 -3 -9 5 4 7 1 12 -9 12 -9 0 -14
4 -11 9 3 5 -8 14 -24 20 -17 5 -30 13 -30 16 0 3 6 3 13 -1 9 -6 9 -4 -1 8
-15 18 -37 18 -55 -2 -9 -10 -9 -11 0 -6 9 5 11 2 7 -8 -3 -9 -11 -13 -16 -10
-6 4 -8 1 -6 -7 3 -8 -2 -23 -11 -33 -13 -16 -13 -18 -1 -11 8 4 4 -4 -10 -20
-14 -16 -18 -25 -10 -21 12 6 12 5 -1 -6 -9 -7 -14 -19 -11 -27 3 -8 0 -11 -6
-7 -6 3 -9 -1 -8 -11 2 -10 -4 -24 -13 -31 -13 -11 -13 -12 -1 -7 9 4 7 0 -4
-9 -10 -8 -15 -19 -11 -25 3 -6 1 -11 -6 -11 -7 0 -9 -3 -6 -7 4 -3 -1 -15
-10 -26 -10 -11 -12 -17 -6 -13 9 5 11 2 7 -8 -3 -8 -12 -17 -21 -20 -8 -4
-13 -13 -9 -21 3 -8 1 -15 -5 -15 -6 0 -7 -4 -4 -10 3 -5 1 -10 -5 -10 -6 0
-8 -4 -5 -10 3 -5 1 -10 -5 -10 -6 0 -9 -4 -5 -9 3 -5 1 -12 -5 -16 -6 -4 -8
-11 -4 -16 3 -6 -2 -17 -12 -25 -11 -9 -14 -13 -7 -10 8 5 8 0 0 -19 -7 -14
-16 -25 -20 -25 -5 0 -6 -4 -2 -9 3 -5 1 -12 -4 -16 -6 -3 -7 -13 -4 -22 4
-11 3 -14 -5 -9 -7 4 -12 1 -13 -6 -2 -31 -8 -51 -19 -58 -6 -4 -8 -14 -5 -22
4 -9 0 -18 -10 -22 -9 -3 -13 -11 -10 -17 4 -5 -1 -19 -10 -29 -9 -10 -17 -25
-19 -33 -1 -8 -7 -21 -12 -28 -21 -26 -28 -42 -16 -35 8 5 10 2 6 -8 -3 -9
-10 -16 -15 -16 -4 0 -6 -7 -3 -15 4 -8 2 -15 -4 -15 -5 0 -13 -7 -16 -16 -4
-10 -2 -13 7 -8 6 4 2 -3 -10 -15 -25 -24 -30 -36 -10 -25 6 4 3 -2 -7 -14
-11 -12 -16 -22 -11 -22 4 0 0 -12 -10 -26 -9 -15 -12 -23 -6 -20 6 4 0 -14
-15 -39 -14 -26 -20 -44 -12 -39 11 6 11 5 -1 -9 -7 -9 -10 -17 -5 -17 5 0 3
-4 -5 -9 -7 -5 -13 -20 -13 -35 0 -14 -4 -26 -8 -26 -4 0 -11 -7 -14 -16 -4
-10 -2 -13 7 -8 6 4 3 -3 -8 -16 -12 -14 -14 -20 -5 -15 11 6 10 3 -2 -11 -10
-11 -16 -30 -13 -42 2 -12 -1 -22 -6 -22 -6 0 -8 -4 -5 -9 3 -5 0 -21 -8 -36
-8 -15 -12 -34 -9 -43 5 -11 3 -13 -7 -7 -10 6 -12 4 -7 -8 3 -9 2 -19 -4 -23
-5 -3 -7 -14 -4 -25 4 -10 2 -19 -3 -19 -5 0 -8 -13 -7 -30 1 -16 -2 -30 -7
-30 -5 0 -7 -4 -3 -9 3 -5 1 -12 -5 -16 -6 -3 -8 -17 -6 -31 3 -13 0 -24 -5
-24 -5 0 -7 -13 -4 -29 3 -17 1 -32 -4 -36 -5 -3 -8 -17 -5 -30 2 -14 1 -25
-4 -25 -4 0 -7 -19 -7 -42 1 -24 -2 -47 -6 -53 -4 -5 -6 -23 -4 -40 1 -16 -3
-36 -9 -44 -9 -12 -8 -13 4 -6 12 7 13 6 4 -6 -12 -16 -7 -414 6 -414 1 0 3
-11 4 -25 0 -14 5 -31 10 -39 7 -11 6 -12 -5 -6 -12 8 -12 6 0 -8 7 -9 11 -24
7 -32 -3 -8 -1 -15 4 -15 5 0 7 -9 5 -20 -2 -11 0 -20 4 -20 5 0 7 -11 6 -25
-2 -14 2 -25 8 -25 5 0 7 -3 4 -7 -4 -3 -1 -13 6 -21 10 -13 9 -14 -3 -7 -13
8 -13 7 -1 -8 7 -9 10 -17 6 -17 -4 0 -2 -7 5 -15 7 -8 9 -15 5 -15 -4 0 0
-12 10 -26 11 -18 13 -24 4 -19 -8 5 -6 -1 4 -13 11 -11 16 -26 12 -31 -3 -6
-1 -11 5 -11 6 0 8 -5 5 -11 -4 -5 1 -20 12 -31 12 -14 13 -18 3 -13 -12 7
-13 6 -3 -7 7 -8 10 -18 6 -21 -3 -4 -1 -7 6 -7 7 0 9 -4 6 -10 -3 -5 -2 -10
3 -10 6 0 13 -7 16 -16 4 -10 2 -13 -7 -8 -6 4 -1 -5 13 -21 14 -16 18 -25 10
-21 -9 5 -8 2 2 -7 10 -8 15 -17 11 -20 -3 -4 0 -7 7 -7 7 0 10 -3 7 -7 -4 -3
-2 -12 4 -20 6 -7 8 -13 3 -13 -4 0 1 -7 12 -16 10 -8 13 -12 6 -9 -11 6 -12
3 -3 -14 7 -11 14 -21 17 -21 3 0 2 5 -1 10 -3 6 -4 10 -1 10 3 0 10 -10 17
-21 7 -15 8 -19 0 -15 -7 5 -9 1 -5 -8 3 -9 13 -16 21 -16 8 0 11 -5 7 -11 -4
-7 4 -20 17 -31 13 -11 17 -16 9 -12 -8 4 -5 -4 8 -18 12 -13 19 -28 15 -33
-5 -4 -3 -5 3 -2 11 6 29 -19 26 -35 -1 -5 4 -8 12 -8 8 0 18 -5 22 -12 4 -7
3 -8 -4 -4 -8 5 -10 2 -6 -8 3 -9 10 -13 15 -10 5 3 9 -2 9 -11 0 -8 7 -18 16
-22 8 -3 20 -17 25 -30 5 -15 14 -21 21 -17 8 5 9 2 5 -9 -4 -11 -1 -17 7 -17
7 0 20 -8 27 -17 13 -17 13 -17 -6 -3 -19 14 -19 14 -6 -2 7 -10 20 -18 28
-18 8 0 12 -3 10 -7 -4 -9 40 -53 46 -47 3 3 7 -2 11 -11 4 -11 2 -14 -6 -9
-7 4 -8 3 -4 -4 4 -7 13 -12 21 -12 8 0 17 -5 21 -12 5 -7 2 -8 -7 -3 -8 5
-11 4 -6 -1 5 -5 13 -10 18 -10 5 -1 14 -2 20 -3 5 0 8 -4 6 -8 -6 -10 19 -34
27 -26 3 4 6 -1 6 -11 0 -9 11 -21 25 -26 14 -5 25 -12 25 -15 0 -4 -6 -3 -12
1 -10 6 -9 3 0 -8 8 -10 21 -14 30 -11 9 3 14 2 10 -2 -5 -5 2 -13 15 -20 12
-6 21 -17 20 -23 -2 -7 6 -12 16 -12 11 0 23 -5 27 -12 4 -7 3 -8 -4 -4 -24
15 -11 -2 14 -19 15 -9 23 -11 19 -4 -5 8 -4 10 3 5 7 -4 12 -13 12 -21 0 -8
5 -17 12 -21 7 -5 8 -3 3 6 -5 7 3 5 17 -6 14 -10 23 -23 20 -29 -3 -5 -1 -7
3 -2 5 4 20 -3 33 -15 14 -13 22 -17 17 -9 -5 9 -4 12 3 7 7 -4 12 -14 12 -23
0 -9 6 -13 14 -10 8 3 17 -1 20 -9 3 -8 12 -14 19 -14 8 0 22 -10 31 -22 9
-13 14 -16 11 -8 -4 8 3 4 15 -10 12 -14 19 -19 15 -12 -6 11 -3 11 13 1 12
-7 19 -16 16 -20 -2 -4 3 -10 12 -13 10 -4 13 -2 9 7 -4 6 1 3 9 -7 9 -11 16
-16 16 -10 0 5 7 0 15 -10 8 -11 15 -16 15 -12 0 4 7 0 16 -8 8 -9 20 -14 25
-11 5 4 9 2 9 -2 0 -11 60 -47 60 -36 0 4 10 -3 21 -17 11 -14 17 -18 13 -10
-4 8 5 4 21 -10 16 -14 25 -18 21 -10 -5 9 -2 8 7 -2 8 -10 17 -15 21 -11 4 4
10 3 14 -2 11 -16 76 -59 67 -45 -6 9 -3 9 14 1 11 -7 21 -16 21 -22 0 -6 6
-9 13 -6 6 2 18 -3 25 -12 11 -13 12 -13 6 -1 -6 12 -4 12 12 -1 10 -9 25 -14
33 -11 8 2 11 0 7 -6 -3 -5 1 -13 10 -16 10 -4 13 -2 8 7 -4 6 2 4 13 -5 11
-10 26 -18 35 -18 8 0 23 -9 33 -20 10 -12 24 -19 30 -16 7 2 25 -4 40 -14 16
-11 32 -17 37 -14 4 3 8 0 8 -6 0 -6 5 -8 10 -5 5 3 10 1 10 -6 0 -7 3 -9 7
-6 3 4 15 -1 26 -10 15 -13 18 -14 12 -3 -7 12 -6 13 7 3 8 -7 19 -9 23 -5 5
4 5 1 1 -5 -7 -12 10 -18 42 -14 6 1 12 -3 12 -8 0 -6 10 -15 21 -22 17 -8 20
-8 14 1 -4 7 4 4 19 -5 14 -10 26 -14 26 -10 0 4 6 2 13 -4 8 -6 17 -8 20 -4
4 3 7 2 7 -4 0 -6 7 -14 16 -17 10 -4 13 -2 9 7 -4 6 1 3 9 -7 9 -11 16 -16
16 -12 0 5 8 2 17 -5 11 -9 14 -10 9 -2 -5 9 -2 11 8 7 9 -3 16 -11 16 -17 0
-6 3 -8 6 -5 3 4 17 0 31 -7 15 -8 30 -12 35 -9 4 3 8 1 8 -5 0 -6 7 -7 17 -4
12 5 14 3 8 -7 -5 -8 -3 -11 6 -8 7 2 24 -1 37 -8 14 -7 31 -10 38 -7 8 3 14
0 14 -7 0 -6 4 -9 9 -5 5 3 12 1 16 -5 4 -6 11 -8 16 -5 5 4 9 1 9 -5 0 -6 4
-9 8 -6 5 3 21 -1 36 -9 14 -8 24 -10 21 -5 -3 6 1 7 9 4 9 -3 16 -11 16 -17
0 -6 3 -7 7 -4 3 4 13 1 21 -6 13 -10 14 -9 7 3 -5 9 1 7 15 -5 13 -11 20 -14
15 -6 -5 9 1 7 19 -4 14 -10 26 -14 26 -10 0 4 6 2 13 -4 8 -6 17 -8 20 -4 4
3 7 1 7 -5 0 -6 10 -9 22 -7 12 3 30 -3 39 -11 10 -9 22 -13 28 -10 5 4 13 1
16 -5 4 -5 13 -8 21 -5 8 3 14 0 14 -6 0 -6 3 -8 7 -5 3 4 13 1 21 -6 13 -10
14 -9 7 3 -8 13 -7 13 9 1 10 -8 25 -16 34 -17 21 -3 57 -12 57 -14 0 -3 41
-11 58 -11 9 0 17 -4 17 -9 0 -5 9 -7 20 -5 11 2 20 -1 20 -6 0 -6 4 -7 10 -4
6 3 10 2 10 -4 0 -5 11 -8 25 -7 14 2 22 -1 18 -6 -3 -6 3 -7 16 -3 12 3 21 2
21 -4 0 -5 12 -8 26 -5 18 3 23 1 18 -7 -5 -9 -2 -10 9 -6 9 3 19 2 23 -4 3
-5 15 -7 26 -3 13 4 18 2 14 -4 -6 -11 1 -12 56 -13 16 -1 26 -5 23 -9 -3 -5
3 -9 12 -9 23 0 45 -5 59 -13 6 -4 21 -6 33 -3 11 2 21 -1 21 -6 0 -6 9 -8 19
-4 11 3 22 1 26 -5 3 -6 11 -8 16 -5 5 4 9 2 9 -2 0 -8 19 -12 73 -14 9 0 17
-5 17 -10 0 -6 9 -7 20 -4 11 3 20 2 20 -4 0 -5 9 -8 20 -6 11 2 22 0 25 -5 3
-5 17 -7 31 -4 18 3 23 1 18 -7 -5 -9 -1 -10 14 -7 12 4 24 2 27 -2 3 -5 16
-7 30 -6 13 2 22 -1 19 -6 -3 -5 6 -7 20 -4 14 3 26 1 26 -4 0 -4 8 -7 18 -5
9 1 23 -2 30 -8 6 -5 12 -6 12 -2 0 4 8 1 17 -6 15 -12 16 -12 8 1 -7 12 -6
13 6 4 8 -6 22 -10 32 -9 9 2 17 0 17 -5 0 -4 11 -6 25 -5 14 2 25 0 25 -5 0
-5 11 -7 25 -6 13 2 22 -1 19 -6 -3 -5 9 -6 26 -3 19 3 29 2 26 -4 -4 -5 6
-10 21 -11 66 -2 83 -5 83 -13 0 -4 9 -5 20 -2 11 3 20 2 20 -3 0 -6 11 -9 25
-7 14 1 25 -1 25 -5 0 -4 14 -6 31 -4 21 3 28 0 23 -8 -5 -8 -2 -9 10 -5 10 4
23 4 29 0 10 -6 36 -11 82 -16 11 -2 26 -7 34 -11 11 -7 12 -6 6 5 -7 11 -6
12 6 3 8 -6 22 -12 32 -13 9 -1 28 -2 42 -3 14 -1 25 -6 25 -11 0 -4 4 -5 10
-2 5 3 19 1 31 -6 17 -9 20 -8 13 3 -6 10 -5 11 7 2 8 -6 22 -10 32 -9 9 2 17
0 17 -4 0 -6 28 -10 102 -14 15 -1 25 -4 22 -8 -2 -4 9 -7 24 -7 30 -1 77 -8
77 -12 0 -1 11 -3 25 -4 14 0 30 -4 35 -7 6 -3 25 -5 43 -4 17 1 32 -2 32 -7
0 -5 14 -6 30 -3 17 3 30 1 30 -4 0 -5 16 -7 35 -5 19 1 37 -2 41 -7 3 -5 14
-7 25 -4 10 4 19 2 19 -2 0 -5 14 -8 30 -7 17 1 30 -1 30 -6 0 -4 15 -7 33 -7
44 0 90 -8 106 -18 10 -6 12 -4 6 6 -7 11 -6 12 6 3 8 -6 21 -12 29 -12 46 -3
87 -9 96 -14 5 -3 21 -4 37 -2 15 1 27 -1 27 -6 0 -5 13 -7 30 -5 16 2 32 0
35 -5 3 -5 21 -7 40 -6 19 2 37 0 40 -4 3 -5 15 -7 27 -5 12 3 28 -1 37 -8 12
-10 13 -9 6 3 -7 12 -6 13 7 3 8 -7 17 -10 21 -7 3 3 15 0 27 -6 18 -10 21 -9
15 1 -6 9 -4 10 6 3 8 -5 23 -9 34 -9 11 0 25 -4 31 -7 5 -4 19 -5 30 -4 10 2
25 -2 33 -8 12 -9 13 -8 6 4 -7 12 -6 13 6 4 8 -6 26 -10 42 -9 15 1 27 -2 27
-6 0 -4 16 -6 35 -5 19 2 35 1 35 -3 0 -4 18 -7 40 -6 23 1 43 -2 45 -5 2 -4
22 -6 45 -5 22 1 40 -1 40 -5 0 -4 18 -6 41 -6 22 1 43 -2 45 -6 2 -4 14 -5
26 -3 11 3 26 1 32 -3 6 -3 25 -7 41 -8 17 -1 32 -2 35 -4 3 -1 21 -3 40 -4
19 -1 41 -5 49 -10 11 -7 12 -6 6 5 -7 11 -6 12 6 3 8 -6 26 -10 42 -9 15 1
27 -1 27 -5 0 -4 18 -6 40 -5 23 1 43 -2 46 -6 2 -4 22 -6 44 -4 22 2 40 0 40
-4 0 -4 17 -8 38 -9 20 -1 60 -4 87 -7 28 -3 66 -7 85 -8 20 -2 42 -7 49 -12
10 -6 12 -4 6 5 -6 10 -4 11 6 4 8 -5 28 -9 44 -9 17 0 35 -4 41 -8 6 -3 22
-4 34 -2 13 3 28 1 34 -4 6 -4 32 -7 59 -6 26 0 47 -2 47 -5 0 -3 21 -6 48 -7
26 -1 67 -5 92 -8 25 -3 64 -6 88 -7 23 -2 42 -5 42 -9 0 -3 25 -5 55 -4 30 1
55 -1 55 -5 0 -3 21 -6 48 -8 111 -5 132 -7 132 -12 0 -5 28 -7 152 -13 32 -1
58 -5 58 -8 0 -4 20 -5 45 -4 25 1 48 -2 50 -6 3 -4 22 -6 42 -4 21 1 43 0 48
-3 6 -4 30 -7 55 -8 25 -1 45 -3 45 -4 0 -1 23 -3 50 -4 28 -1 57 -6 64 -11
10 -6 12 -4 6 5 -6 10 -4 11 6 4 8 -5 28 -9 44 -9 17 0 36 -5 44 -9 10 -7 12
-5 6 5 -7 11 -6 12 6 3 8 -6 33 -10 57 -9 23 2 42 0 42 -4 0 -4 19 -6 43 -6
51 2 67 -3 67 -20 0 -7 -6 -15 -12 -17 -24 -8 -233 -3 -247 6 -11 7 -12 6 -6
-5 7 -11 6 -12 -6 -3 -9 6 -69 10 -159 9 -80 -1 -153 3 -164 8 -14 7 -17 6
-10 -5 6 -10 5 -11 -7 -2 -8 6 -68 10 -151 9 -76 0 -138 2 -138 5 0 3 -61 6
-136 5 -75 0 -137 2 -139 5 -2 3 -55 5 -119 5 -64 0 -116 2 -116 5 0 3 -51 6
-113 7 -208 5 -302 9 -312 14 -6 3 -49 5 -97 4 -49 0 -88 2 -88 5 0 3 -42 6
-94 5 -52 0 -93 2 -91 5 2 3 -33 7 -78 8 -45 1 -120 4 -167 7 -47 3 -118 6
-157 7 -40 1 -73 5 -73 8 0 4 -32 6 -70 5 -39 -1 -73 1 -75 4 -2 4 -32 6 -67
6 -35 -1 -67 1 -73 4 -5 3 -39 6 -75 6 -36 0 -69 3 -75 7 -5 3 -36 4 -67 3
-32 -1 -56 1 -53 5 2 4 -23 6 -56 5 -33 -1 -62 1 -64 5 -2 3 -31 6 -64 5 -33
-1 -58 2 -55 6 2 4 -21 6 -51 5 -31 -2 -58 0 -60 5 -3 4 -30 6 -60 4 -30 -2
-55 0 -55 4 0 4 -22 7 -50 6 -27 -1 -50 1 -50 5 0 4 -25 7 -55 5 -31 -1 -58 1
-60 5 -3 4 -27 6 -55 5 -27 -1 -50 1 -50 5 0 3 -21 6 -46 5 -25 0 -47 2 -49 6
-3 3 -25 6 -49 4 -25 -1 -43 2 -41 6 3 4 -18 6 -45 4 -28 -2 -52 1 -55 5 -2 4
-22 6 -45 5 -22 -1 -40 1 -40 5 0 4 -20 6 -45 5 -25 -1 -45 1 -45 4 0 7 -17 8
-137 13 -24 1 -43 5 -43 9 0 3 -15 5 -32 4 -18 -1 -37 1 -43 4 -5 3 -26 7 -45
8 -19 1 -53 5 -75 8 -54 8 -122 15 -167 17 -21 2 -38 6 -38 10 0 5 -11 6 -25
4 -13 -3 -27 -1 -30 4 -3 5 -18 7 -33 6 -15 -2 -31 -1 -37 2 -9 6 -79 13 -132
14 -13 0 -23 4 -23 8 0 5 -18 7 -40 5 -22 -2 -38 0 -36 3 2 4 -8 8 -22 9 -15
2 -45 4 -67 6 -22 2 -46 6 -53 11 -7 4 -21 4 -32 1 -11 -4 -20 -2 -20 3 0 5
-12 8 -27 7 -16 -1 -33 2 -38 6 -6 4 -20 6 -30 5 -11 -2 -26 2 -34 8 -12 9
-13 8 -6 -3 6 -11 5 -12 -6 -5 -8 5 -23 9 -34 9 -11 0 -25 4 -31 8 -6 3 -21 5
-33 2 -11 -2 -21 -1 -21 3 0 7 -21 10 -87 14 -13 1 -23 5 -23 9 0 4 -16 5 -35
3 -20 -1 -33 1 -31 5 3 4 -7 7 -22 6 -15 -1 -31 1 -37 4 -5 3 -17 6 -25 6 -8
0 -21 4 -29 9 -10 7 -12 6 -6 -4 6 -10 4 -11 -6 -4 -8 4 -18 9 -24 10 -5 1
-26 5 -45 9 -19 3 -42 7 -50 9 -9 1 -22 6 -29 11 -10 6 -12 4 -6 -6 7 -12 6
-12 -7 -1 -8 7 -23 10 -32 6 -9 -3 -16 -1 -16 4 0 6 -13 9 -30 7 -16 -2 -30 1
-30 7 0 5 -6 8 -14 5 -7 -3 -19 0 -26 6 -10 9 -11 9 -5 -3 7 -12 6 -13 -6 -4
-8 6 -22 10 -32 9 -9 -2 -17 1 -17 6 0 5 -11 7 -25 5 -14 -3 -25 0 -25 5 0 6
-4 7 -10 4 -5 -3 -19 -1 -31 6 -17 9 -20 8 -13 -3 6 -11 5 -11 -8 0 -8 7 -24
9 -33 5 -14 -5 -16 -3 -10 7 6 10 2 11 -18 6 -14 -3 -28 -2 -32 3 -3 5 -17 8
-31 5 -18 -3 -23 -1 -18 7 5 9 0 10 -20 5 -14 -3 -26 -2 -26 3 0 5 -11 8 -25
7 -13 -2 -22 1 -19 6 3 5 -6 7 -20 4 -14 -3 -28 -1 -31 4 -3 4 -16 7 -30 5
-14 -1 -28 2 -31 7 -3 5 -12 7 -20 4 -8 -3 -14 -1 -14 5 0 5 -11 7 -25 5 -14
-3 -25 0 -25 6 0 5 -7 8 -15 4 -8 -3 -15 -1 -15 4 0 5 -14 7 -30 5 -21 -3 -28
-1 -24 7 5 8 0 9 -16 5 -13 -3 -30 -1 -37 5 -7 6 -13 7 -13 3 0 -4 -8 -1 -17
6 -15 12 -16 12 -8 -1 8 -13 6 -13 -8 -2 -9 8 -21 11 -27 7 -5 -3 -10 -1 -10
6 0 7 -3 9 -7 6 -3 -4 -13 -1 -21 6 -13 10 -14 9 -8 -1 6 -10 -1 -9 -24 3 -23
12 -30 13 -25 3 6 -10 5 -10 -5 -1 -7 6 -19 9 -28 6 -11 -5 -13 -3 -7 6 5 10
2 11 -14 6 -12 -3 -21 -2 -21 4 0 5 -9 8 -20 6 -11 -2 -20 0 -20 5 0 5 -9 7
-20 5 -11 -2 -20 0 -20 5 0 5 -12 7 -26 4 -18 -3 -23 -1 -18 7 5 8 2 10 -8 6
-9 -3 -21 0 -28 6 -10 9 -11 9 -5 -3 7 -12 6 -13 -6 -3 -13 10 -33 16 -96 27
-7 1 -15 5 -19 8 -3 4 -12 4 -20 1 -8 -3 -14 0 -14 7 0 7 -8 9 -20 5 -12 -4
-20 -2 -20 5 0 7 -8 9 -20 5 -13 -4 -20 -2 -20 6 0 7 -3 9 -7 6 -3 -4 -13 -1
-21 6 -13 10 -14 9 -7 -2 6 -11 5 -12 -6 -5 -8 5 -17 9 -21 10 -5 1 -10 3 -13
4 -3 1 -9 4 -15 5 -5 1 -11 3 -12 4 -2 2 -14 5 -28 8 -38 7 -55 11 -57 13 -2
2 -6 3 -10 4 -5 1 -13 5 -20 9 -6 4 -19 4 -29 0 -13 -5 -15 -3 -9 7 6 10 3 12
-13 8 -12 -4 -25 -2 -28 3 -3 5 -9 7 -14 4 -5 -3 -11 -1 -15 4 -3 6 -12 8 -20
4 -8 -3 -15 0 -15 7 0 7 -7 10 -15 7 -8 -4 -17 -2 -20 4 -4 5 -12 8 -18 7 -7
-1 -23 4 -36 11 -19 11 -22 11 -15 -1 6 -10 5 -11 -8 -1 -8 7 -18 10 -21 6 -4
-3 -7 -1 -7 5 0 6 -9 9 -20 7 -11 -2 -20 0 -20 5 0 4 -7 11 -16 14 -9 4 -13 2
-8 -5 3 -6 -5 -4 -18 5 -14 9 -28 13 -31 9 -4 -3 -7 -1 -7 6 0 7 -6 11 -14 8
-7 -3 -19 0 -26 6 -10 9 -11 9 -5 -3 7 -12 6 -13 -7 -3 -8 7 -18 10 -21 6 -4
-3 -7 -2 -7 4 0 6 -7 14 -16 17 -10 4 -13 2 -8 -7 4 -6 -3 -3 -16 8 -14 12
-20 14 -15 5 6 -10 1 -9 -13 3 -11 11 -26 16 -31 12 -6 -3 -11 -1 -11 5 0 6
-5 8 -10 5 -6 -4 -17 -1 -25 5 -8 7 -15 9 -15 5 0 -4 -8 -1 -17 6 -15 12 -16
12 -8 -1 5 -10 1 -8 -13 4 -12 10 -28 16 -37 13 -8 -4 -15 -2 -15 4 0 6 -4 8
-9 4 -5 -3 -12 -1 -16 5 -4 6 -11 8 -16 5 -5 -4 -9 -2 -9 3 0 5 -7 9 -15 10
-8 1 -22 3 -30 4 -8 1 -15 5 -15 10 0 5 -5 6 -10 3 -6 -3 -10 -1 -10 6 0 7 -3
9 -7 6 -3 -4 -13 -1 -21 6 -13 10 -14 9 -7 -3 5 -9 -1 -7 -15 5 -14 12 -20 14
-15 5 7 -12 6 -13 -7 -3 -8 7 -18 10 -21 6 -4 -3 -7 -1 -7 6 0 8 -6 11 -16 7
-9 -4 -13 -2 -8 5 4 8 -1 9 -15 4 -14 -4 -23 -2 -26 8 -6 13 -17 17 -58 18
-10 0 -15 5 -11 11 5 7 1 9 -9 5 -10 -4 -17 -1 -17 5 0 6 -3 9 -6 5 -4 -3 -18
0 -33 7 -14 7 -32 11 -40 8 -9 -3 -11 0 -6 8 6 10 4 12 -8 7 -10 -3 -17 -2
-17 4 0 6 -4 8 -9 4 -5 -3 -12 -1 -16 5 -4 6 -11 8 -16 4 -6 -3 -18 1 -27 8
-27 24 -46 33 -37 19 4 -8 -2 -7 -17 3 -14 9 -28 13 -31 9 -4 -3 -7 -1 -7 6 0
8 -6 11 -16 7 -8 -3 -13 -2 -10 3 3 5 -1 12 -10 15 -10 4 -13 2 -8 -7 4 -6 -3
-3 -16 8 -13 11 -20 14 -16 8 5 -9 2 -11 -8 -7 -9 3 -13 11 -10 16 4 6 1 8 -7
6 -8 -3 -23 2 -33 11 -16 13 -18 13 -11 1 7 -12 5 -12 -11 1 -29 24 -48 34
-40 21 5 -8 2 -10 -8 -6 -9 3 -13 11 -9 17 4 6 1 7 -7 2 -7 -4 -15 -3 -19 2
-3 6 -16 13 -28 17 -18 6 -21 4 -18 -13 2 -11 0 -23 -5 -26 -4 -3 -7 -16 -5
-30 1 -14 -1 -25 -5 -25 -4 0 -6 -14 -5 -30 1 -17 -1 -33 -6 -36 -5 -3 -7 -18
-4 -35 3 -16 1 -29 -4 -29 -6 0 -8 -16 -6 -36 3 -19 1 -33 -4 -30 -5 3 -8 -12
-6 -34 1 -22 -1 -40 -6 -40 -5 0 -7 -10 -5 -22 2 -13 -2 -29 -8 -37 -9 -12 -8
-13 3 -6 11 6 12 5 5 -6 -9 -15 -13 -41 -17 -101 -1 -20 -5 -34 -8 -32 -4 2
-6 -11 -5 -29 2 -17 -2 -38 -8 -46 -9 -12 -8 -13 3 -6 11 6 12 5 5 -6 -5 -8
-9 -23 -9 -34 0 -11 -4 -25 -7 -30 -3 -6 -5 -27 -3 -48 2 -20 0 -37 -5 -37 -5
0 -7 -16 -6 -35 2 -19 0 -37 -4 -40 -4 -2 -6 -19 -5 -37 1 -18 -3 -39 -9 -47
-9 -12 -8 -13 4 -6 12 7 13 6 4 -6 -6 -8 -10 -29 -9 -46 1 -18 -1 -33 -5 -33
-3 0 -5 -15 -5 -32 1 -18 -2 -41 -8 -52 -7 -14 -6 -17 5 -10 10 6 11 5 2 -7
-6 -8 -10 -31 -9 -51 1 -21 -1 -38 -5 -38 -4 0 -6 -20 -5 -46 1 -25 -2 -47 -5
-49 -4 -2 -6 -27 -5 -54 1 -28 -1 -48 -6 -46 -4 3 -6 -20 -4 -50 1 -30 -1 -55
-5 -55 -4 0 -7 -25 -5 -55 1 -30 -1 -55 -4 -55 -4 0 -6 -26 -6 -57 1 -32 -2
-62 -5 -68 -4 -5 -6 -32 -5 -60 1 -27 -3 -56 -9 -64 -9 -12 -8 -13 4 -6 12 7
13 6 4 -6 -6 -8 -10 -40 -9 -71 1 -32 -1 -58 -4 -58 -4 0 -7 -30 -6 -67 1 -38
-3 -74 -9 -82 -9 -12 -8 -13 4 -6 12 7 13 6 4 -6 -6 -8 -10 -47 -9 -86 1 -40
-1 -73 -5 -73 -3 0 -6 -43 -5 -95 0 -52 -2 -95 -5 -95 -3 0 -5 -50 -5 -111 0
-61 -2 -112 -5 -114 -3 -2 -5 -69 -5 -149 0 -80 -2 -146 -5 -146 -3 0 -5 -97
-5 -215 0 -118 3 -215 8 -215 4 0 6 -4 3 -8 -2 -4 4 -14 16 -21 16 -10 19 -10
12 1 -4 7 9 -2 29 -20 40 -34 53 -40 41 -20 -4 7 4 3 18 -10 13 -12 32 -22 41
-22 9 0 17 -4 17 -10 0 -5 10 -14 21 -21 16 -8 20 -8 14 1 -6 9 -2 9 14 1 11
-7 21 -17 21 -23 0 -6 3 -8 7 -5 3 4 15 -1 26 -10 15 -13 18 -14 13 -3 -4 8 1
6 11 -6 10 -11 25 -18 32 -16 9 3 11 0 6 -8 -6 -10 -4 -12 8 -7 10 4 20 0 26
-11 6 -9 11 -13 11 -8 0 5 10 1 22 -10 14 -13 19 -14 14 -4 -4 8 -1 7 8 -4 8
-10 19 -15 25 -12 5 4 12 2 16 -4 4 -6 11 -8 16 -5 5 4 9 1 9 -5 0 -6 4 -9 9
-6 5 3 12 -1 15 -10 3 -8 11 -12 17 -9 6 4 21 -3 34 -15 13 -12 28 -19 34 -15
6 3 11 2 11 -3 0 -6 7 -13 16 -16 10 -4 13 -2 9 7 -4 6 0 4 8 -5 8 -10 17 -15
20 -11 4 3 7 1 7 -6 0 -7 4 -10 9 -6 5 3 12 1 16 -5 4 -6 11 -8 16 -5 5 4 9 1
9 -5 0 -6 5 -8 11 -5 5 4 19 -1 29 -10 10 -9 25 -17 33 -19 8 -1 22 -8 31 -15
8 -7 20 -10 26 -6 5 3 10 1 10 -5 0 -6 5 -8 10 -5 6 3 17 -1 26 -9 9 -9 20
-14 25 -11 5 4 9 2 9 -4 0 -6 7 -7 17 -4 10 4 14 2 9 -5 -4 -7 1 -10 13 -7 11
2 22 -3 25 -11 3 -9 14 -14 23 -12 10 2 24 -3 31 -12 8 -9 11 -9 7 -1 -5 9 1
7 19 -4 15 -10 29 -15 33 -12 3 4 12 -1 20 -11 8 -9 11 -11 8 -3 -6 9 -1 9 17
-3 14 -9 28 -13 31 -9 4 3 7 1 7 -6 0 -8 7 -11 15 -7 8 3 15 1 15 -5 0 -6 5
-7 10 -4 5 3 10 1 10 -6 0 -7 3 -9 7 -6 3 4 13 1 21 -6 13 -10 14 -9 8 2 -6 9
-1 8 16 -3 14 -9 28 -13 31 -9 4 3 7 1 7 -6 0 -7 4 -9 10 -6 5 3 10 2 10 -4 0
-5 9 -8 20 -6 11 2 20 0 20 -5 0 -4 7 -11 16 -14 10 -4 13 -2 8 7 -6 9 -5 9 8
0 8 -7 18 -10 21 -6 4 3 7 1 7 -6 0 -7 4 -9 10 -6 5 3 10 1 10 -5 0 -7 6 -10
14 -7 7 3 24 -2 37 -10 17 -13 20 -13 14 -2 -7 11 -6 12 7 2 8 -7 18 -10 21
-6 4 3 7 2 7 -4 0 -6 7 -14 16 -17 10 -4 13 -2 8 7 -6 9 -5 9 8 0 8 -7 18 -10
21 -6 4 3 7 2 7 -4 0 -6 7 -14 16 -17 10 -4 13 -2 8 7 -6 9 -5 9 8 0 8 -7 18
-10 21 -6 4 3 7 1 7 -6 0 -8 7 -10 20 -6 13 4 20 2 20 -6 0 -7 3 -9 7 -6 3 4
17 0 31 -9 13 -9 21 -11 17 -4 -4 7 5 4 21 -6 21 -14 26 -15 19 -4 -6 10 -2
10 12 -3 12 -11 27 -15 38 -11 14 6 16 4 10 -6 -6 -10 -3 -12 13 -8 12 4 25 2
28 -3 3 -5 10 -7 15 -4 5 4 9 2 9 -4 0 -5 9 -8 20 -6 11 2 20 -1 20 -7 0 -6 3
-8 7 -5 3 4 13 1 21 -6 13 -10 14 -9 8 1 -7 12 -4 12 15 1 13 -7 28 -12 33
-11 4 2 14 -3 22 -9 8 -6 14 -8 14 -4 0 4 7 2 15 -5 8 -6 19 -9 24 -6 5 4 13
1 16 -5 4 -5 13 -8 21 -5 7 3 16 1 20 -5 3 -6 12 -8 19 -5 7 2 18 -1 24 -7 6
-6 11 -7 11 -3 0 5 8 2 17 -5 15 -12 16 -12 8 1 -8 13 -7 13 8 1 9 -7 17 -10
17 -6 0 4 6 3 12 -2 7 -6 21 -9 31 -8 9 2 17 -1 17 -5 0 -5 9 -7 20 -5 11 2
20 -1 20 -7 0 -5 7 -8 15 -4 8 3 15 2 15 -2 0 -4 14 -8 31 -9 17 -1 36 -6 43
-11 6 -4 21 -7 33 -6 13 0 23 -3 23 -8 0 -5 5 -6 10 -3 6 4 16 2 23 -3 11 -9
27 -12 70 -13 9 0 17 -4 17 -9 0 -4 11 -7 25 -5 14 1 25 -1 25 -5 0 -5 8 -7
18 -5 9 1 23 -2 29 -8 7 -5 13 -6 13 -3 0 4 10 2 21 -5 17 -9 20 -8 14 2 -6 8
-4 10 6 3 18 -11 38 -16 66 -16 13 0 20 -5 17 -10 -4 -6 2 -8 15 -3 13 4 21 2
21 -5 0 -7 7 -9 16 -6 9 4 24 1 32 -6 13 -11 14 -11 7 1 -6 11 -5 12 6 5 18
-11 38 -16 71 -16 15 0 25 -4 22 -10 -3 -5 6 -7 20 -4 14 3 28 1 31 -4 3 -4
16 -7 30 -5 14 1 28 -2 31 -7 3 -5 12 -7 20 -4 7 3 16 1 19 -3 2 -5 18 -7 35
-6 16 1 30 -2 30 -7 0 -6 6 -8 14 -5 7 3 19 0 26 -6 10 -9 11 -9 5 3 -7 12 -6
13 6 4 8 -6 22 -10 31 -9 10 2 18 -1 18 -5 0 -5 9 -7 20 -5 11 2 22 0 25 -4 2
-5 16 -7 30 -6 14 2 27 0 30 -5 2 -4 18 -6 35 -5 16 1 30 -1 30 -5 0 -7 22
-10 83 -12 15 0 27 -4 27 -9 0 -4 16 -6 36 -4 19 3 33 1 30 -3 -3 -5 9 -8 27
-7 18 1 38 -3 45 -8 7 -6 15 -7 19 -4 3 4 13 1 21 -6 13 -10 14 -9 7 3 -8 13
-7 13 8 1 10 -8 20 -11 24 -8 3 4 13 1 21 -6 13 -10 14 -9 7 2 -6 11 -5 12 6
5 8 -5 25 -10 39 -11 53 -5 75 -9 85 -14 6 -4 24 -5 42 -4 18 1 30 -2 27 -6
-3 -5 14 -6 36 -4 22 2 39 1 36 -3 -4 -6 20 -10 111 -15 18 -1 33 -5 33 -8 0
-4 15 -6 33 -6 39 1 91 -8 108 -19 8 -5 10 -3 4 7 -7 11 -6 12 6 3 8 -6 25
-10 39 -9 14 1 30 -1 35 -4 6 -4 27 -7 48 -6 20 0 37 -2 37 -5 0 -3 17 -5 38
-5 20 1 42 -2 47 -6 6 -3 21 -5 35 -4 14 1 30 0 35 -4 6 -3 28 -6 50 -8 22 -1
63 -5 90 -8 28 -4 66 -8 85 -9 19 -1 40 -4 45 -8 6 -3 29 -5 53 -3 23 1 45 -2
48 -6 2 -4 22 -6 44 -4 22 2 42 0 44 -4 3 -4 22 -7 43 -6 21 1 44 -3 52 -9 12
-9 13 -8 6 4 -7 12 -6 13 6 4 8 -6 35 -10 61 -9 26 1 45 -2 42 -6 -3 -5 17 -6
43 -4 28 2 53 -1 62 -8 12 -10 13 -9 6 3 -7 12 -6 13 6 4 8 -6 30 -10 49 -9
19 1 40 -1 45 -4 6 -3 37 -6 70 -7 33 -1 60 -3 60 -4 0 -1 27 -4 60 -6 108 -6
180 -12 180 -14 0 -2 34 -4 75 -6 169 -8 196 -10 209 -19 10 -6 12 -4 6 5 -6
10 -4 11 6 4 8 -5 43 -10 79 -11 188 -7 216 -9 229 -17 10 -7 12 -5 6 5 -7 11
-6 12 6 3 8 -6 51 -10 97 -9 45 0 82 -2 82 -5 0 -3 43 -5 95 -5 52 1 95 -2 95
-5 0 -3 48 -6 106 -5 58 0 107 -2 109 -5 2 -3 60 -5 129 -5 69 0 126 -2 126
-5 0 -5 90 -7 477 -13 101 -1 183 -4 183 -7 0 -3 134 -5 298 -5 163 1 302 -1
307 -4 13 -7 1146 -8 1150 -1 2 3 149 5 327 4 177 0 328 2 333 5 6 3 107 7
225 8 495 7 550 8 550 13 0 3 66 6 148 8 341 5 422 7 422 12 0 3 51 5 113 4
66 0 118 4 126 10 12 9 13 8 7 -2 -7 -11 -4 -12 10 -5 11 5 65 9 122 9 56 -1
102 1 102 4 0 3 50 5 110 5 61 0 110 2 110 5 0 3 45 5 101 5 55 0 102 2 104 5
2 4 45 6 94 5 50 -1 91 1 91 5 0 3 42 7 93 8 50 1 136 3 190 4 53 2 97 5 97 8
0 3 35 5 78 5 42 -1 82 1 87 4 6 3 42 6 80 6 39 0 76 4 84 9 10 7 12 6 6 -4
-6 -9 -4 -11 6 -4 13 8 72 12 252 17 42 1 77 4 77 7 0 3 34 5 75 5 41 -1 75 2
75 5 0 3 36 6 80 5 44 -1 80 2 80 5 0 4 32 6 70 5 39 -1 73 1 75 5 2 3 35 5
74 5 39 0 71 2 71 5 0 3 28 5 63 4 34 0 67 2 72 5 6 3 36 6 68 7 31 1 58 3 60
4 1 1 38 4 82 5 44 1 80 4 80 5 0 2 27 4 185 13 30 1 61 6 69 11 10 7 12 6 6
-4 -6 -10 -4 -11 6 -4 8 5 34 9 59 9 25 0 51 4 59 9 11 7 12 6 6 -5 -7 -11 -6
-12 6 -3 8 6 38 10 67 9 28 -2 52 0 52 3 0 4 30 8 68 9 87 3 187 10 187 13 0
2 44 5 195 14 30 2 57 4 60 6 3 1 30 4 60 5 30 1 56 4 58 5 1 1 23 3 50 4 26
1 53 5 61 10 11 7 12 6 6 -5 -7 -11 -6 -12 6 -3 8 6 38 10 67 9 28 -1 52 2 52
5 0 4 25 6 54 5 30 -1 53 2 51 6 -3 3 22 5 55 4 33 -2 62 0 65 4 2 4 29 7 60
6 30 -1 55 1 55 6 0 4 22 6 50 4 27 -2 52 0 54 4 3 4 30 7 60 6 31 -1 56 1 56
4 0 4 28 7 63 9 148 6 167 7 167 12 0 3 21 6 48 7 26 1 59 4 75 7 15 2 27 1
27 -3 0 -10 92 -7 109 3 11 7 12 6 6 -5 -7 -11 -6 -12 6 -3 8 6 24 10 37 8 12
-2 22 1 22 6 0 6 5 9 12 7 9 -1 12 108 13 473 0 261 3 480 6 485 3 6 5 115 5
243 -1 127 1 232 4 232 3 0 5 79 5 175 0 96 2 175 5 175 3 0 6 62 8 137 5 295
7 378 13 388 3 6 5 58 5 117 -1 58 1 105 4 103 3 -2 5 38 5 88 -1 51 1 97 4
102 3 6 7 46 8 90 7 198 9 231 17 244 7 11 6 12 -5 6 -11 -7 -12 -6 -3 6 6 8
10 45 10 82 -1 38 1 70 5 73 4 2 6 25 4 51 -1 27 0 53 3 58 4 6 7 35 7 65 0
30 4 61 9 69 7 10 6 12 -4 6 -10 -6 -11 -4 -4 6 5 8 9 37 10 64 1 28 3 52 4
55 2 5 7 59 13 155 1 28 6 56 11 64 7 11 6 12 -5 6 -11 -7 -12 -6 -3 6 6 8 10
33 9 57 -1 23 1 42 5 42 3 0 6 19 5 43 -1 23 4 48 9 56 9 12 8 13 -4 6 -12 -7
-13 -6 -4 6 7 8 10 31 9 52 -2 20 0 35 5 32 4 -3 8 14 8 38 2 74 7 122 16 136
7 10 5 12 -3 6 -10 -6 -11 -3 -2 12 5 11 8 32 5 47 -2 14 0 26 5 26 4 0 7 18
6 40 -2 22 0 40 5 40 4 0 6 17 5 38 -1 20 0 42 4 47 3 6 6 21 6 35 0 14 5 31
9 39 7 10 6 12 -4 6 -10 -6 -11 -4 -4 6 5 8 9 22 10 32 1 9 3 19 4 22 1 3 3
17 4 33 1 15 4 32 8 37 3 6 5 25 3 43 -1 17 1 32 4 32 4 0 7 18 6 40 -1 22 2
40 6 40 3 0 5 14 4 30 -1 17 1 30 6 30 5 0 7 14 5 30 -2 17 0 30 4 30 5 0 7 8
5 18 -1 9 0 22 4 27 3 6 7 21 8 35 3 45 9 76 18 89 6 10 4 12 -6 6 -11 -7 -12
-6 -3 6 6 8 10 22 9 32 -2 9 1 17 5 17 5 0 7 9 5 20 -2 11 0 22 5 25 5 3 7 15
5 27 -3 12 1 28 8 37 10 12 9 13 -2 6 -11 -6 -12 -5 -5 6 9 15 14 32 17 64 2
11 6 26 11 33 4 7 5 16 2 19 -3 3 0 13 7 21 10 13 9 14 -3 7 -12 -6 -12 -5 -3
5 6 7 9 19 6 28 -4 10 -2 13 6 8 8 -5 10 0 7 18 -3 14 -1 26 4 26 4 0 7 8 5
18 -1 9 3 23 9 31 9 12 8 13 -4 6 -13 -7 -13 -6 -2 7 7 9 12 20 11 24 -1 5 0
11 1 14 5 14 12 48 13 68 0 12 5 22 10 22 5 0 7 7 3 15 -3 8 -1 15 4 15 5 0 7
11 4 24 -2 14 0 28 6 31 6 4 8 11 5 16 -4 5 -2 9 3 9 5 0 8 11 7 25 -2 14 1
25 7 25 6 0 8 7 5 15 -4 8 -2 17 4 21 5 3 7 14 4 24 -3 10 -1 21 5 25 6 3 8
11 5 16 -4 5 -1 9 5 9 6 0 9 4 5 9 -3 5 -1 12 4 16 5 3 10 14 10 25 1 11 1 29
2 40 0 11 4 20 9 20 4 0 11 7 14 16 4 10 2 13 -7 8 -8 -5 -7 -2 2 9 7 9 10 17
6 17 -4 0 -2 6 4 13 6 8 8 17 4 20 -3 4 -1 7 6 7 7 0 9 5 6 10 -4 6 -1 17 5
25 7 8 10 15 6 15 -3 0 1 16 9 36 8 20 13 40 10 44 -3 5 3 13 12 19 10 5 15
13 11 17 -5 4 -2 14 5 22 10 13 9 14 -3 7 -11 -6 -10 -3 3 12 9 11 14 23 10
26 -3 4 -1 7 5 7 6 0 9 6 6 14 -3 8 0 17 5 21 6 3 9 10 6 15 -3 4 2 13 10 20
7 6 11 19 8 27 -4 9 0 21 8 27 8 6 15 20 17 30 4 24 29 49 41 42 9 -6 9 -65
-1 -82 -3 -5 -5 -21 -3 -36 2 -16 0 -28 -5 -28 -4 0 -8 -10 -9 -22 -3 -71 -6
-98 -12 -98 -4 0 -6 -8 -4 -17 1 -10 -3 -24 -9 -32 -9 -12 -8 -13 4 -6 13 7
13 6 2 -7 -7 -8 -10 -23 -6 -32 3 -9 2 -16 -4 -16 -5 0 -8 -16 -6 -35 1 -19
-1 -37 -6 -40 -5 -3 -7 -17 -4 -30 2 -14 0 -25 -5 -25 -5 0 -7 -14 -6 -30 1
-17 -1 -33 -6 -35 -4 -3 -6 -21 -5 -40 2 -19 1 -37 -3 -40 -4 -2 -7 -20 -6
-39 1 -20 -1 -36 -5 -36 -4 0 -6 -18 -5 -40 1 -22 -1 -40 -5 -40 -4 0 -7 -16
-5 -35 1 -20 -1 -38 -5 -40 -4 -3 -7 -19 -6 -37 2 -18 -2 -39 -8 -47 -9 -12
-8 -13 4 -6 12 7 13 6 4 -6 -6 -8 -10 -26 -9 -41 1 -16 -2 -28 -6 -28 -5 0 -6
-18 -4 -40 2 -22 1 -42 -4 -44 -4 -3 -7 -28 -6 -55 1 -28 -2 -51 -5 -51 -4 0
-6 -23 -6 -51 1 -28 -1 -52 -5 -55 -5 -2 -6 -20 -5 -39 2 -19 1 -35 -3 -35 -4
0 -6 -25 -6 -55 1 -30 -2 -55 -6 -55 -3 0 -6 -19 -4 -42 1 -24 -3 -49 -9 -57
-9 -12 -8 -13 3 -6 11 6 12 5 5 -6 -9 -14 -12 -49 -17 -161 -1 -32 -4 -58 -7
-58 -3 0 -5 -29 -5 -65 1 -36 -1 -65 -5 -65 -3 0 -7 -24 -8 -52 -5 -135 -8
-174 -13 -183 -3 -5 -5 -40 -4 -77 0 -38 -2 -68 -5 -68 -3 0 -6 -34 -5 -75 0
-41 -2 -75 -5 -75 -4 0 -6 -38 -5 -84 0 -47 -2 -83 -6 -81 -3 3 -5 -30 -4 -73
1 -42 -1 -81 -4 -87 -5 -10 -10 -110 -14 -297 -1 -54 -4 -98 -7 -98 -3 0 -5
-54 -5 -119 0 -66 -2 -118 -5 -116 -3 2 -6 -63 -5 -146 1 -82 -1 -149 -5 -149
-3 0 -5 -89 -4 -197 0 -109 -2 -202 -5 -208 -11 -20 -8 -889 3 -904 9 -12 8
-13 -2 -7 -11 7 -12 4 -5 -10 5 -11 9 -84 8 -164 -1 -90 3 -150 9 -159 9 -12
8 -13 -4 -6 -12 7 -13 6 -4 -6 6 -8 10 -54 9 -107 0 -51 2 -95 5 -97 4 -2 6
-32 5 -67 -1 -35 2 -71 7 -82 8 -14 7 -17 -3 -11 -8 6 -10 4 -4 -5 8 -12 14
-87 17 -197 1 -29 5 -53 8 -53 3 0 7 -21 8 -47 5 -117 7 -143 12 -143 3 0 6
-12 7 -28 1 -15 3 -46 5 -69 2 -24 6 -43 9 -43 3 0 5 -16 4 -35 -1 -19 1 -35
5 -35 4 0 6 -13 5 -30 -1 -16 0 -30 4 -30 6 0 10 -17 13 -57 1 -7 4 -13 8 -13
4 0 7 -6 7 -12 1 -25 8 -43 23 -56 13 -12 13 -13 0 -6 -11 6 -10 2 3 -13 9
-11 14 -23 10 -28 -5 -4 -3 -5 4 -2 6 4 15 -5 22 -23 5 -17 15 -30 20 -30 6 0
11 -6 11 -13 0 -8 10 -22 23 -33 22 -19 22 -19 7 1 -8 12 -4 10 9 -5 14 -14
28 -24 33 -23 4 2 7 -2 5 -9 -1 -7 4 -13 11 -14 6 -1 17 -2 23 -3 5 0 7 -6 3
-12 -4 -8 1 -9 16 -4 14 4 20 3 16 -3 -3 -5 1 -13 10 -16 10 -4 13 -2 8 7 -4
6 2 3 14 -7 12 -11 22 -16 22 -11 0 4 6 3 13 -2 6 -6 20 -9 30 -8 9 2 17 0 17
-4 0 -4 13 -7 30 -6 16 1 27 -2 24 -6 -2 -5 9 -6 26 -4 16 2 30 0 30 -5 0 -4
8 -7 18 -5 9 1 23 -3 31 -9 12 -9 13 -8 6 3 -6 11 -5 12 6 5 16 -10 44 -16 77
-17 12 -1 22 -5 22 -10 0 -4 9 -6 19 -2 11 3 22 1 26 -5 3 -5 17 -8 31 -6 13
3 24 0 24 -5 0 -5 11 -7 25 -5 14 3 25 1 25 -3 0 -4 24 -6 53 -6 28 1 56 -1
62 -4 12 -6 40 -11 83 -13 17 -1 32 -5 32 -8 0 -3 10 -7 23 -8 12 0 36 -4 52
-7 17 -3 39 -7 50 -9 11 -2 21 -5 23 -6 1 -1 10 -3 20 -4 9 -1 22 -4 28 -8 6
-4 21 -6 33 -3 11 2 21 0 21 -5 0 -5 11 -7 25 -4 14 2 25 1 25 -4 0 -4 10 -9
23 -10 59 -5 73 -8 83 -14 6 -4 21 -6 33 -3 11 2 21 0 21 -5 0 -4 11 -7 25 -5
14 1 25 -1 25 -5 0 -4 10 -6 23 -5 12 1 27 0 32 -4 6 -3 17 -6 25 -6 8 0 20
-3 26 -7 6 -4 21 -6 33 -3 11 2 21 -1 21 -6 0 -6 4 -7 10 -4 5 3 19 1 31 -6
17 -9 20 -8 13 3 -7 11 -5 11 9 0 9 -8 21 -11 27 -7 5 3 10 2 10 -4 0 -5 10
-8 22 -6 12 3 26 0 33 -5 6 -5 23 -7 38 -6 15 2 27 0 27 -5 0 -4 11 -6 25 -3
14 2 25 0 25 -6 0 -7 8 -9 20 -5 11 3 20 2 20 -3 0 -5 12 -8 28 -7 15 1 33 -2
39 -8 7 -5 19 -7 28 -4 8 4 17 2 20 -3 4 -6 18 -7 32 -4 17 5 24 3 19 -4 -4
-6 3 -9 19 -7 14 1 25 -1 25 -4 0 -3 14 -7 30 -9 17 -1 44 -3 60 -4 17 -2 30
-6 30 -10 0 -3 11 -5 25 -3 14 1 25 -2 25 -7 0 -6 6 -8 14 -5 7 3 19 0 26 -6
10 -9 11 -9 5 3 -7 12 -6 13 6 4 8 -6 22 -10 32 -9 9 2 17 -1 17 -5 0 -5 9 -7
20 -5 11 2 22 0 24 -4 3 -4 19 -7 36 -6 16 1 30 -2 30 -6 0 -4 11 -6 25 -3 15
2 25 0 25 -7 0 -6 7 -8 16 -5 9 3 21 3 27 -1 6 -4 20 -8 32 -9 11 -1 34 -5 50
-9 17 -4 41 -8 55 -10 14 -2 26 -4 28 -5 1 -1 10 -3 20 -4 9 -1 22 -4 28 -8 6
-4 21 -6 33 -3 11 2 21 0 21 -4 0 -4 12 -7 28 -6 15 1 32 -1 37 -4 13 -7 33
-12 65 -15 14 -1 30 -5 35 -8 6 -3 18 -4 28 -3 9 2 17 0 17 -5 0 -5 11 -7 25
-5 14 1 28 -2 31 -7 3 -5 14 -6 25 -3 11 4 19 2 19 -5 0 -7 7 -9 16 -6 8 3 25
1 36 -5 16 -8 19 -8 13 1 -6 9 -2 9 14 0 12 -6 36 -13 54 -16 18 -3 43 -7 57
-10 14 -2 34 -6 45 -7 11 -1 25 -5 30 -8 6 -3 20 -4 33 -3 12 0 22 -3 22 -8 0
-5 9 -7 19 -3 11 3 22 1 26 -5 3 -6 10 -8 15 -5 5 3 19 1 31 -6 17 -9 20 -8
13 3 -6 11 -5 11 9 -1 9 -7 23 -11 31 -8 8 3 17 3 20 -1 6 -5 31 -10 84 -14 6
-1 12 -5 12 -9 0 -5 14 -6 30 -4 17 2 30 -1 30 -7 0 -5 6 -8 14 -5 7 3 19 0
26 -6 10 -9 11 -9 5 3 -8 13 -7 13 8 1 10 -8 20 -11 24 -8 3 4 13 1 21 -6 13
-10 14 -9 7 3 -7 12 -6 13 6 4 8 -6 22 -12 32 -13 9 0 25 -2 35 -2 9 -1 22 -5
27 -9 6 -4 18 -6 28 -5 9 2 17 0 17 -5 0 -4 14 -6 30 -5 17 1 33 -1 35 -5 3
-5 16 -7 30 -5 14 1 25 -2 25 -7 0 -5 5 -6 10 -3 6 4 17 1 25 -5 8 -6 19 -9
25 -5 6 4 18 1 27 -7 14 -11 16 -11 8 2 -8 13 -7 13 8 1 42 -33 42 -24 41 636
0 429 3 633 10 642 9 12 8 13 -4 6 -12 -7 -13 -6 -4 6 7 9 10 103 9 267 0 140
2 255 5 257 3 2 5 92 5 200 0 108 2 198 5 200 4 2 6 67 5 144 0 77 2 138 5
136 3 -2 5 51 5 118 -1 67 1 127 5 132 3 6 6 55 5 110 -1 57 3 106 9 114 9 12
8 13 -4 6 -12 -7 -13 -6 -4 6 6 8 10 49 9 92 0 43 2 80 5 82 4 2 6 45 5 95 0
50 2 93 5 95 4 2 6 41 5 85 -1 45 2 83 6 85 3 3 6 36 4 75 -1 39 1 73 5 75 3
2 6 34 5 70 0 37 2 68 5 70 4 2 6 33 5 69 -1 36 2 63 5 61 4 -3 6 17 5 43 -1
26 2 55 7 66 8 14 7 17 -3 11 -9 -6 -10 -4 -3 6 5 8 9 32 9 54 0 22 4 46 9 54
7 11 6 12 -5 6 -11 -7 -12 -6 -3 6 6 8 10 31 9 52 -1 21 1 40 5 42 4 3 7 32 5
65 -1 33 2 60 6 60 4 0 7 19 8 43 0 75 6 132 15 146 7 10 5 12 -5 6 -11 -7
-12 -6 -3 6 6 8 10 31 9 51 -1 21 1 35 6 32 5 -2 7 16 4 41 -2 25 0 45 4 45 5
0 7 18 6 40 -1 22 1 43 5 45 5 3 7 23 6 45 -2 22 0 40 4 40 4 0 6 20 5 45 -2
26 1 43 6 39 6 -3 8 6 6 23 -2 15 1 34 7 42 9 12 8 13 -3 6 -11 -6 -12 -5 -5
6 5 8 9 23 9 34 0 11 5 26 9 34 7 10 5 12 -5 6 -11 -7 -12 -6 -3 6 6 8 10 26
9 42 -1 15 2 27 7 27 4 0 6 11 4 25 -3 13 0 27 5 30 5 4 7 18 4 32 -2 14 -1
31 2 37 7 11 14 57 16 113 1 17 5 29 9 26 5 -2 6 9 3 26 -3 17 -1 31 4 31 5 0
8 16 6 35 -1 20 2 38 6 41 4 2 6 16 3 30 -3 17 -1 23 6 19 7 -4 9 2 6 19 -3
14 -1 28 4 31 5 3 7 14 5 25 -2 11 0 22 4 25 5 2 7 16 6 30 -2 14 0 25 4 25 4
0 8 10 9 23 0 12 4 38 7 57 3 19 7 43 8 53 1 9 4 17 8 17 3 0 5 11 4 25 -2 14
0 25 5 25 4 0 6 14 5 30 -1 17 2 30 7 30 6 0 8 9 5 20 -3 11 -1 22 3 25 5 3 9
13 9 23 0 15 6 47 11 62 1 3 2 9 1 14 -1 4 3 14 8 20 6 7 9 22 6 34 -2 12 1
22 7 22 5 0 8 6 5 14 -3 8 -3 17 1 20 3 4 7 14 9 24 6 30 8 37 15 48 4 6 6 21
3 33 -2 11 1 21 7 21 6 0 8 3 5 7 -4 3 -1 13 6 21 10 13 9 14 -3 7 -13 -7 -12
-5 1 11 14 17 18 32 22 86 1 9 6 14 11 11 5 -4 7 1 3 10 -3 10 -2 17 3 17 5 0
7 9 5 20 -2 11 0 20 5 20 5 0 7 6 4 14 -3 8 0 17 5 21 6 3 9 11 6 16 -4 5 -1
9 5 9 6 0 9 4 5 9 -3 5 -1 13 5 16 6 4 8 15 5 26 -4 12 -2 19 6 19 7 0 9 3 6
7 -4 3 -1 13 6 21 9 13 9 14 0 8 -9 -5 -11 -2 -7 8 3 9 9 16 13 16 4 0 8 7 9
15 1 8 3 22 4 30 1 8 5 15 10 15 5 0 7 4 3 9 -3 5 -1 12 5 16 6 4 8 11 4 16
-3 6 2 19 11 29 9 10 14 24 10 29 -3 6 -2 11 4 11 6 0 7 7 4 17 -5 12 -3 14 7
8 10 -6 12 -4 7 8 -3 8 1 21 9 28 8 6 12 20 9 30 -4 11 1 21 12 28 10 6 14 11
9 11 -5 0 -2 8 5 17 12 15 12 16 -1 8 -11 -6 -10 -3 3 12 9 11 14 23 10 26 -3
4 -1 7 6 7 7 0 9 5 6 10 -7 11 22 26 32 17 9 -10 12 -77 3 -77 -4 0 -8 -10 -9
-22 -1 -48 -4 -63 -15 -77 -9 -12 -8 -13 4 -6 12 6 12 5 3 -5 -6 -7 -9 -19 -6
-26 3 -8 1 -14 -5 -14 -5 0 -8 -13 -7 -30 1 -16 -1 -30 -6 -30 -4 0 -6 -10 -4
-21 3 -12 1 -27 -3 -33 -4 -6 -7 -18 -7 -26 0 -8 -3 -19 -6 -25 -4 -5 -6 -23
-4 -40 1 -16 -1 -34 -4 -40 -7 -11 -11 -45 -13 -92 0 -18 -4 -33 -8 -33 -5 0
-7 -11 -5 -25 1 -14 -1 -28 -5 -30 -4 -3 -7 -19 -6 -37 2 -18 -2 -39 -8 -47
-9 -12 -8 -13 3 -6 11 6 12 5 5 -6 -9 -15 -14 -43 -17 -101 -1 -21 -4 -38 -8
-38 -3 0 -5 -16 -4 -35 1 -19 -1 -35 -6 -35 -4 0 -6 -22 -4 -50 2 -27 -1 -48
-5 -45 -4 3 -8 -12 -8 -33 -1 -20 -4 -59 -7 -87 -3 -27 -7 -71 -8 -97 -1 -27
-5 -48 -9 -48 -4 0 -5 -18 -3 -40 2 -22 0 -40 -4 -40 -5 0 -8 -25 -6 -55 1
-30 -1 -55 -4 -55 -4 0 -7 -19 -8 -42 -4 -90 -9 -134 -18 -147 -6 -10 -4 -12
5 -6 10 6 11 4 4 -6 -5 -8 -9 -32 -9 -54 0 -22 -3 -44 -6 -50 -4 -5 -5 -30 -4
-55 1 -25 0 -49 -4 -55 -3 -5 -7 -35 -8 -65 -9 -156 -11 -185 -13 -185 -3 0
-8 -84 -13 -185 -1 -36 -5 -69 -8 -75 -3 -5 -5 -40 -4 -77 1 -38 -1 -68 -5
-68 -3 0 -6 -33 -5 -72 1 -40 -3 -79 -9 -87 -9 -12 -8 -13 3 -6 11 6 12 5 5
-6 -8 -13 -10 -41 -17 -229 -1 -47 -5 -89 -8 -95 -3 -5 -5 -54 -4 -107 0 -54
-2 -98 -5 -98 -3 0 -6 -54 -5 -120 1 -66 -1 -120 -5 -120 -3 0 -5 -53 -5 -117
1 -65 -3 -126 -8 -137 -7 -14 -6 -17 5 -10 10 6 11 5 2 -7 -6 -9 -10 -77 -9
-184 1 -93 -1 -174 -4 -180 -7 -13 -8 -1106 -1 -1110 3 -2 5 -71 5 -154 0 -83
2 -151 5 -151 3 0 6 -44 7 -98 3 -118 10 -237 13 -237 1 0 3 -31 4 -70 1 -38
4 -74 7 -80 3 -5 5 -30 4 -55 -1 -25 1 -49 4 -55 3 -5 6 -21 6 -35 0 -14 4
-31 9 -39 7 -10 6 -12 -4 -6 -10 6 -11 4 -4 -6 4 -8 10 -30 11 -49 5 -63 10
-105 13 -105 1 0 3 -11 4 -25 0 -14 5 -31 10 -39 7 -10 6 -12 -3 -6 -10 6 -11
3 -2 -14 7 -12 9 -26 6 -31 -3 -6 -2 -10 2 -10 5 0 9 -12 10 -27 2 -55 8 -91
15 -87 4 3 5 -9 3 -26 -2 -17 1 -30 7 -30 6 0 8 -3 5 -7 -4 -3 -1 -13 6 -21
10 -13 9 -14 -3 -7 -13 8 -13 6 0 -15 9 -14 15 -35 14 -48 -1 -12 2 -22 6 -22
4 0 11 -7 14 -16 4 -9 2 -13 -5 -8 -6 3 -3 -5 6 -20 10 -14 14 -26 9 -26 -4 0
-3 -5 3 -11 6 -6 9 -18 6 -25 -3 -8 0 -14 6 -14 5 0 15 -10 22 -21 8 -15 8
-19 0 -15 -19 12 -12 -2 12 -25 12 -12 15 -18 7 -14 -11 6 -10 3 3 -12 9 -11
14 -23 10 -28 -5 -4 -3 -5 4 -1 6 3 16 -2 22 -11 6 -10 11 -14 11 -10 0 4 10
2 23 -5 12 -7 25 -11 30 -10 4 1 7 -3 7 -9 0 -6 7 -8 16 -5 8 3 13 2 10 -2 -3
-4 33 -8 80 -8 46 1 84 4 84 7 0 3 11 5 25 4 14 -2 25 1 25 5 0 5 9 7 20 5 11
-2 22 0 25 5 3 5 14 7 25 5 11 -2 20 0 20 4 0 4 13 7 30 6 16 -1 30 2 30 6 0
4 12 6 26 3 16 -3 23 -1 19 6 -4 6 6 8 24 6 17 -2 31 0 31 3 0 6 9 8 65 12 14
1 25 5 25 10 0 4 14 6 30 4 17 -2 28 0 26 4 -3 5 6 7 19 5 14 -1 27 2 30 6 3
5 17 7 31 4 17 -3 23 -1 19 6 -5 8 3 10 24 7 17 -3 33 -2 36 3 3 5 16 7 30 5
14 -1 25 2 25 7 0 4 11 6 25 4 14 -3 25 0 25 5 0 6 9 7 20 4 11 -4 20 -2 20 4
0 5 14 8 30 6 17 -2 30 1 30 7 0 5 6 8 14 5 7 -3 19 0 26 6 10 9 11 9 5 -3 -7
-13 -6 -13 7 -2 8 7 23 10 32 6 9 -3 16 -1 16 4 0 6 12 9 26 6 16 -3 23 -1 19
6 -4 7 4 9 24 5 19 -3 31 -1 31 6 0 6 8 8 19 4 11 -3 22 -1 26 5 3 5 17 8 31
6 13 -3 24 -1 24 4 0 5 9 7 20 5 11 -2 22 1 25 6 4 5 11 7 16 3 5 -3 17 0 26
8 14 11 16 11 8 -1 -6 -11 -5 -12 6 -5 8 5 22 7 33 5 11 -1 16 2 11 9 -4 7 2
9 19 6 14 -3 28 -1 31 4 3 5 17 7 31 4 18 -3 23 -1 18 7 -5 9 -2 10 11 6 9 -4
25 -2 33 5 13 11 14 11 7 -1 -6 -10 -4 -12 6 -6 14 9 37 14 77 17 12 1 22 5
22 9 0 4 8 6 18 4 9 -1 23 3 31 9 12 9 13 8 6 -4 -6 -12 -5 -12 5 -3 7 6 19 9
26 6 8 -3 14 0 14 5 0 6 13 9 30 7 17 -2 30 0 30 5 0 5 9 7 20 5 11 -2 22 0
25 5 3 5 14 7 25 5 11 -2 22 0 25 5 3 4 16 7 30 5 14 -1 25 2 25 7 0 5 5 6 10
3 6 -4 18 -1 27 7 14 11 16 11 8 -2 -7 -12 -6 -13 6 -4 8 6 22 10 32 9 9 -2
17 1 17 5 0 5 12 7 26 4 16 -3 23 -1 19 6 -4 6 6 8 24 6 17 -2 31 1 31 6 0 5
5 6 10 3 6 -4 18 -1 27 7 14 11 16 11 8 -2 -7 -12 -6 -13 7 -3 8 7 18 10 21 7
3 -3 12 -2 19 2 12 7 43 13 91 17 9 1 17 4 17 7 0 3 8 6 18 7 9 0 33 4 52 7
19 4 45 8 58 8 12 1 22 5 22 9 0 4 13 6 30 4 16 -2 32 0 36 6 3 5 15 7 26 3
14 -4 18 -3 13 5 -4 8 3 10 25 6 17 -3 29 -2 26 3 -3 5 6 8 19 6 14 -1 27 2
30 6 3 5 14 7 25 5 11 -2 20 0 20 4 0 5 11 7 25 6 14 -2 27 1 31 6 3 5 10 7
15 3 5 -3 17 0 26 8 14 11 16 11 9 0 -7 -11 -4 -12 13 -3 12 7 27 9 33 5 7 -4
8 -3 4 4 -4 8 3 10 24 7 16 -2 30 0 30 5 0 4 11 7 25 5 14 -1 25 1 25 6 0 4 9
6 20 4 11 -2 20 -1 20 3 0 5 12 9 28 9 28 2 75 10 80 13 1 2 11 3 21 4 11 0
22 4 26 8 4 3 18 4 32 2 13 -3 22 -1 19 4 -3 5 8 8 24 7 17 -1 30 2 30 6 0 4
9 6 20 4 11 -2 20 0 20 4 0 4 14 7 30 6 17 -1 33 2 36 7 3 4 10 6 15 2 5 -3
17 0 26 8 14 11 16 11 8 -2 -8 -13 -7 -13 8 -1 9 7 17 10 17 6 0 -4 8 -1 17 6
15 12 16 12 8 -1 -6 -12 -5 -12 5 -3 7 6 19 9 26 6 8 -3 14 0 14 5 0 6 13 9
30 7 16 -2 32 0 35 5 3 5 12 7 20 3 8 -3 15 -1 15 5 0 6 8 9 18 7 9 -1 23 3
31 9 12 9 13 8 6 -4 -8 -13 -7 -13 8 -1 9 7 17 10 17 6 0 -4 8 -1 17 6 15 12
16 12 8 -1 -8 -13 -6 -13 8 -2 9 8 21 11 27 7 6 -4 16 -2 23 3 7 5 20 8 30 7
9 -2 17 0 17 5 0 4 11 6 25 5 14 -2 25 1 25 7 0 6 6 8 14 5 10 -4 13 7 11 49
-1 30 1 57 5 59 3 2 6 34 5 72 -1 37 3 74 9 82 9 12 8 13 -3 6 -11 -6 -12 -5
-5 6 5 8 10 55 11 104 2 50 4 128 6 175 1 47 7 91 11 99 7 11 6 12 -5 6 -11
-7 -12 -6 -3 6 6 8 10 58 10 117 -1 56 1 102 4 102 3 0 5 64 4 143 0 86 4 148
10 156 9 12 8 13 -3 6 -11 -6 -12 -5 -5 6 5 8 9 115 10 239 1 124 3 225 4 225
1 0 3 132 4 292 1 161 -1 293 -4 293 -3 0 -5 99 -5 220 0 121 -2 220 -5 220
-3 0 -5 51 -4 113 0 66 -4 118 -10 126 -9 12 -8 13 2 7 11 -7 12 -4 5 10 -6
11 -9 56 -8 101 1 45 -1 80 -5 78 -3 -2 -6 31 -5 73 1 42 -3 83 -9 91 -9 12
-8 13 4 6 12 -7 13 -6 4 6 -6 8 -10 42 -9 77 1 34 -1 62 -5 62 -3 0 -6 24 -5
53 1 28 -1 56 -4 62 -2 5 -6 36 -8 70 -4 70 -10 142 -18 205 -3 25 -7 68 -8
97 0 28 -4 50 -8 48 -3 -2 -5 16 -4 40 2 25 -1 47 -5 50 -4 2 -6 20 -5 40 2
19 -1 35 -5 35 -5 0 -7 18 -5 40 2 22 0 38 -4 36 -4 -3 -7 15 -6 40 2 24 -1
46 -5 49 -4 3 -6 18 -4 35 2 18 0 29 -6 25 -5 -3 -8 11 -5 35 2 22 0 40 -4 40
-5 0 -9 10 -9 23 0 35 -7 91 -13 102 -3 6 -4 20 -3 33 0 12 -2 22 -6 22 -5 0
-7 8 -5 18 1 9 -3 23 -9 31 -9 12 -8 13 4 6 12 -7 13 -6 4 6 -6 8 -10 22 -9
32 2 9 -1 17 -5 17 -5 0 -7 9 -5 20 2 11 0 22 -5 25 -4 3 -7 21 -6 40 2 19 0
35 -5 35 -4 0 -6 11 -3 25 2 14 0 25 -6 25 -6 0 -8 11 -4 26 5 19 4 25 -5 20
-8 -5 -10 1 -6 23 3 20 1 31 -7 31 -6 0 -8 3 -5 7 4 3 1 13 -6 21 -10 13 -9
14 3 7 13 -8 13 -7 1 8 -7 9 -10 17 -6 17 4 0 1 8 -6 17 -12 15 -12 16 1 8 12
-7 13 -6 3 7 -7 8 -10 18 -6 21 3 4 1 12 -4 19 -6 7 -9 21 -8 31 2 9 -1 17 -7
17 -5 0 -7 9 -3 19 3 11 1 22 -5 26 -6 3 -8 11 -5 16 4 5 2 9 -3 9 -5 0 -8 11
-7 25 2 14 -1 25 -7 25 -5 0 -6 9 -3 21 4 12 3 19 -2 16 -5 -3 -10 3 -11 14
-1 10 -2 27 -3 37 -1 9 -5 22 -9 27 -4 6 -6 18 -5 28 2 9 0 17 -5 17 -4 0 -11
7 -14 16 -4 10 -2 13 7 8 8 -5 7 -2 -2 9 -7 9 -10 17 -5 17 4 0 3 5 -3 11 -6
6 -9 18 -6 25 3 8 0 14 -7 14 -7 0 -9 8 -5 20 3 11 2 20 -3 20 -6 0 -13 7 -16
16 -4 10 -2 13 7 8 9 -6 9 -5 0 8 -7 8 -10 18 -6 21 3 4 -2 17 -13 29 -10 12
-13 18 -5 13 9 -5 8 0 -3 17 -9 14 -13 28 -9 31 3 4 2 7 -3 7 -5 0 -11 9 -12
20 -4 43 -6 50 -14 50 -4 0 -7 3 -6 8 2 9 -24 95 -32 102 -6 6 -11 25 -15 55
-1 11 -3 24 -4 28 0 5 -6 5 -13 1 -8 -5 -9 0 -6 14 4 13 1 22 -5 22 -6 0 -7 3
-4 7 4 3 0 17 -8 30 -9 13 -13 27 -10 32 2 5 -2 12 -11 15 -10 4 -13 13 -9 27
5 13 3 19 -3 15 -5 -3 -13 1 -16 10 -3 8 -2 12 4 9 6 -3 7 1 4 9 -3 9 -10 14
-14 11 -5 -3 -7 3 -6 12 2 10 -4 24 -13 31 -12 10 -13 12 -1 6 12 -6 11 -3 -2
12 -9 10 -17 23 -17 27 0 15 -26 67 -34 67 -5 0 -5 5 -2 11 4 6 -4 22 -16 36
-13 15 -18 23 -11 19 10 -6 10 -2 1 18 -7 14 -17 23 -22 19 -6 -4 -8 0 -4 10
3 10 2 17 -4 17 -6 0 -8 4 -5 9 3 5 -1 11 -9 15 -9 3 -12 12 -8 22 5 13 3 15
-7 9 -10 -6 -12 -4 -7 8 3 10 2 17 -4 17 -6 0 -8 4 -5 9 3 5 -1 11 -9 15 -8 3
-12 12 -9 21 4 10 0 15 -12 15 -9 0 -14 3 -11 7 4 3 -1 15 -10 26 -10 11 -12
17 -5 13 21 -13 13 3 -25 46 -21 24 -31 39 -23 33 13 -8 12 -7 0 5 -9 9 -14
22 -12 29 3 8 0 11 -7 7 -6 -4 -11 -2 -11 3 0 21 -3 26 -28 48 -15 12 -23 25
-19 29 3 4 -5 15 -18 26 -13 10 -22 25 -19 32 3 8 -4 16 -15 19 -14 3 -19 11
-15 20 3 10 -2 18 -15 22 -13 4 -18 12 -14 21 4 10 -2 17 -15 21 -12 3 -18 11
-16 18 3 7 0 16 -7 21 -8 5 -10 3 -4 -6 5 -9 4 -11 -3 -6 -7 4 -12 14 -12 22
0 8 -4 13 -8 10 -4 -2 -14 5 -22 17 -12 21 -12 21 6 7 19 -14 19 -14 0 8 -11
12 -25 22 -33 22 -8 0 -12 4 -9 9 3 5 -1 11 -9 15 -8 3 -15 10 -15 16 0 6 -12
23 -27 38 -15 15 -20 18 -12 7 13 -18 13 -19 -3 -6 -10 7 -18 20 -18 28 0 8
-4 11 -10 8 -5 -3 -10 -3 -10 2 -1 4 -12 22 -26 38 -15 17 -23 23 -18 15 4 -8
4 -12 -1 -8 -4 4 -13 18 -19 30 -6 12 -22 28 -34 34 -12 6 -26 15 -30 19 -4 5
-1 5 7 0 9 -5 12 -4 7 3 -4 7 -16 12 -26 12 -10 0 -22 5 -26 12 -4 7 -3 8 4 4
7 -4 12 -5 12 -2 0 3 -18 15 -40 26 -22 11 -40 23 -40 26 0 3 5 2 12 -2 7 -4
8 -3 4 4 -4 7 -16 12 -26 12 -11 0 -27 11 -36 25 -9 14 -20 23 -24 20 -4 -3
-10 2 -14 10 -3 8 -13 15 -21 15 -9 0 -14 4 -11 9 3 5 -1 12 -10 15 -10 4 -13
1 -9 -7 3 -6 -2 -2 -11 11 -9 12 -21 22 -27 22 -5 0 -16 8 -24 18 -9 10 -12
11 -7 2 4 -8 -5 -4 -21 10 -16 14 -25 18 -20 10 4 -8 -7 -1 -25 15 -18 17 -29
23 -25 15 5 -8 -4 -4 -20 10 -16 14 -25 18 -21 10 4 -8 0 -6 -8 4 -9 11 -16
16 -16 11 0 -4 -8 -1 -17 7 -30 25 -47 33 -39 17 4 -8 1 -6 -7 3 -8 10 -17 15
-20 11 -4 -3 -7 0 -7 7 0 7 -3 10 -7 7 -3 -4 -13 -1 -21 6 -13 10 -15 9 -8 -3
6 -12 4 -11 -6 1 -7 9 -19 14 -27 11 -9 -3 -11 0 -6 8 6 10 4 12 -7 8 -8 -4
-30 2 -47 13 -18 11 -30 15 -26 9 3 -6 0 -7 -9 -4 -9 3 -16 10 -16 16 0 5 -4
7 -9 3 -5 -3 -12 -1 -15 3 -3 5 -17 8 -31 7 -14 -2 -25 0 -25 4 0 4 -31 7 -70
6 -38 -1 -70 1 -70 5 0 4 -32 6 -70 5 -39 0 -70 2 -70 5 0 3 -34 5 -75 5 -41
0 -75 2 -75 5 0 3 -30 5 -66 5 -36 -1 -67 2 -69 5 -2 4 -38 6 -80 5 -41 -1
-75 1 -75 5 0 3 -28 5 -62 5 -35 -1 -69 4 -77 9 -12 9 -13 8 -6 -4 7 -12 6
-13 -6 -4 -8 6 -42 10 -76 10 -35 -1 -63 1 -63 4 0 3 -31 6 -70 8 -38 1 -101
3 -140 4 -38 2 -70 5 -70 8 0 3 -30 5 -67 5 -38 -1 -74 4 -82 9 -12 9 -13 8
-6 -3 6 -11 5 -12 -6 -5 -8 5 -41 10 -74 11 -146 7 -200 11 -200 13 0 2 -105
9 -215 13 -36 1 -69 5 -75 8 -5 3 -41 5 -80 4 -38 -1 -74 1 -80 4 -10 6 -63 9
-197 13 -38 1 -68 5 -68 8 0 4 -34 6 -75 5 -41 0 -75 2 -75 5 0 3 -33 6 -74 5
-41 0 -73 2 -71 5 2 3 -30 5 -71 5 -41 -1 -77 2 -79 5 -2 4 -22 6 -44 5 -31
-1 -41 2 -49 19 -5 12 -8 29 -6 39 1 9 -2 17 -6 17 -5 0 -7 9 -5 20 2 11 0 20
-4 20 -4 0 -8 6 -9 13 0 6 -3 23 -7 37 -4 14 -7 32 -7 40 -1 8 -5 18 -10 21
-5 3 -10 20 -10 37 -1 18 -5 32 -10 32 -5 0 -7 4 -4 8 3 5 -1 21 -9 36 -10 18
-10 24 -2 19 9 -5 9 -3 0 9 -7 8 -10 18 -6 21 3 4 1 7 -6 7 -8 0 -10 7 -6 21
5 14 3 19 -3 15 -6 -4 -8 2 -4 16 4 16 2 19 -8 13 -10 -6 -12 -4 -6 10 4 11 0
26 -11 38 -13 14 -14 18 -3 12 9 -5 7 1 -5 15 -11 13 -14 20 -8 16 9 -5 11 -2
7 8 -3 9 -10 16 -14 16 -5 0 -7 9 -5 20 2 11 -1 20 -6 20 -6 0 -8 4 -4 9 3 5
1 12 -4 16 -6 3 -8 12 -4 20 3 8 0 15 -6 15 -6 0 -8 7 -4 17 5 12 3 14 -7 8
-10 -6 -12 -4 -6 10 4 11 0 25 -10 36 -9 10 -13 23 -9 28 3 6 1 11 -5 11 -7 0
-10 6 -7 13 2 6 -3 18 -12 25 -9 8 -10 11 -4 7 9 -4 11 -1 7 9 -3 9 -10 16
-14 16 -5 0 -7 9 -5 20 2 11 -1 20 -6 20 -6 0 -7 5 -4 10 3 6 1 10 -5 10 -6 0
-8 5 -5 10 3 6 1 10 -5 10 -7 0 -10 7 -6 15 3 8 1 15 -5 15 -6 0 -7 5 -4 10 3
6 1 10 -5 10 -6 0 -8 5 -5 10 4 6 1 17 -5 25 -7 8 -9 15 -4 15 4 0 -1 7 -12
16 -10 8 -12 12 -5 8 9 -4 4 7 -9 26 -13 18 -19 30 -12 26 9 -6 10 -2 1 18 -7
14 -17 23 -22 19 -6 -4 -8 0 -4 10 4 10 2 17 -4 17 -6 0 -9 7 -5 15 3 8 1 15
-5 15 -6 0 -8 4 -5 9 3 5 -1 12 -10 15 -10 4 -13 13 -9 25 3 12 0 21 -10 25
-9 3 -13 11 -10 17 4 5 -1 17 -11 25 -11 9 -13 13 -4 9 10 -4 9 -2 -2 8 -10 8
-15 17 -11 20 3 4 1 7 -5 7 -6 0 -9 7 -5 17 4 10 2 14 -4 10 -7 -5 -9 0 -6 13
3 12 -1 22 -11 26 -9 3 -13 10 -10 15 3 5 0 9 -6 9 -6 0 -9 4 -6 9 3 4 -1 17
-9 27 -8 10 -15 27 -15 37 0 10 -4 16 -9 13 -5 -3 -12 1 -15 10 -4 10 -2 13 7
8 6 -4 1 5 -13 21 -14 16 -19 25 -13 21 9 -5 11 -2 7 8 -3 9 -10 13 -16 10 -5
-3 -8 2 -6 12 2 11 -2 18 -10 16 -6 -1 -12 1 -11 5 2 16 -14 53 -23 53 -5 0
-6 5 -2 11 3 6 -7 25 -22 42 -16 17 -20 25 -10 17 18 -14 18 -14 6 7 -8 12
-18 19 -24 16 -5 -4 -7 1 -3 11 4 10 1 19 -8 22 -8 4 -12 10 -9 15 3 5 0 9 -5
9 -6 0 -11 8 -11 19 0 10 -7 24 -15 31 -8 7 -15 19 -15 27 0 8 -4 12 -9 9 -5
-3 -12 1 -15 10 -4 9 -2 13 5 8 8 -4 7 0 0 15 -7 11 -16 21 -21 21 -6 0 -10 7
-10 15 0 8 -4 15 -10 15 -5 0 -7 7 -4 15 4 9 0 15 -10 15 -8 0 -13 6 -10 13 2
7 -7 24 -21 37 -14 13 -25 32 -25 42 0 11 -4 17 -9 14 -10 -7 -25 22 -22 42 1
6 -5 12 -13 12 -10 0 -13 6 -9 17 4 10 2 14 -5 9 -6 -3 -14 3 -18 16 -4 13
-19 41 -34 63 -15 22 -28 43 -29 48 0 4 -16 21 -33 38 -18 18 -24 25 -14 18
16 -12 16 -8 -4 19 -13 17 -28 32 -32 32 -5 0 -6 5 -3 10 3 6 1 10 -4 10 -6 0
-11 5 -11 11 0 15 -36 60 -42 53 -3 -3 -8 2 -12 11 -4 11 -2 14 7 10 6 -4 4 0
-5 8 -10 8 -15 16 -12 20 3 3 -4 8 -15 12 -12 3 -19 11 -15 16 8 13 -16 40
-28 32 -6 -3 -9 0 -6 8 2 7 -8 24 -24 37 -15 13 -28 32 -28 43 0 10 -6 19 -14
19 -8 0 -18 5 -22 12 -5 7 -3 8 6 3 7 -5 5 3 -6 17 -10 14 -23 23 -28 20 -5
-3 -7 2 -3 11 3 9 1 19 -5 23 -7 5 -8 2 -3 -6 5 -9 4 -11 -3 -6 -7 4 -12 14
-12 22 0 9 -5 12 -11 8 -7 -4 -10 -1 -7 7 2 7 -7 24 -21 37 -14 13 -20 20 -12
16 9 -5 12 -3 7 4 -4 7 -14 12 -22 12 -8 0 -14 7 -14 15 0 8 -5 15 -10 15 -6
0 -9 4 -8 10 2 5 -10 21 -27 35 -16 15 -23 24 -15 20 16 -7 1 7 -37 33 -10 7
-11 9 -3 5 8 -4 4 7 -10 24 -14 17 -27 29 -30 27 -4 -1 -12 6 -19 18 -9 15
-10 18 0 13 8 -5 10 -4 5 3 -4 7 -14 12 -22 12 -8 0 -14 6 -14 14 0 8 -5 18
-12 22 -7 5 -8 3 -3 -6 5 -9 4 -11 -3 -6 -7 4 -12 16 -12 26 0 18 -52 70 -70
70 -5 0 -7 7 -4 15 4 10 0 15 -11 15 -9 0 -13 5 -10 10 3 6 0 10 -8 10 -8 0
-22 10 -33 23 -19 22 -19 22 1 7 12 -8 -1 5 -27 28 -26 24 -48 50 -48 58 0 9
-4 12 -10 9 -5 -3 -10 1 -10 10 0 9 -4 14 -9 10 -5 -3 -12 4 -16 15 -4 11 -11
18 -16 15 -5 -4 -9 1 -9 9 0 9 -6 16 -14 16 -8 0 -18 9 -21 20 -4 11 -10 18
-15 15 -5 -3 -12 6 -16 20 -3 13 -10 22 -15 19 -5 -3 -9 2 -9 10 0 8 -9 18
-20 21 -11 4 -18 11 -15 15 3 5 -12 22 -34 37 -22 16 -43 36 -46 46 -4 9 -13
17 -21 17 -8 0 -14 7 -14 16 0 8 -4 13 -9 9 -6 -3 -14 3 -20 12 -6 10 -11 14
-11 9 0 -6 -14 9 -31 32 -17 23 -42 47 -56 54 -15 7 -31 22 -37 33 -15 26 -39
45 -50 38 -5 -4 -6 -1 -2 5 4 7 1 12 -7 12 -9 0 -35 23 -60 50 -25 28 -50 50
-55 50 -6 0 -14 5 -18 12 -5 7 -2 9 7 4 8 -4 5 0 -5 8 -11 9 -23 16 -28 16 -4
0 -8 8 -8 17 0 9 -3 13 -7 10 -3 -4 -12 2 -20 13 -8 11 -20 20 -28 20 -8 0
-17 5 -21 12 -5 7 -3 8 6 3 9 -6 11 -4 6 4 -5 7 -14 10 -22 7 -8 -3 -14 1 -14
9 0 8 -6 15 -14 15 -8 0 -18 5 -22 12 -4 7 -3 8 4 4 7 -4 12 -4 12 -1 0 3 -13
11 -30 16 -16 6 -30 17 -30 24 0 11 -22 27 -42 29 -3 1 -10 5 -15 10 -5 5 -2
6 6 1 9 -5 12 -4 7 3 -4 7 -14 12 -22 12 -8 0 -12 5 -9 10 5 9 0 11 -21 9 -4
0 -12 10 -18 23 -7 13 -19 22 -28 20 -9 -1 -20 3 -24 9 -5 8 -3 10 7 4 16 -9
9 -2 -36 35 -22 19 -26 20 -15 5 14 -20 14 -20 -7 -1 -13 10 -21 22 -18 25 2
4 -5 13 -17 20 -15 9 -18 10 -13 0 5 -8 4 -10 -3 -5 -7 4 -12 14 -12 23 0 9
-6 13 -14 10 -9 -4 -17 2 -21 14 -4 13 -12 18 -21 15 -9 -3 -12 -1 -9 4 3 6
-1 10 -9 10 -8 0 -22 10 -30 22 -9 12 -16 18 -16 13 -1 -6 -9 -1 -18 10 -28
31 -67 62 -57 45 5 -8 -8 2 -29 23 -20 20 -44 37 -52 37 -8 0 -13 4 -10 9 3 5
-1 12 -10 15 -10 4 -13 2 -8 -6 4 -7 3 -8 -4 -4 -7 4 -12 14 -12 23 0 9 -6 13
-14 10 -9 -4 -17 2 -21 13 -3 10 -13 21 -21 24 -10 4 -13 2 -8 -7 3 -6 -6 2
-21 18 -14 17 -24 24 -20 18 4 -9 1 -11 -9 -7 -9 3 -13 10 -10 15 3 5 1 9 -5
9 -6 0 -20 10 -32 23 -12 12 -18 15 -14 7 4 -8 -2 -5 -14 8 -12 12 -26 20 -30
17 -5 -2 -15 3 -22 12 -12 14 -12 16 0 8 10 -5 12 -4 7 3 -4 7 -16 12 -26 12
-10 0 -33 15 -51 33 -18 17 -29 25 -25 17 4 -8 -2 -4 -13 9 -12 13 -21 20 -21
15 0 -4 -11 3 -25 16 -14 13 -25 19 -25 14 0 -5 -4 -4 -8 1 -12 17 -56 51 -48
37 7 -11 4 -11 -12 -1 -12 7 -19 15 -17 18 8 8 -35 32 -45 26 -6 -3 -10 1 -10
10 0 9 -4 13 -10 10 -5 -3 -10 -2 -10 4 0 6 -6 8 -14 5 -8 -3 -17 0 -22 7 -4
8 -3 10 4 5 25 -15 10 3 -15 20 -27 17 -28 17 -13 -2 8 -10 -7 0 -34 24 -27
23 -56 40 -63 38 -7 -3 -17 4 -23 15 -6 11 -15 17 -21 14 -5 -4 -9 -1 -9 5 0
6 -4 9 -9 6 -5 -3 -14 1 -21 9 -7 8 -16 12 -21 9 -5 -3 -9 -1 -9 4 0 5 -12 17
-26 27 -18 12 -24 13 -19 4 4 -8 -3 -3 -15 11 -12 14 -19 18 -15 10 4 -8 -1
-6 -9 4 -9 11 -16 16 -16 12 0 -5 -6 -3 -13 3 -8 6 -18 7 -22 3 -5 -4 -6 -2
-2 3 3 6 -3 17 -15 24 -16 10 -19 10 -12 -1 4 -7 -2 -4 -14 6 -12 11 -22 16
-22 11 0 -4 -9 3 -21 16 -11 13 -18 18 -14 12 4 -9 1 -11 -9 -7 -9 3 -13 11
-9 17 4 6 0 8 -10 4 -10 -4 -16 -2 -14 6 1 7 -6 11 -15 9 -10 -2 -18 2 -18 8
0 6 -4 9 -9 6 -5 -3 -12 1 -15 10 -3 8 -10 12 -16 9 -6 -3 -13 1 -16 9 -3 9
-10 14 -14 11 -5 -3 -14 1 -22 8 -7 8 -19 12 -27 9 -9 -3 -11 0 -6 8 6 10 4
12 -8 7 -10 -4 -17 -1 -17 5 0 6 -3 8 -7 5 -3 -4 -12 2 -20 13 -7 11 -20 17
-28 14 -8 -4 -18 1 -21 10 -3 9 -10 13 -16 10 -5 -3 -21 5 -35 17 -15 13 -23
17 -18 9 5 -8 -3 -5 -16 6 -13 12 -30 19 -38 16 -8 -2 -11 0 -7 6 3 5 -1 13
-10 16 -10 4 -13 2 -9 -7 4 -6 0 -4 -8 5 -8 10 -17 15 -21 11 -3 -3 -18 4 -33
18 -14 13 -22 17 -18 9 7 -13 6 -13 -11 1 -32 26 -77 52 -70 40 12 -18 -2 -12
-25 12 -12 12 -19 15 -15 7 5 -9 2 -9 -7 2 -8 10 -17 15 -20 11 -4 -3 -7 -1
-7 6 0 7 -5 9 -12 5 -6 -4 -17 1 -25 11 -7 11 -13 15 -13 10 0 -4 -10 0 -22
11 -13 11 -18 13 -13 4 5 -8 -4 -5 -19 8 -16 12 -32 19 -37 16 -5 -3 -9 0 -9
7 0 7 -3 9 -7 6 -3 -4 -15 1 -26 10 -15 13 -19 14 -13 3 5 -9 2 -8 -7 2 -8 10
-17 14 -21 10 -4 -4 -14 2 -22 12 -8 11 -14 16 -14 12 0 -5 -7 -3 -15 4 -8 6
-19 9 -25 5 -5 -3 -13 0 -16 9 -3 8 -11 13 -19 10 -7 -3 -15 2 -18 10 -4 9
-15 13 -27 11 -11 -2 -20 0 -20 4 0 9 -38 24 -52 22 -5 -1 -8 4 -8 10 0 5 -4
8 -9 5 -12 -8 -42 4 -36 14 3 4 -2 11 -11 14 -8 3 -12 2 -9 -4 3 -6 -1 -7 -9
-4 -9 3 -16 10 -16 16 0 5 -4 6 -10 3 -5 -3 -10 -1 -10 5 0 7 -7 10 -15 6 -8
-3 -21 1 -29 9 -7 8 -17 11 -21 7 -3 -4 -11 1 -16 10 -5 10 -17 14 -29 11 -12
-3 -22 1 -26 10 -3 9 -14 14 -25 12 -11 -2 -17 0 -14 6 4 5 1 10 -4 10 -21 3
-26 4 -40 13 -10 7 -12 5 -7 -5 4 -8 0 -5 -8 5 -9 11 -16 16 -16 12 0 -5 -8
-2 -17 5 -15 12 -16 12 -8 -1 6 -11 3 -10 -12 3 -11 9 -23 14 -27 10 -4 -5
-14 0 -21 11 -8 10 -18 15 -24 12 -5 -3 -15 -1 -23 6 -14 13 -33 20 -55 21 -7
0 -13 5 -13 10 0 6 -3 7 -7 4 -3 -4 -17 0 -31 9 -13 8 -26 13 -30 10 -3 -3
-14 2 -25 11 -11 10 -17 12 -13 6 5 -9 2 -11 -8 -7 -9 3 -16 10 -16 14 0 5 -8
7 -17 6 -10 -2 -24 4 -31 13 -10 12 -12 13 -6 1 5 -10 1 -9 -14 3 -11 11 -26
16 -32 12 -6 -4 -21 1 -32 12 -14 12 -19 13 -13 3 6 -10 1 -9 -13 3 -11 11
-26 16 -31 12 -6 -3 -11 -1 -11 5 0 7 -7 9 -16 6 -9 -4 -13 -2 -8 5 4 8 -1 9
-16 4 -15 -5 -20 -4 -16 4 5 7 1 9 -8 5 -10 -4 -16 -1 -16 7 0 7 -3 9 -7 6 -3
-4 -13 -1 -21 6 -13 10 -14 9 -7 -3 7 -12 6 -13 -7 -3 -8 7 -18 10 -21 6 -4
-3 -7 -1 -7 6 0 7 -4 9 -10 6 -5 -3 -10 -1 -10 5 0 6 -4 9 -9 5 -5 -3 -13 0
-16 6 -4 5 -13 8 -21 5 -8 -3 -14 -1 -14 4 0 5 -6 7 -14 4 -8 -3 -17 0 -21 5
-3 6 -11 9 -16 5 -6 -3 -19 2 -29 11 -10 9 -23 14 -29 11 -5 -4 -12 -2 -16 4
-4 6 -11 8 -16 4 -5 -3 -16 0 -24 6 -8 6 -20 8 -26 4 -8 -5 -9 -3 -4 6 6 10 4
12 -8 7 -10 -4 -17 -1 -17 5 0 6 -3 8 -7 5 -3 -4 -13 -1 -21 6 -13 10 -14 9
-7 -3 5 -9 -1 -7 -15 5 -14 12 -20 14 -15 5 8 -13 7 -13 -8 -1 -9 7 -17 10
-17 6 0 -4 -6 -2 -13 4 -8 6 -17 8 -20 4 -4 -3 -7 0 -7 7 0 7 -3 10 -7 7 -3
-4 -13 -1 -21 6 -13 10 -14 9 -7 -3 7 -12 6 -13 -7 -3 -8 7 -18 10 -22 6 -4
-4 -10 -2 -14 5 -5 6 -17 13 -27 15 -11 1 -26 7 -34 11 -10 7 -12 5 -6 -5 5
-8 -2 -5 -15 6 -14 12 -20 14 -15 5 7 -12 6 -13 -7 -3 -8 7 -18 10 -21 6 -4
-3 -7 -1 -7 5 0 6 -7 9 -15 6 -8 -4 -15 -1 -15 6 0 7 -8 9 -20 5 -12 -4 -20
-2 -20 5 0 7 -7 10 -15 6 -8 -3 -15 -2 -15 2 0 7 -9 9 -65 14 -14 1 -25 6 -25
11 0 4 -4 6 -8 3 -5 -3 -21 1 -36 9 -18 10 -24 10 -19 2 4 -7 0 -7 -10 2 -9 7
-17 10 -17 6 0 -4 -7 -2 -15 5 -8 7 -15 9 -15 5 0 -4 -8 -1 -17 6 -10 9 -14 9
-10 2 5 -9 0 -8 -19 2 -15 7 -33 11 -40 8 -8 -3 -14 1 -14 8 0 7 -3 9 -6 6 -4
-3 -16 -2 -27 4 -15 9 -18 8 -11 -3 6 -11 5 -11 -9 1 -9 7 -17 10 -17 6 0 -4
-6 -3 -13 3 -7 6 -24 8 -37 5 -17 -5 -21 -3 -15 7 6 10 2 11 -19 6 -20 -5 -26
-4 -20 5 4 8 3 9 -5 5 -6 -4 -19 -2 -28 6 -14 11 -16 11 -8 -2 6 -12 5 -12 -5
-3 -7 6 -19 9 -26 6 -8 -3 -14 -1 -14 5 0 6 -8 9 -17 7 -10 -1 -24 2 -30 8 -7
5 -13 6 -13 3 0 -4 -10 -2 -21 5 -17 9 -20 8 -13 -3 6 -11 5 -11 -9 1 -9 7
-17 10 -17 6 0 -4 -6 -3 -13 4 -8 6 -23 9 -36 6 -12 -2 -19 0 -16 4 2 5 -8 9
-23 9 -42 0 -72 6 -72 13 0 4 -13 5 -30 4 -17 -1 -27 2 -24 7 4 6 -7 8 -25 5
-17 -3 -31 -1 -31 3 0 5 -9 7 -20 5 -11 -2 -22 0 -25 5 -3 4 -16 7 -30 6 -15
-2 -22 1 -18 7 4 6 0 8 -11 4 -10 -4 -27 -2 -38 4 -16 9 -19 8 -12 -3 6 -10 5
-11 -7 -2 -8 6 -22 10 -32 9 -9 -2 -14 1 -11 7 4 6 -6 8 -25 5 -17 -3 -33 -1
-37 4 -3 5 -16 7 -29 5 -14 -3 -27 -1 -30 4 -3 5 -19 7 -35 5 -16 -2 -32 0
-35 5 -3 5 -14 7 -25 5 -11 -2 -22 0 -25 6 -4 5 -19 7 -36 4 -16 -3 -29 -1
-29 4 0 6 -13 8 -30 6 -16 -2 -30 0 -30 4 0 4 -15 8 -32 8 -51 2 -92 8 -107
17 -10 7 -12 5 -6 -4 6 -10 4 -11 -6 -4 -8 5 -23 9 -34 9 -11 0 -24 3 -30 6
-5 3 -23 5 -40 4 -16 0 -36 4 -44 9 -12 9 -13 8 -6 -3 6 -11 5 -12 -6 -5 -15
9 -57 15 -126 16 -24 1 -43 4 -43 8 0 4 -18 6 -40 5 -22 -1 -40 1 -40 5 0 4
-22 6 -50 5 -27 -2 -50 1 -50 5 0 4 -25 7 -55 5 -30 -1 -55 1 -55 5 0 3 -27 6
-60 5 -33 0 -60 2 -60 5 0 3 -31 6 -70 5 -38 -1 -70 2 -70 5 0 3 -38 5 -85 5
-47 -1 -85 2 -85 5 0 4 -44 6 -97 5 -54 -1 -106 2 -117 8 -14 7 -16 6 -11 -4
6 -9 4 -10 -6 -3 -21 13 -841 13 -858 0 -11 -8 -13 -8 -7 2 4 6 5 12 2 12 -3
0 -7 -4 -10 -8z m8915 -3239 c13 -16 12 -17 -3 -4 -17 13 -22 21 -14 21 2 0
10 -8 17 -17z m594 -613 c10 -11 16 -20 13 -20 -3 0 -13 9 -23 20 -10 11 -16
20 -13 20 3 0 13 -9 23 -20z m-17495 -84 c0 -2 -8 -10 -17 -17 -16 -13 -17
-12 -4 4 13 16 21 21 21 13z m-369 -1743 c13 -16 12 -17 -3 -4 -10 7 -18 15
-18 17 0 8 8 3 21 -13z m23440 -2140 c13 -16 12 -17 -3 -4 -17 13 -22 21 -14
21 2 0 10 -8 17 -17z"/>
<path d="M7399 21723 c-13 -16 -12 -17 4 -4 16 13 21 21 13 21 -2 0 -10 -8
-17 -17z"/>
<path d="M7580 21016 c0 -2 8 -10 18 -17 15 -13 16 -12 3 4 -13 16 -21 21 -21
13z"/>
<path d="M21190 20175 c19 -19 36 -35 39 -35 3 0 -10 16 -29 35 -19 19 -36 35
-39 35 -3 0 10 -16 29 -35z"/>
<path d="M21300 20076 c0 -2 8 -10 18 -17 15 -13 16 -12 3 4 -13 16 -21 21
-21 13z"/>
<path d="M21780 19596 c0 -2 8 -10 18 -17 15 -13 16 -12 3 4 -13 16 -21 21
-21 13z"/>
<path d="M4179 18983 c-13 -16 -12 -17 4 -4 16 13 21 21 13 21 -2 0 -10 -8
-17 -17z"/>
</g>
</svg>
