<?xml version="1.0" encoding="utf-8"?>
<!-- Generator: Adobe Illustrator 22.0.1, SVG Export Plug-In . SVG Version: 6.00 Build 0)  -->
<svg version="1.1" id="Layer_1" xmlns="http://www.w3.org/2000/svg" xmlns:xlink="http://www.w3.org/1999/xlink" x="0px" y="0px"
	 viewBox="0 0 1970.2 1240" style="enable-background:new 0 0 1970.2 1240;" xml:space="preserve">
<style type="text/css">
	.st0{fill:#FFFFFF;stroke:#FFFFFF;stroke-miterlimit:10;}
	.st1{fill:#FFFFFF;}
</style>
<g>
	<path class="st0" d="M17.2,826.3h100v-400c-36.4,0-70.6,9.7-100,26.8V826.3z"/>
	<path class="st0" d="M116.7,325.8v-100c-36.4,0.1-70.6,9.8-100,26.8v73.2v26.8c29.6-17,63.9-26.8,100.5-26.8H116.7z"/>
</g>
<path class="st0" d="M467.4,426.1c-110.5,0-200,89.5-200,200s89.5,200,200,200c25.6,0,50.7-2.4,75-7v200c0,55.2-44.8,100-100,100
	c-18.4,0-35.6-5-50.4-13.6c-31,9.1-60.7,25.5-86.2,49.1l-5.4,5.4c36.2,36.5,86.5,59.2,142,59.2c110.5,0,200-89.5,200-200V785.8V709
	v-76v-14V466.3C589.6,440.5,530.2,426.1,467.4,426.1z M467.4,725.9v0.2c-55.2,0-100-44.8-100-100s44.8-100,100-100v0.2
	c52.4,3.1,94,46.6,94,99.8C561.4,679.3,519.9,722.8,467.4,725.9z"/>
<path class="st0" d="M793.4,50.8V74v50v702.5h100V124.1v-50v-50C857,24.2,822.9,33.9,793.4,50.8z"/>
<path class="st0" d="M1244.4,425.1c-110.5,0-200,89.5-200,200s89.5,200,200,200s200-89.5,200-200S1354.9,425.1,1244.4,425.1z
	 M1244.4,725.1c-55.2,0-100-44.8-100-100s44.8-100,100-100s100,44.8,100,100S1299.7,725.1,1244.4,725.1z"/>
<path class="st0" d="M1744.4,426.1c-110.5,0-200,89.5-200,200s89.5,200,200,200s200-89.5,200-200S1854.9,426.1,1744.4,426.1z
	 M1744.4,726.1c-55.2,0-100-44.8-100-100s44.8-100,100-100s100,44.8,100,100S1799.7,726.1,1744.4,726.1z"/>
<g>
	<path class="st1" d="M836.9,1121.7c-23.7,0-43.1-19.3-43.1-43.1s19.3-43.1,43.1-43.1c11.3,0,22,4.4,30.1,12.3l-14.7,14.7
		c-4.2-4-9.6-6.2-15.4-6.2c-12.3,0-22.3,10-22.3,22.3c0,12.3,10,22.3,22.3,22.3c5.8,0,11.2-2.2,15.4-6.2l14.7,14.7
		C858.9,1117.3,848.2,1121.7,836.9,1121.7z"/>
	<path class="st1" d="M836.9,1036c11,0,21.4,4.2,29.4,11.8l-14,14c-4.2-3.9-9.6-6-15.4-6c-12.6,0-22.8,10.2-22.8,22.8
		c0,12.6,10.2,22.8,22.8,22.8c5.8,0,11.2-2.1,15.4-6l14,14c-8,7.6-18.4,11.8-29.4,11.8c-23.5,0-42.6-19.1-42.6-42.6
		C794.3,1055.1,813.4,1036,836.9,1036 M836.9,1035c-24.1,0-43.6,19.5-43.6,43.6s19.5,43.6,43.6,43.6c12,0,22.9-4.9,30.8-12.8
		l-15.4-15.4c-3.9,4-9.4,6.4-15.4,6.4c-12,0-21.8-9.8-21.8-21.8s9.8-21.8,21.8-21.8c6,0,11.5,2.4,15.4,6.4l15.4-15.4
		C859.8,1039.9,848.9,1035,836.9,1035L836.9,1035z"/>
</g>
<g>
	<path class="st1" d="M889.9,1121.7V954c6.3-3.6,13.5-5.5,20.8-5.6v173.3H889.9z"/>
	<path class="st1" d="M910.1,948.9v172.2h-19.8V954.3C896.4,950.9,903.2,949.1,910.1,948.9 M911.1,947.9H911v0
		c-7.9,0-15.3,2.1-21.7,5.8v168.4h21.8V947.9L911.1,947.9z"/>
</g>
<g>
	<path class="st1" d="M976.5,1121.7c-23.7,0-43.1-19.3-43.1-43.1s19.3-43.1,43.1-43.1s43.1,19.3,43.1,43.1
		S1000.2,1121.7,976.5,1121.7z M976.5,1056.3c-12.3,0-22.3,10-22.3,22.3c0,12.3,10,22.3,22.3,22.3s22.3-10,22.3-22.3
		C998.8,1066.3,988.8,1056.3,976.5,1056.3z"/>
	<path class="st1" d="M976.5,1036c23.5,0,42.6,19.1,42.6,42.6c0,23.5-19.1,42.6-42.6,42.6s-42.6-19.1-42.6-42.6
		C933.9,1055.1,953,1036,976.5,1036 M976.5,1101.4c12.6,0,22.8-10.2,22.8-22.8c0-12.6-10.2-22.8-22.8-22.8s-22.8,10.2-22.8,22.8
		C953.7,1091.1,963.9,1101.4,976.5,1101.4 M976.5,1035c-24.1,0-43.6,19.5-43.6,43.6s19.5,43.6,43.6,43.6s43.6-19.5,43.6-43.6
		S1000.5,1035,976.5,1035L976.5,1035z M976.5,1100.4c-12,0-21.8-9.8-21.8-21.8s9.8-21.8,21.8-21.8s21.8,9.8,21.8,21.8
		S988.5,1100.4,976.5,1100.4L976.5,1100.4z"/>
</g>
<g>
	<path class="st1" d="M1085.4,1120.3c-23.7,0-43.1-19.3-43.1-43.1v-37.4c6.3-3.6,13.5-5.5,20.8-5.6v43.1c0,12.3,10,22.3,22.3,22.3
		c12.3,0,22.3-10,22.3-22.3v-37.4c6.3-3.6,13.5-5.5,20.8-5.6v43.1C1128.5,1101,1109.1,1120.3,1085.4,1120.3z"/>
	<path class="st1" d="M1128,1034.7v42.6c0,23.5-19.1,42.6-42.6,42.6s-42.6-19.1-42.6-42.6v-37.2c6-3.4,12.8-5.2,19.8-5.4v42.6
		c0,12.6,10.2,22.8,22.8,22.8s22.8-10.2,22.8-22.8v-37.2C1114.2,1036.7,1121,1034.9,1128,1034.7 M1129,1033.7h-0.1v0
		c-7.9,0-15.3,2.1-21.7,5.8v37.7c0,12-9.8,21.8-21.8,21.8s-21.8-9.8-21.8-21.8v-43.6h-0.1v0c-7.9,0-15.3,2.1-21.7,5.8v37.7
		c0,24.1,19.5,43.6,43.6,43.6s43.6-19.5,43.6-43.6V1033.7L1129,1033.7z"/>
</g>
<g>
	<path class="st1" d="M1216.6,1120.3v-2.9l-0.6,0.2c-7,1.8-14.3,2.7-21.7,2.7c-23.7,0-43.1-19.3-43.1-43.1s19.3-43.1,43.1-43.1
		c7.3,0,14.6,0.9,21.7,2.7l0.6,0.2v-84.4c6.3-3.6,13.5-5.5,20.8-5.6v173.3H1216.6z M1194.3,1055c-12.3,0-22.3,10-22.3,22.3
		c0,12.3,10,22.3,22.3,22.3c12.3,0,22.3-10,22.3-22.3C1216.6,1065,1206.6,1055,1194.3,1055z"/>
	<path class="st1" d="M1236.9,947.6v172.3h-19.8v-1.7v-1.3l-1.2,0.3c-7,1.8-14.2,2.7-21.5,2.7c-23.5,0-42.6-19.1-42.6-42.6
		s19.1-42.6,42.6-42.6c7.3,0,14.5,0.9,21.5,2.7l1.2,0.3v-1.3V953C1223.1,949.6,1229.9,947.8,1236.9,947.6 M1194.3,1100.1
		c12.6,0,22.8-10.2,22.8-22.8c0-12.6-10.2-22.8-22.8-22.8c-12.6,0-22.8,10.2-22.8,22.8C1171.5,1089.8,1181.7,1100.1,1194.3,1100.1
		 M1237.9,946.6c-7.9,0-15.4,2.1-21.8,5.8v84c-7-1.8-14.3-2.7-21.8-2.7c-24.1,0-43.6,19.5-43.6,43.6s19.5,43.6,43.6,43.6
		c7.5,0,14.8-1,21.8-2.7v2.7h21.8V946.6L1237.9,946.6z M1194.3,1099.1c-12,0-21.8-9.8-21.8-21.8s9.8-21.8,21.8-21.8
		s21.8,9.8,21.8,21.8S1206.3,1099.1,1194.3,1099.1L1194.3,1099.1z"/>
</g>
<g>
	<path class="st1" d="M1325.5,1120.3v-83.5c6.8-1.7,13.8-2.6,20.8-2.6v6.2l0.8-0.4c6.5-3.8,14-5.8,21.5-5.8c6.9,0,13.7,1.7,19.8,4.8
		c-4.2,6.9-10.1,12.5-17.3,16.1c-0.8-0.1-1.7-0.1-2.5-0.1c-12.3,0-22.3,10-22.3,22.3v43.1H1325.5z"/>
	<path class="st1" d="M1368.6,1034.7c6.6,0,13.2,1.6,19.1,4.5c-4.1,6.6-9.8,11.9-16.6,15.4c-0.8-0.1-1.6-0.1-2.4-0.1
		c-12.6,0-22.8,10.2-22.8,22.8v42.6H1326v-42.6v-40c6.4-1.6,13.1-2.4,19.8-2.5v4.8v1.7l1.5-0.9
		C1353.7,1036.7,1361.1,1034.7,1368.6,1034.7 M1368.6,1033.7c-7.9,0-15.4,2.1-21.8,5.8v-5.8c-7.5,0-14.8,1-21.8,2.7v40.8v43.6h21.8
		v-43.6c0-12,9.8-21.8,21.8-21.8c0.9,0,1.8,0.1,2.6,0.2c7.2-3.7,13.5-9.3,17.9-16.8C1382.9,1035.6,1376,1033.7,1368.6,1033.7
		L1368.6,1033.7z"/>
</g>
<g>
	<path class="st1" d="M1443.3,1117.7c-23.7,0-43.1-19.3-43.1-43.1s19.3-43.1,43.1-43.1s43.1,19.3,43.1,43.1c0,1.4-0.1,2.8-0.2,4.2
		c-5.9,3.6-12.6,5.8-19.5,6.2l-43.1,0l0.4,0.8c4,6.9,11.4,11.1,19.3,11.1c1.6,0,3.3-0.2,4.8-0.5c6.8,3.7,12.5,9.1,16.4,15.7
		C1458.1,1115.8,1450.8,1117.7,1443.3,1117.7z M1443.3,1052.4c-7.9,0-15.3,4.3-19.3,11.1l-0.4,0.8h39.5l-0.4-0.8
		C1458.6,1056.7,1451.2,1052.4,1443.3,1052.4z"/>
	<path class="st1" d="M1443.3,1032.1c23.5,0,42.6,19.1,42.6,42.6c0,1.3-0.1,2.6-0.2,3.9c-5.7,3.5-12.3,5.6-19,6h-4.5h-8.8h-28.9
		h-1.7l0.9,1.5c4.1,7,11.6,11.4,19.7,11.4c1.6,0,3.2-0.2,4.8-0.5c6.5,3.5,11.9,8.7,15.8,15c-6.3,3.5-13.4,5.3-20.6,5.3
		c-23.5,0-42.6-19.1-42.6-42.6C1400.7,1051.2,1419.8,1032.1,1443.3,1032.1 M1422.7,1064.8h1.7h37.7h1.7l-0.9-1.5
		c-4.1-7-11.6-11.4-19.7-11.4c-8.1,0-15.7,4.4-19.7,11.4L1422.7,1064.8 M1443.3,1031.1c-24.1,0-43.6,19.5-43.6,43.6
		s19.5,43.6,43.6,43.6c8,0,15.5-2.2,22-5.9c-4.2-7.2-10.2-12.7-17.1-16.4c-1.6,0.4-3.2,0.6-4.9,0.6c-8.1,0-15.1-4.4-18.9-10.9h28.9
		h8.8h4.6c7.3-0.5,14-2.8,19.9-6.4c0.1-1.5,0.2-3,0.2-4.5C1486.9,1050.6,1467.3,1031.1,1443.3,1031.1L1443.3,1031.1z M1424.4,1063.8
		c3.8-6.5,10.8-10.9,18.9-10.9s15.1,4.4,18.9,10.9H1424.4L1424.4,1063.8z"/>
</g>
<path class="st0" d="M1661.2,1074.8c0-24.1-19.5-43.6-43.6-43.6c-13,0-24.7,5.7-32.7,14.8c-3.4-3.9-7.6-7.2-12.2-9.6
	c0,0,0.1-0.1,0.1-0.1c-6.1-3.3-13.1-5.1-20.5-5.1c-7.9,0-15.4,2.1-21.8,5.8v-5.8c-7.5,0-14.8,1-21.8,2.7v37.9c-0.1,1-0.1,2-0.1,3.1
	c0,1,0,2.1,0.1,3.1v40.4h21.8v-43.6c0-6,2.4-11.4,6.3-15.3c3.9-3.9,9.4-6.3,15.3-6.3c12,0,21.8,9.8,21.8,21.8c0,0.2,0,0.4,0,0.7h0v2
	v35.1v5.8h21.8v-5.8v-35.1v-2h0c0-0.2,0-0.4,0-0.7c0-12,9.8-21.8,21.8-21.8s21.8,9.8,21.8,21.8c0,0.2,0,0.4,0,0.7h0v2v35.1v5.8h21.8
	v-41h-0.1C1661.2,1076.5,1661.2,1075.7,1661.2,1074.8z"/>
<g>
	<path class="st1" d="M1726.5,1117.7c-23.7,0-43.1-19.3-43.1-43.1s19.3-43.1,43.1-43.1s43.1,19.3,43.1,43.1
		S1750.2,1117.7,1726.5,1117.7z M1726.5,1052.4c-12.3,0-22.3,10-22.3,22.3c0,12.3,10,22.3,22.3,22.3c12.3,0,22.3-10,22.3-22.3
		C1748.7,1062.4,1738.8,1052.4,1726.5,1052.4z"/>
	<path class="st1" d="M1726.5,1032.1c23.5,0,42.6,19.1,42.6,42.6c0,23.5-19.1,42.6-42.6,42.6s-42.6-19.1-42.6-42.6
		C1683.9,1051.2,1703,1032.1,1726.5,1032.1 M1726.5,1097.4c12.6,0,22.8-10.2,22.8-22.8c0-12.6-10.2-22.8-22.8-22.8
		c-12.6,0-22.8,10.2-22.8,22.8C1703.7,1087.2,1713.9,1097.4,1726.5,1097.4 M1726.5,1031.1c-24.1,0-43.6,19.5-43.6,43.6
		s19.5,43.6,43.6,43.6s43.6-19.5,43.6-43.6S1750.5,1031.1,1726.5,1031.1L1726.5,1031.1z M1726.5,1096.4c-12,0-21.8-9.8-21.8-21.8
		s9.8-21.8,21.8-21.8s21.8,9.8,21.8,21.8S1738.5,1096.4,1726.5,1096.4L1726.5,1096.4z"/>
</g>
<g>
	<path class="st1" d="M1900.7,1117.7c-23.7,0-43.1-19.3-43.1-43.1s19.3-43.1,43.1-43.1s43.1,19.3,43.1,43.1c0,1.4-0.1,2.8-0.2,4.2
		c-5.9,3.6-12.6,5.8-19.5,6.2l-43.1,0l0.4,0.8c4,6.9,11.4,11.1,19.3,11.1c1.6,0,3.3-0.2,4.8-0.5c6.8,3.7,12.5,9.1,16.4,15.7
		C1915.5,1115.8,1908.2,1117.7,1900.7,1117.7z M1900.7,1052.4c-7.9,0-15.3,4.3-19.3,11.1l-0.4,0.8h39.5l-0.4-0.8
		C1916.1,1056.7,1908.7,1052.4,1900.7,1052.4z"/>
	<path class="st1" d="M1900.7,1032.1c23.5,0,42.6,19.1,42.6,42.6c0,1.3-0.1,2.6-0.2,3.9c-5.7,3.5-12.3,5.6-19,6h-4.5h-8.8h-28.9
		h-1.7l0.9,1.5c4.1,7,11.6,11.4,19.7,11.4c1.6,0,3.2-0.2,4.8-0.5c6.5,3.5,11.9,8.7,15.8,15c-6.3,3.5-13.4,5.3-20.6,5.3
		c-23.5,0-42.6-19.1-42.6-42.6C1858.2,1051.2,1877.3,1032.1,1900.7,1032.1 M1880.1,1064.8h1.7h37.7h1.7l-0.9-1.5
		c-4.1-7-11.6-11.4-19.7-11.4c-8.1,0-15.7,4.4-19.7,11.4L1880.1,1064.8 M1900.7,1031.1c-24.1,0-43.6,19.5-43.6,43.6
		s19.5,43.6,43.6,43.6c8,0,15.5-2.2,22-5.9c-4.2-7.2-10.2-12.7-17.1-16.4c-1.6,0.4-3.2,0.6-4.9,0.6c-8.1,0-15.1-4.4-18.9-10.9h28.9
		h8.8h4.6c7.3-0.5,14-2.8,19.9-6.4c0.1-1.5,0.2-3,0.2-4.5C1944.3,1050.6,1924.8,1031.1,1900.7,1031.1L1900.7,1031.1z M1881.9,1063.8
		c3.8-6.5,10.8-10.9,18.9-10.9c8.1,0,15.1,4.4,18.9,10.9H1881.9L1881.9,1063.8z"/>
</g>
<g>
	<path class="st1" d="M1834.8,1117.7c-23.5-0.3-42.5-19.5-42.5-43V950.3c6.3-3.6,13.5-5.5,20.8-5.6v21.8h21.8
		c-0.1,7.3-2,14.5-5.6,20.8h-16.1v87.5c0,9.9,6.6,18.7,16.1,21.4C1832.8,1102.7,1834.7,1110.1,1834.8,1117.7z"/>
	<path class="st1" d="M1812.6,945.2v20.7v1h1h20.7c-0.2,6.9-2,13.7-5.4,19.8h-15.4h-1v1v87c0,10.1,6.7,19,16.3,21.8
		c3.4,6.3,5.3,13.4,5.4,20.7c-23-0.5-41.5-19.4-41.5-42.5V1034v-46.3v-21.8v-15.4C1798.8,947.2,1805.6,945.4,1812.6,945.2
		 M1813.6,944.2h-0.1v0c-7.9,0-15.3,2.1-21.6,5.8v15.9v21.8v46.3v40.7c0,24,19.5,43.5,43.5,43.5c0-8.2-2.1-15.9-5.8-22.5
		c-9.2-2.5-16-11-16-21v-87h15.9c3.7-6.4,5.8-13.8,5.8-21.6h0v-0.1h-21.8V944.2L1813.6,944.2z"/>
</g>
</svg>
