<?xml version="1.0" encoding="utf-8"?>
<!-- Generator: Adobe Illustrator 22.0.1, SVG Export Plug-In . SVG Version: 6.00 Build 0)  -->
<svg version="1.1" id="Layer_1" xmlns="http://www.w3.org/2000/svg" xmlns:xlink="http://www.w3.org/1999/xlink" x="0px" y="0px"
	 viewBox="0 0 1447.4 850.1" style="enable-background:new 0 0 1447.4 850.1;" xml:space="preserve">
<style type="text/css">
	.st0{fill:#C9DDF7;}
	.st1{fill:#FFFFFF;}
	.st2{fill:none;}
</style>
<g id="layerbg1">
	<path class="st0" d="M-0.6,714.6c-0.4-1-0.2-2.2,0.4-2.8c0.8-0.8,1.3-0.7,1.8,0.6c0.4,1,0.2,2.2-0.4,2.8
		C0.4,716-0.1,715.9-0.6,714.6z"/>
	<path class="st0" d="M9.4,586.6c-0.4-1-0.2-2.2,0.4-2.8c0.8-0.8,1.3-0.7,1.8,0.6c0.4,1,0.2,2.2-0.4,2.8
		C10.4,588,9.9,587.9,9.4,586.6z"/>
	<path class="st0" d="M968.7,447.4c-0.7-1.3,1.5-5.7,2.8-5.6c1.7,0.1,1.6,1.8-0.3,4.2C970.2,447.3,969,447.9,968.7,447.4z"/>
</g>
<g id="layerbg2">
	<path class="st1" d="M1188.8,850.5c-0.2-0.3-12.6-2.8-27.4-5.6c-46.7-8.8-77.1-14.5-104.4-19.7c-34-6.5-50.9-9.6-64-11.7
		c-18-2.9-23.6-5-29-11.1c-5-5.7-6.7-10.7-8.4-24.4c-3.9-31.5-5.3-78.4-3.7-129.5c2.4-78,7.2-134.5,16.6-195.5c0.3-1.9-1.7,3-4.4,11
		c-15,43.9-24.6,110.8-29.1,202c-1.3,25.5-3,91.6-3,115.1c0,14.7-0.3,17.9-1.5,18.9c-0.9,0.8-5.1,1.4-10.3,1.6
		c-4.8,0.2-13.6,0.8-19.7,1.4c-10.2,0.9-63.2,5.2-105,8.5c-32.2,2.5-90.8,5.8-167.6,9.5c-78.4,3.7-213.8,3.2-269.4-1
		c-7.1-0.5-23.3-1.7-36-2.5c-74.4-5.1-143.6-15.6-200.5-30.4c-22.1-5.7-46.2-12.9-52.4-15.6c-1.7-0.8-7.4-3-12.6-4.9
		c-13.5-5-27.8-11.4-41.5-18.6c-18.6-9.7-16.6-6.9-16.5-23.9c0.2-18.3,1.7-54.1,3-68.6c1.7-20,4-42.8,5.6-55.5
		c0.9-6.9,1.7-13.8,1.9-15.5c1.3-11.3,1.8-15,3.2-22.9c0.9-4.8,2.2-9,2.9-9.3c0.7-0.2,2.6,0.3,4.4,1.2c4.3,2.2,28.4,11.2,46.5,17.3
		c30.6,10.3,74.1,21.6,110.5,28.8c10.2,2,20.4,4,22.7,4.5c6.6,1.3,56,8.8,72.8,10.9c13.1,1.7,45.3,5.1,75.5,8
		c27.6,2.7,98.8,6.5,137,7.4l21.5,0.5l-32-3.3c-17.6-1.9-37.6-4.1-44.5-5c-6.9-1-26.4-3.5-43.5-5.6c-29.7-3.8-65.9-9.2-83-12.3
		c-20.4-3.8-51-9.9-51.9-10.4c-0.5-0.3-1.9-0.7-3-0.9c-3.5-0.5-31.4-7.3-36.9-8.9c-2.9-0.9-10.4-3.1-16.7-5
		c-24.2-7.1-55.1-19.6-73.2-29.6c-31.1-17.2-53.7-38.2-65.2-60.6c-9.9-19.3-13-45.1-8.6-70.5c1.9-11.1,10-36.9,14-44.7
		c1.1-2.2,3.3-7.5,5.1-11.8c1.7-4.3,4.4-10.7,6-14.2s3.9-8.7,5.1-11.5c3.5-8.3,3.8-8.4,10.1-3.7C101,342.5,130.4,354,160,361
		c7.4,1.8,15.8,3.8,18.5,4.5c2.8,0.8,14.2,3,25.5,5c11.3,1.9,24.1,4.2,28.5,5c12.1,2.3,51.9,7.6,86,11.5
		c30.3,3.5,138.4,13.2,143.5,12.9c1.7-0.1-15.5-3.1-48-8.3c-12.4-2-27.2-4.5-33-5.6s-20.2-3.8-32-6
		c-88.3-16.2-151.7-36.1-186.5-58.5c-12.7-8.2-26-21.7-30.9-31.6c-7.7-15.3-7.1-30.2,1.8-48.3c2.4-5,7.3-12.9,10.8-17.5
		s8-10.7,10.1-13.5c20.3-27.1,80.8-87.8,85.5-85.8c1,0.4,4.7,2.2,8.3,4c14.9,7.3,43.2,15.5,73.4,21.3c16.3,3.1,63.4,9.6,85.9,11.8
		c20.1,2,28.7,2.5,24.1,1.4c-15.2-3.8-61.6-19.1-72.6-24.1c-2.4-1.1-7.3-3.3-10.9-4.9c-10.1-4.6-22.9-12.9-29.3-19.2
		c-7.5-7.1-11.1-13.9-11.1-20.6c0.1-9.9,10.4-22.2,27.4-32.7c22.6-13.9,80.8-36,117-44.5C494.5,7.4,512.3,4.5,552,1
		c43.3-3.7,91.1-2.4,141.5,4.1c14.4,1.8,56.5,9.8,70.5,13.3c35.6,8.9,71.1,20.7,105,34.9c16.5,7,60.1,28.6,73.5,36.6
		c72.5,43.2,127.7,92.7,170.3,152.8c14.8,20.9,32.5,52.9,42.4,76.8c5,12,14.6,40.3,16.8,49.4l1.1,4.8l8.7,0.7
		c4.8,0.3,10.7,0.8,13.2,1c2.5,0.3,32.6,2.3,67,4.5c34.4,2.3,64.8,4.6,67.5,5.2c15,3.5,33.3,14.7,48,29.4
		c13.3,13.2,21.8,25.4,31.5,44.9c17.3,34.9,28.6,79.6,34.5,136.1c3.1,30,3.5,35.2,4.5,67.7c1.4,46.3-1.1,134.3-4,137.2
		c-0.5,0.5-10.8,2.9-22.7,5.2c-12,2.3-33.3,6.5-47.3,9.2c-14,2.8-37,7.3-51,10.1c-14,2.7-37.2,7.3-51.5,10.2
		c-31.2,6.3-36.4,6.8-41.2,4.2c-5.2-2.7-7.1-7.2-11.3-26.3c-4.5-21-5.4-37.3-5.5-101.5c0-56.6,0.9-86.2,3.6-117
		c0.5-6,1.6-19.1,2.4-29c1.9-22.3,6.2-61.1,7.6-68.5c0.5-3,1.7-9.5,2.5-14.5c0.8-4.9,1.7-10.1,2-11.5c1.2-5.8-5,10.6-8.7,23
		c-2.2,7.4-4.6,15.7-5.5,18.4c-1.3,4.3-3.1,13.7-9.9,51.1c-2,11.3-5.1,38.1-7.5,65.5c-4.7,53.3-6,83.4-6.7,158
		c-0.3,33.3-1,61.3-1.5,62.3C1190.9,851,1189.8,851.5,1188.8,850.5z"/>
</g>
<g id="layerbg3">
	<path class="st2" d="M-76,425v-800h800h800v800v800H724H-76V425z M1191.3,787.3c0.7-74.9,2-105,6.7-158.3
		c2.4-27.4,5.5-54.2,7.5-65.5c6.8-37.5,8.6-46.8,9.9-51.1c0.9-2.7,3.1-10.4,5.1-17.1c4-13.9,9-27.1,11-29.2
		c3.3-3.3,2.8,2.8-2.4,30.9c-1.4,7.4-5.7,46.4-7.6,68.5c-0.8,9.9-1.9,23-2.4,29c-2.7,30.8-3.6,60.4-3.6,117
		c0.1,64.2,1,80.5,5.5,101.5c3.5,15.9,5,20.2,8.3,23.3c2.9,2.7,3.5,2.8,9.6,2.4c3.6-0.2,18.3-2.7,32.6-5.6
		c14.3-2.9,37.5-7.5,51.5-10.2c14-2.8,36.8-7.3,50.5-10c13.8-2.7,34.7-6.8,46.5-9c11.8-2.3,21.9-4.5,22.3-4.9
		c2.6-2.4,5.1-91.6,3.7-135.8c-1-32.5-1.4-37.7-4.5-67.7c-5.9-56.5-17.2-101.2-34.5-136.1c-9.5-19.1-18.2-31.6-30.5-43.9
		c-13.7-13.8-32.4-25-47-28.4c-2.7-0.6-33.1-2.9-67.5-5.2c-34.4-2.2-65-4.3-68-4.5c-3-0.3-9.3-0.8-13.9-1.2l-8.5-0.7l-1.3-5.5
		c-2.6-10.4-12.1-38.5-17.1-50.5c-13.2-31.8-33.6-66.5-55.6-94.5c-14.8-18.8-24.2-29.5-39.7-44.9c-32.4-32.4-69.9-61.1-115.4-88.2
		c-13.4-8-57-29.6-73.5-36.6c-33.9-14.2-69.4-26-105-34.9c-14-3.5-56.1-11.5-70.5-13.3C643.1,0.6,595.4-0.7,552,3
		c-21.5,1.9-50.9,5.6-62,7.9c-55.9,11.4-91.8,22.8-135.5,42.8c-36.9,16.9-51.1,33.9-42.3,50.8c1.5,2.8,4.8,7.1,7.5,9.6
		c5.5,5.4,18.9,13.9,28.3,18.2c3.6,1.6,8.5,3.8,10.9,4.9c12.6,5.7,55.3,19.7,75.1,24.6c5,1.2,7.5,2.3,7.5,3.3c0,1.1-1.4,1.3-6.5,1.1
		c-22.4-1-87.7-9.1-113.5-14.1c-30.2-5.8-58.5-14-73.4-21.3c-3.6-1.8-7.3-3.6-8.3-4c-4.7-2-63.3,56.8-83.5,83.8
		c-2.1,2.8-6.6,8.9-10.1,13.5c-13.4,17.8-19.6,35.8-17.5,50.7c5.2,35.8,51.2,63.3,145.8,87.1c24.7,6.3,46.5,11,74.5,16.1
		c11.8,2.2,26.2,4.9,32,6c10.3,2,35,6,76,12.4c15.6,2.5,20.5,3.6,20.5,4.7c0,1.1-1.7,1.3-8.5,1.1c-19.6-0.7-114.6-9.1-150.5-13.2
		c-34.1-3.9-73.9-9.2-86-11.5c-4.4-0.8-17.2-3.1-28.5-5c-11.3-2-22.7-4.2-25.5-5c-2.7-0.7-11.1-2.7-18.5-4.5
		c-29.5-6.9-59-18.5-71.7-28c-3-2.3-5.6-4-5.7-3.8c-0.1,0.1-1.2,2.6-2.4,5.4c-1.2,2.8-3.5,8-5.1,11.5s-4.3,9.9-6,14.2
		c-1.8,4.3-4,9.6-5.1,11.8c-4,7.8-12.1,33.6-14,44.7c-4.4,25.4-1.3,51,8.6,70.5c6,11.7,20.4,28.8,32.9,39c5,4.1,20.9,14.4,30.2,19.5
		c18.2,10.1,49.1,22.6,73.3,29.7c6.3,1.9,13.8,4.1,16.7,5c2.8,0.8,11.8,3.1,20,5.1c8.1,1.9,16.4,3.9,18.3,4.5
		c3.6,0.9,39,7.9,53.5,10.6c17.1,3.1,53.4,8.5,83,12.3c17.1,2.1,36.4,4.6,43,5.5c13,1.7,74.2,8,89.2,9.1c8.8,0.7,13,2.2,10.3,3.9
		c-2.8,1.7-143.1-4.8-181-8.5c-30.2-2.9-62.4-6.3-75.5-8c-16.8-2.1-66.2-9.6-72.8-10.9c-2.3-0.5-12.5-2.5-22.7-4.5
		c-36.4-7.2-79.9-18.5-110.5-28.8c-18.1-6.1-42.2-15.1-46.5-17.3c-1.8-0.9-3.3-1.5-3.4-1.3c-1.6,1.9-6.3,35.5-9.1,64.3
		c-0.8,8.8-2,20.3-2.5,25.5c-1.8,16.1-3,38.3-3.7,66.5c-0.5,22.5-0.4,27.2,0.8,28.1c5.3,4.3,37.8,19.7,54.9,26
		c5.2,1.9,10.9,4.1,12.6,4.9c6.2,2.7,30.3,9.9,52.4,15.6c56.9,14.8,126.1,25.3,200.5,30.4c12.7,0.8,28.9,2,36,2.5
		c55.6,4.2,191,4.7,269.4,1c76.8-3.7,135.4-7,167.6-9.5c44-3.5,94.3-7.6,108.5-8.9c8.5-0.7,15.9-1.1,16.3-0.9
		c0.5,0.3,2.8,0.2,5.3-0.2l4.4-0.6v-17.7c0-23.6,1.7-89.6,3-115.2c3.6-72.7,10.1-127.7,20.5-172c6.5-27.7,15.5-52.2,17.8-48.3
		c0.3,0.4-0.3,5.5-1.4,11.3c-1,5.8-3,20.2-4.4,32s-3,24.9-3.5,29c-3.2,23.4-6.6,81-8.1,134.5c-1.3,44.6-0.3,89.1,2.6,116.2
		c2.1,19.4,3.1,24.1,6.3,29.3c4.8,7.8,10.5,10.3,30.2,13.5c13.1,2.1,30.1,5.2,64,11.7c27.3,5.2,57.7,10.9,104.4,19.7
		c14.8,2.8,27.2,5.3,27.4,5.6c0.3,0.2,0.8,0.2,1.2,0C1190.4,848.3,1191,820.7,1191.3,787.3z"/>
</g>
<g id="layer102">
	<path class="st1" d="M1188.8,849.5c-0.2-0.3-12.6-2.8-27.4-5.6c-46.7-8.8-77.1-14.5-104.4-19.7c-34-6.5-50.9-9.6-64-11.7
		c-22-3.5-28.2-6.9-33.1-18c-3.5-8-6.4-40.6-7.5-83.5c-1.8-76.4,7.5-211.9,18-262c0.8-3.6,1.2-6.6,1.1-6.8
		c-0.6-0.7-4.5,9.1-8.9,22.6C947.8,510,938.4,576.1,934,666c-1.3,25.6-3,91.6-3,115.2c0,12.3-0.4,17.9-1.2,18.4
		c-0.6,0.4-5,0.9-9.7,1c-4.7,0.2-13.5,0.8-19.6,1.4c-10.2,0.9-63.2,5.2-105,8.5c-32.2,2.5-90.8,5.8-167.6,9.5
		c-78.4,3.7-213.8,3.2-269.4-1c-7.1-0.5-23.3-1.7-36-2.5c-74.4-5.1-143.6-15.6-200.5-30.4c-22.1-5.7-46.2-12.9-52.4-15.6
		c-1.7-0.8-7.4-3-12.6-4.9c-16.5-6.1-43.4-18.7-55.1-25.9c-1.9-1.1-2-2.2-1.9-15.7c0.2-18.1,1.7-53.9,3-68.5c1.7-20,4-42.8,5.6-55.5
		c0.9-6.9,1.7-13.8,1.9-15.5c1.3-11.3,1.8-15,3.2-22.7c0.9-4.9,2-8.8,2.5-8.8s2.3,0.7,3.9,1.6c4.3,2.2,28.5,11.1,46.4,17.2
		c30.6,10.3,74.1,21.6,110.5,28.8c10.2,2,20.4,4,22.7,4.5c6.6,1.3,56,8.8,72.8,10.9c13.1,1.7,45.3,5.1,75.5,8
		c30.7,3,148.6,8.9,177.3,9c7.4,0,2.7-1.7-6.5-2.4c-15.1-1.1-76.3-7.4-89.3-9.1c-6.6-0.9-25.9-3.4-43-5.5
		c-29.6-3.8-65.9-9.2-83-12.3c-20.4-3.8-51-9.9-51.9-10.4c-0.5-0.3-1.9-0.7-3-0.9c-3.5-0.5-31.4-7.3-36.9-8.9
		c-2.9-0.9-10.4-3.1-16.7-5c-24.2-7.1-55.1-19.6-73.2-29.6c-30.9-17.1-52.8-37.4-64.2-59.6c-9.9-19.3-13-45.1-8.6-70.5
		c1.9-11.1,10-36.9,14-44.7c1.1-2.2,3.3-7.5,5.1-11.8c1.7-4.3,4.4-10.7,6-14.2s3.9-8.7,5.1-11.5c1.2-2.8,2.5-5.5,2.9-6
		c0.4-0.4,3.2,1.1,6.2,3.3c12.7,9.6,42.1,21.2,71.7,28.1c7.4,1.8,15.8,3.8,18.5,4.5c2.8,0.8,14.2,3,25.5,5c11.3,1.9,24.1,4.2,28.5,5
		c32.9,6.1,118.4,15.6,197.5,21.9c43,3.5,49.6,3.9,48.8,3.1c-0.4-0.4-10.3-2.2-22-4.1C406.6,389.5,334,377,327.5,375
		c-1.6-0.5-8.8-2-16-3.5c-32.1-6.5-76.5-18.7-102-28.2c-49.8-18.5-78-42.1-81.8-68.5c-2.1-14.9,4.1-32.9,17.5-50.7
		c3.5-4.6,8-10.7,10.1-13.5c20.2-27,79.8-86.8,84.5-84.8c1,0.4,4.7,2.2,8.3,4c14.9,7.3,43.2,15.5,73.4,21.3
		c17,3.3,63.9,9.7,86.5,11.8c11.8,1.1,24.1,2.3,27.3,2.6c7.4,0.8,7.4-0.8-0.1-2.4c-15.5-3.5-63.4-19.1-76.3-24.9
		c-2.4-1.1-7.3-3.3-10.9-4.9c-16.8-7.6-31.9-19.4-36.8-28.8c-7-13.5,1.1-27.7,23.8-41.7c22.6-13.9,80.8-36,117-44.5
		C494.5,8.4,512.3,5.5,552,2c43.3-3.7,91.1-2.4,141.5,4.1c14.4,1.8,56.5,9.8,70.5,13.3C816.4,32.5,860.9,49,908.5,73
		c40.8,20.5,71.1,39.7,103.5,65.3c12.6,10.1,12.5,9.9,25.8,21.7c50.8,44.9,92.7,102.3,116.4,159.5c5.2,12.6,15,41.4,16.9,50.1
		l1.2,5.1l9.1,0.7c5,0.3,11.1,0.8,13.6,1c2.5,0.3,32.6,2.3,67,4.5c34.4,2.3,64.8,4.6,67.5,5.2c14.8,3.4,33.3,14.6,47.5,28.9
		c12.8,12.7,21.4,25.1,31,44.4c17.3,34.9,28.6,79.6,34.5,136.1c3.1,30,3.5,35.2,4.5,67.7c1.3,41.8-1.1,134.2-3.5,136.7
		c-0.3,0.3-10.3,2.4-22.3,4.7c-11.9,2.3-33.2,6.5-47.2,9.2c-14,2.8-37,7.3-51,10.1c-14,2.7-37.2,7.3-51.5,10.2
		c-31,6.2-36.4,6.8-41.1,4.3c-4.5-2.4-6.5-7.3-10.4-25.4c-4.5-21.1-5.4-37.4-5.5-101.5c0-56.6,0.9-86.2,3.6-117
		c0.5-6,1.6-19.1,2.4-29c2.1-24.9,6.2-61.4,8-71c4.9-26.6,5.3-29.7,3.6-28c-1.7,1.7-7,16.2-10.6,28.8c-2,6.7-4.2,14.4-5.1,17.1
		c-1.3,4.3-3.1,13.6-9.9,51.1c-2,11.3-5.1,38.1-7.5,65.5c-4.7,53.4-6,83.7-6.6,157c-0.3,32.7-0.7,60.5-1,61.8
		C1191,849.9,1189.9,850.6,1188.8,849.5z"/>
</g>
</svg>
