<?xml version="1.0" encoding="utf-8"?>
<!-- Generator: Adobe Illustrator 22.0.1, SVG Export Plug-In . SVG Version: 6.00 Build 0)  -->
<svg version="1.1" id="Layer_1" xmlns="http://www.w3.org/2000/svg" xmlns:xlink="http://www.w3.org/1999/xlink" x="0px" y="0px"
	 viewBox="0 0 1600 1600" style="enable-background:new 0 0 1600 1600;" xml:space="preserve">
<style type="text/css">
	.st0{fill:#F2F2F2;}
	.st1{fill:#FFFFFF;}
</style>
<g id="layerbg1">
	<path class="st0" d="M312.5,994.8c-0.3-0.7-0.1-1.5,0.3-1.9c0.5-0.5,0.9-0.5,1.2,0.4c0.3,0.7,0.1,1.5-0.3,1.9
		C313.1,995.7,312.8,995.7,312.5,994.8z"/>
	<path class="st0" d="M319.2,908.7c-0.3-0.7-0.1-1.5,0.3-1.9c0.5-0.5,0.9-0.5,1.2,0.4c0.3,0.7,0.1,1.5-0.3,1.9
		C319.9,909.6,319.5,909.6,319.2,908.7z"/>
	<path class="st0" d="M964.5,815.1c-0.5-0.9,1-3.8,1.9-3.8c1.1,0.1,1.1,1.2-0.2,2.8C965.5,815,964.7,815.4,964.5,815.1z"/>
</g>
<g id="layerbg2">
	<path class="st1" d="M1112.5,1086.2c-0.1-0.2-8.5-1.9-18.4-3.8c-31.4-5.9-51.9-9.8-70.2-13.3c-22.9-4.4-34.2-6.5-43.1-7.9
		c-12.1-2-15.9-3.4-19.5-7.5c-3.4-3.8-4.5-7.2-5.7-16.4c-2.6-21.2-3.6-52.7-2.5-87.1c1.6-52.5,4.8-90.5,11.2-131.5
		c0.2-1.3-1.1,2-3,7.4c-10.1,29.5-16.5,74.5-19.6,135.9c-0.9,17.2-2,61.6-2,77.4c0,9.9-0.2,12-1,12.7c-0.6,0.5-3.4,0.9-6.9,1.1
		c-3.2,0.1-9.1,0.5-13.3,0.9c-6.9,0.6-42.5,3.5-70.6,5.7c-21.7,1.7-61.1,3.9-112.7,6.4c-52.7,2.5-143.8,2.2-181.2-0.7
		c-4.8-0.3-15.7-1.1-24.2-1.7c-50-3.4-96.6-10.5-134.9-20.4c-14.9-3.8-31.1-8.7-35.2-10.5c-1.1-0.5-5-2-8.5-3.3
		c-9.1-3.4-18.7-7.7-27.9-12.5c-12.5-6.5-11.2-4.6-11.1-16.1c0.1-12.3,1.1-36.4,2-46.1c1.1-13.5,2.7-28.8,3.8-37.3
		c0.6-4.6,1.1-9.3,1.3-10.4c0.9-7.6,1.2-10.1,2.2-15.4c0.6-3.2,1.5-6.1,2-6.3c0.5-0.1,1.7,0.2,3,0.8c2.9,1.5,19.1,7.5,31.3,11.6
		c20.6,6.9,49.8,14.5,74.3,19.4c6.9,1.3,13.7,2.7,15.3,3c4.4,0.9,37.7,5.9,49,7.3c8.8,1.1,30.5,3.4,50.8,5.4
		c18.6,1.8,66.5,4.4,92.2,5l14.5,0.3l-21.5-2.2c-11.8-1.3-25.3-2.8-29.9-3.4c-4.6-0.7-17.8-2.4-29.3-3.8c-20-2.6-44.3-6.2-55.8-8.3
		c-13.7-2.6-34.3-6.7-34.9-7c-0.3-0.2-1.3-0.5-2-0.6c-2.4-0.3-21.1-4.9-24.8-6c-2-0.6-7-2.1-11.2-3.4c-16.3-4.8-37.1-13.2-49.2-19.9
		c-20.9-11.6-36.1-25.7-43.9-40.8c-6.7-13-8.7-30.3-5.8-47.4c1.3-7.5,6.7-24.8,9.4-30.1c0.7-1.5,2.2-5,3.4-7.9c1.1-2.9,3-7.2,4-9.6
		c1.1-2.4,2.6-5.9,3.4-7.7c2.4-5.6,2.6-5.7,6.8-2.5c8.5,6.5,28.3,14.2,48.2,18.9c5,1.2,10.6,2.6,12.4,3c1.9,0.5,9.6,2,17.2,3.4
		c7.6,1.3,16.2,2.8,19.2,3.4c8.1,1.5,34.9,5.1,57.9,7.7c20.4,2.4,93.1,8.9,96.5,8.7c1.1-0.1-10.4-2.1-32.3-5.6
		c-8.3-1.3-18.3-3-22.2-3.8c-3.9-0.7-13.6-2.6-21.5-4c-59.4-10.9-102-24.3-125.5-39.4c-8.5-5.5-17.5-14.6-20.8-21.3
		c-5.2-10.3-4.8-20.3,1.2-32.5c1.6-3.4,4.9-8.7,7.3-11.8s5.4-7.2,6.8-9.1c13.7-18.2,54.4-59.1,57.5-57.7c0.7,0.3,3.2,1.5,5.6,2.7
		c10,4.9,29.1,10.4,49.4,14.3c11,2.1,42.6,6.5,57.8,7.9c13.5,1.3,19.3,1.7,16.2,0.9c-10.2-2.6-41.4-12.8-48.8-16.2
		c-1.6-0.7-4.9-2.2-7.3-3.3c-6.8-3.1-15.4-8.7-19.7-12.9c-5-4.8-7.5-9.4-7.5-13.9c0.1-6.7,7-14.9,18.4-22
		c15.2-9.4,54.4-24.2,78.7-29.9c28.6-6.7,40.6-8.6,67.3-11c29.1-2.5,61.3-1.6,95.2,2.8c9.7,1.2,38,6.6,47.4,8.9
		c23.9,6,47.8,13.9,70.6,23.5c11.1,4.7,40.4,19.2,49.4,24.6c48.8,29.1,85.9,62.4,114.6,102.8c10,14.1,21.9,35.6,28.5,51.7
		c3.4,8.1,9.8,27.1,11.3,33.2l0.7,3.2l5.9,0.5c3.2,0.2,7.2,0.5,8.9,0.7c1.7,0.2,21.9,1.5,45.1,3c23.1,1.5,43.6,3.1,45.4,3.5
		c10.1,2.4,22.4,9.9,32.3,19.8c8.9,8.9,14.7,17.1,21.2,30.2c11.6,23.5,19.2,53.5,23.2,91.6c2.1,20.2,2.4,23.7,3,45.5
		c0.9,31.1-0.7,90.3-2.7,92.3c-0.3,0.3-7.3,2-15.3,3.5c-8.1,1.5-22.4,4.4-31.8,6.2c-9.4,1.9-24.9,4.9-34.3,6.8
		c-9.4,1.8-25,4.9-34.6,6.9c-21,4.2-24.5,4.6-27.7,2.8c-3.5-1.8-4.8-4.8-7.6-17.7c-3-14.1-3.6-25.1-3.7-68.3c0-38.1,0.6-58,2.4-78.7
		c0.3-4,1.1-12.8,1.6-19.5c1.3-15,4.2-41.1,5.1-46.1c0.3-2,1.1-6.4,1.7-9.8c0.5-3.3,1.1-6.8,1.3-7.7c0.8-3.9-3.4,7.1-5.9,15.5
		c-1.5,5-3.1,10.6-3.7,12.4c-0.9,2.9-2.1,9.2-6.7,34.4c-1.3,7.6-3.4,25.6-5,44.1c-3.2,35.9-4,56.1-4.5,106.3
		c-0.2,22.4-0.7,41.2-1,41.9C1114,1086.6,1113.2,1086.9,1112.5,1086.2z"/>
</g>
<g id="layer102">
	<path class="st0" d="M1112.5,1085.5c-0.1-0.2-8.5-1.9-18.4-3.8c-31.4-5.9-51.9-9.8-70.2-13.3c-22.9-4.4-34.2-6.5-43.1-7.9
		c-14.8-2.4-19-4.6-22.3-12.1c-2.4-5.4-4.3-27.3-5-56.2c-1.2-51.4,5-142.5,12.1-176.2c0.5-2.4,0.8-4.4,0.7-4.6
		c-0.4-0.5-3,6.1-6,15.2c-10,30.4-16.3,74.9-19.2,135.3c-0.9,17.2-2,61.6-2,77.5c0,8.3-0.3,12-0.8,12.4c-0.4,0.3-3.4,0.6-6.5,0.7
		c-3.2,0.1-9.1,0.5-13.2,0.9c-6.9,0.6-42.5,3.5-70.6,5.7c-21.7,1.7-61.1,3.9-112.7,6.4c-52.7,2.5-143.8,2.2-181.2-0.7
		c-4.8-0.3-15.7-1.1-24.2-1.7c-50-3.4-96.6-10.5-134.9-20.4c-14.9-3.8-31.1-8.7-35.2-10.5c-1.1-0.5-5-2-8.5-3.3
		c-11.1-4.1-29.2-12.6-37.1-17.4c-1.3-0.7-1.3-1.5-1.3-10.6c0.1-12.2,1.1-36.3,2-46.1c1.1-13.5,2.7-28.8,3.8-37.3
		c0.6-4.6,1.1-9.3,1.3-10.4c0.9-7.6,1.2-10.1,2.2-15.3c0.6-3.3,1.3-5.9,1.7-5.9s1.5,0.5,2.6,1.1c2.9,1.5,19.2,7.5,31.2,11.6
		c20.6,6.9,49.8,14.5,74.3,19.4c6.9,1.3,13.7,2.7,15.3,3c4.4,0.9,37.7,5.9,49,7.3c8.8,1.1,30.5,3.4,50.8,5.4c20.7,2,100,6,119.3,6.1
		c5,0,1.8-1.1-4.4-1.6c-10.2-0.7-51.3-5-60.1-6.1c-4.4-0.6-17.4-2.3-28.9-3.7c-19.9-2.6-44.3-6.2-55.8-8.3
		c-13.7-2.6-34.3-6.7-34.9-7c-0.3-0.2-1.3-0.5-2-0.6c-2.4-0.3-21.1-4.9-24.8-6c-2-0.6-7-2.1-11.2-3.4c-16.3-4.8-37.1-13.2-49.2-19.9
		c-20.8-11.5-35.5-25.2-43.2-40.1c-6.7-13-8.7-30.3-5.8-47.4c1.3-7.5,6.7-24.8,9.4-30.1c0.7-1.5,2.2-5,3.4-7.9c1.1-2.9,3-7.2,4-9.6
		s2.6-5.9,3.4-7.7s1.7-3.7,2-4c0.3-0.3,2.2,0.7,4.2,2.2c8.5,6.5,28.3,14.3,48.2,18.9c5,1.2,10.6,2.6,12.4,3c1.9,0.5,9.6,2,17.2,3.4
		c7.6,1.3,16.2,2.8,19.2,3.4c22.1,4.1,79.6,10.5,132.9,14.7c28.9,2.4,33.4,2.6,32.8,2.1c-0.3-0.3-6.9-1.5-14.8-2.8
		c-33.8-5.3-82.6-13.7-87-15.1c-1.1-0.3-5.9-1.3-10.8-2.4c-21.6-4.4-51.5-12.6-68.6-19c-33.5-12.4-52.5-28.3-55-46.1
		c-1.4-10,2.8-22.1,11.8-34.1c2.4-3.1,5.4-7.2,6.8-9.1c13.6-18.2,53.7-58.4,56.8-57c0.7,0.3,3.2,1.5,5.6,2.7
		c10,4.9,29.1,10.4,49.4,14.3c11.4,2.2,43,6.5,58.2,7.9c7.9,0.7,16.2,1.5,18.4,1.7c5,0.5,5-0.5-0.1-1.6
		c-10.4-2.4-42.6-12.8-51.3-16.7c-1.6-0.7-4.9-2.2-7.3-3.3c-11.3-5.1-21.5-13-24.8-19.4c-4.7-9.1,0.7-18.6,16-28.1
		c15.2-9.4,54.4-24.2,78.7-29.9c28.6-6.7,40.6-8.6,67.3-11c29.1-2.5,61.3-1.6,95.2,2.8c9.7,1.2,38,6.6,47.4,8.9
		C862,536,892,547.1,924,563.2c27.4,13.8,47.8,26.7,69.6,43.9c8.5,6.8,8.4,6.7,17.4,14.6c34.2,30.2,62.4,68.8,78.3,107.3
		c3.5,8.5,10.1,27.8,11.4,33.7l0.8,3.4l6.1,0.5c3.4,0.2,7.5,0.5,9.1,0.7c1.7,0.2,21.9,1.5,45.1,3c23.1,1.5,43.6,3.1,45.4,3.5
		c10,2.3,22.4,9.8,32,19.4c8.6,8.5,14.4,16.9,20.9,29.9c11.6,23.5,19.2,53.5,23.2,91.6c2.1,20.2,2.4,23.7,3,45.5
		c0.9,28.1-0.7,90.3-2.4,92c-0.2,0.2-6.9,1.6-15,3.2c-8,1.5-22.3,4.4-31.8,6.2c-9.4,1.9-24.9,4.9-34.3,6.8c-9.4,1.8-25,4.9-34.6,6.9
		c-20.9,4.2-24.5,4.6-27.6,2.9c-3-1.6-4.4-4.9-7-17.1c-3-14.2-3.6-25.2-3.7-68.3c0-38.1,0.6-58,2.4-78.7c0.3-4,1.1-12.8,1.6-19.5
		c1.4-16.7,4.2-41.3,5.4-47.8c3.3-17.9,3.6-20,2.4-18.8s-4.7,10.9-7.1,19.4c-1.3,4.5-2.8,9.7-3.4,11.5c-0.9,2.9-2.1,9.1-6.7,34.4
		c-1.3,7.6-3.4,25.6-5,44.1c-3.2,35.9-4,56.3-4.4,105.6c-0.2,22-0.5,40.7-0.7,41.6C1114,1085.8,1113.3,1086.3,1112.5,1085.5z"/>
</g>
</svg>
